<?xml version="1.0" encoding="UTF-8"?>
<!DOCTYPE svg PUBLIC "-//W3C//DTD SVG 1.1//EN" "http://www.w3.org/Graphics/SVG/1.1/DTD/svg11.dtd">
<!-- Creator: CorelDRAW X6 -->
<svg xmlns="http://www.w3.org/2000/svg" xml:space="preserve" width="135.428mm" height="148.707mm" version="1.1" style="shape-rendering:geometricPrecision; text-rendering:geometricPrecision; image-rendering:optimizeQuality; fill-rule:evenodd; clip-rule:evenodd"
viewBox="0 0 13355 14665"
 xmlns:xlink="http://www.w3.org/1999/xlink">
 <defs>
  <style type="text/css">
   <![CDATA[
    .fil2 {fill:#1A63A8}
    .fil6 {fill:#293348}
    .fil1 {fill:#324E83}
    .fil3 {fill:#427DBF}
    .fil5 {fill:#74B7E5}
    .fil7 {fill:#97A4B8}
    .fil0 {fill:#B7D9EB}
    .fil4 {fill:#EAF6F7}
   ]]>
  </style>
 </defs>
 <g id="Layer_x0020_1">
  <metadata id="CorelCorpID_0Corel-Layer"/>
  <g id="_272838496">
   <g>
    <path class="fil0" d="M11155 6267c53,28 67,23 167,19l106 -15 -37 -24 67 -7c24,-3 48,-5 71,-7l4 -2 65 -10c39,0 71,-4 109,-11 138,-25 111,-1 192,-36 26,-11 23,-3 51,-11 24,-7 31,-15 37,-17 28,-11 37,2 77,-15l58 -19c43,-8 8,7 44,-16 12,-31 12,-200 -33,-212 -1,0 -209,5 -244,5l-353 19c-48,4 -57,13 -98,17 -42,4 -80,1 -121,8 -64,11 -282,60 -315,32l-28 46 -27 -180c-5,5 -28,5 -12,82 13,61 31,133 62,180 27,40 107,160 157,174z"/>
    <path class="fil0" d="M13327 6094c5,-82 -6,-137 -135,-134 7,18 28,22 28,26l-326 -71c-85,-23 -549,-69 -624,-67 -4,59 8,122 20,174 21,93 139,111 160,121 25,12 -15,5 32,12 32,5 108,-1 208,18 67,12 530,27 591,-37l41 -39c1,-3 4,-3 5,-4z"/>
    <path class="fil0" d="M11245 7716c-18,27 -6,142 -11,197 6,-12 2,-210 -6,-253 -11,10 -10,-16 -10,19 -6,133 -22,189 29,312 6,29 23,51 37,73 40,4 83,5 126,4l-3 -16 30 0 144 0 23 0 1 8c38,-1 73,-2 106,0 34,-45 82,4 182,-74 63,-49 70,-95 56,-198 -10,-27 -25,-53 -48,-77 -11,-11 -21,-19 -33,-29 -33,-29 -17,7 -25,-33 -23,-3 -35,-3 -57,-10 -26,-8 -9,-9 -46,-16l17 17c43,36 47,3 118,57l24 22c1,1 3,3 5,4 8,8 20,15 19,30 -1,30 -1,15 -15,32l-10 -12c-33,-40 -7,-21 -33,-39 -28,-19 -46,-10 -73,-7 -122,16 -232,12 -351,12 -89,0 -134,14 -153,-17l-41 -8z"/>
    <path class="fil0" d="M10971 7690c-55,-7 -122,-31 -177,-13 -71,23 -143,-1 -209,-1l0 298c5,75 18,24 18,89l90 0c17,-20 153,-26 180,-27 35,-1 73,1 108,1 42,0 75,-1 108,-27 0,-59 -28,-15 -27,-135 0,-54 0,-108 0,-162 -5,0 -52,2 -55,2 -53,-6 -28,11 -35,-24z"/>
    <path class="fil0" d="M10321 7642c9,37 -8,48 -9,98l13 224c10,44 25,5 24,91 -45,23 -147,71 -196,81 -135,29 -202,78 -369,79 -155,1 -70,4 -179,-53 -17,-9 -14,-5 -26,-19 -131,-145 -42,-310 -82,-369 -9,9 -4,1 -11,16l-8 43c-14,137 6,136 -3,192 5,48 14,20 24,74 18,21 43,60 58,74 26,23 49,27 70,53 20,9 46,19 77,27 10,2 22,3 34,4 139,4 283,-39 410,-80l10 -3c130,-52 242,-106 242,-106l5 -3c-2,-28 -17,-41 -24,-72 -8,-39 -19,-63 -22,-100 -7,-79 -6,-182 0,-261 -27,18 -28,12 -40,10z"/>
    <path class="fil0" d="M10971 7690c7,35 -18,18 35,24 3,0 50,-2 55,-2 0,54 0,108 0,162 0,120 27,75 27,135 -32,27 -65,27 -108,27 -36,0 -73,-2 -108,-1 -27,1 -163,8 -180,27l-90 0c0,-64 -14,-14 -18,-89l0 -298c66,0 138,24 209,1 -45,-18 -205,-17 -248,-33l-3 -44c-26,16 -9,-3 -18,25 -18,53 -1,328 39,450 68,3 134,3 200,4l5 -2c61,-18 295,-11 363,-15l-11 -51c-15,-132 -52,-251 5,-377l41 -67c12,-13 2,-4 18,-15l-2 -18c-71,44 -52,76 -87,144 -50,98 -8,55 -23,188l-1 -162 -100 -13z"/>
    <path class="fil0" d="M11245 7716l41 8c20,30 64,17 153,17 119,0 229,4 351,-12 27,-4 45,-13 73,7 27,18 0,-2 33,39l10 12c14,-17 14,-2 15,-32 1,-14 -11,-22 -19,-30 -1,-1 -3,-3 -5,-4l-24 -22c-71,-54 -75,-21 -118,-57l-17 -17c-81,-22 -178,-35 -267,-50 11,33 -4,10 22,25 19,11 78,10 106,14 48,7 72,21 126,28l-120 12c9,95 37,9 54,60 -32,11 -258,3 -311,-3 -14,-2 -37,-6 -48,-7 -18,-2 -43,-1 -56,13z"/>
    <path class="fil0" d="M11890 5887c35,0 244,-5 244,-5 45,12 45,181 33,212 -36,23 -1,8 -44,16l-58 19c-40,16 -48,4 -77,15 -7,2 -13,11 -37,17 -28,8 -24,0 -51,11 -81,34 -54,10 -192,36 -38,7 -70,11 -109,11l-65 10 -4 2c36,-3 72,-6 108,-10 118,-10 236,-20 354,-42l0 0 13 -3c77,-17 170,-37 204,-98 -4,-60 -20,-100 -23,-165 -2,-38 -1,-52 -11,-87 -4,-15 -8,-28 -12,-41l-16 -38 11 103c-2,1 -6,2 -8,2 -2,0 -6,1 -8,2l-34 1c-94,37 -181,-2 -218,31z"/>
   </g>
   <g>
    <path class="fil1" d="M1682 4882l45 9c119,47 227,50 399,131 20,9 3,3 25,12 67,27 111,59 128,61 48,9 197,111 252,151 28,20 13,14 41,26 2,-2 3,-9 4,-7l48 -115c18,-43 -1,-30 47,-125 24,-47 32,-100 59,-147 1,-2 2,-4 3,-6l42 -93c17,-44 43,-68 59,-110l93 -251c18,-61 40,-34 43,-136l38 -24c27,-23 5,-17 43,-27 24,72 11,50 66,132 4,5 14,20 14,21 17,40 -8,55 19,98l52 74c18,25 33,41 51,66 35,50 87,137 124,172l10 8c33,31 23,38 81,89 22,20 37,35 61,56 123,113 223,171 314,315l45 42 8 -15 0 -1 276 -487c-3,-14 -11,-26 -20,-40 14,0 26,4 37,8l6 -11 22 13c0,0 21,13 57,34l-26 -23c-108,-66 -67,-24 -233,-144 -157,-114 -300,-310 -373,-492 -21,-53 -107,-279 -92,-329 -20,-14 -9,-1 -22,-23 -24,-41 -55,-440 -58,-481l-110 8c12,23 35,120 8,144 -31,28 -388,13 -421,1l-36 -22c-28,3 -206,-43 -245,-54 -34,-10 -23,-12 -61,-18 -106,-16 -97,-19 -123,-39 -31,133 -231,897 -802,1547z"/>
    <path class="fil1" d="M0 14489l38 -1c4,-75 40,-168 73,-233l12 -24c24,-37 -20,26 8,-10 15,-19 9,-3 17,-26l69 -158c21,-38 45,-128 54,-171 9,-45 51,-134 72,-240 6,-30 11,-49 17,-75 35,-161 15,-73 2,-134 16,-12 26,-21 51,-29 1,-9 1,-28 2,-35 3,-22 4,-16 8,-28 27,-72 11,-49 21,-88 11,-42 16,-2 26,-80l31 -177c13,-50 7,-14 3,-51 -5,-37 18,-339 3,-408 -5,-25 -13,-39 -17,-54 -18,-69 10,-97 -31,-157 -31,-45 -10,-34 -41,-96l-64 -116c-40,-57 -22,-41 -74,-96l-104 -104c-41,-62 -27,-14 -90,-52 -53,-32 -40,-46 -85,-49l0 2692z"/>
    <path class="fil1" d="M3789 11364c-41,44 -71,192 -79,245 -40,255 42,551 183,751 32,17 13,9 32,33 36,45 -3,19 48,30 -4,-33 -20,-78 -39,-95 62,7 -15,28 62,36l8 -57c1,-2 2,-4 3,-6l41 -63c31,12 22,27 45,39l10 2c9,2 15,-16 5,-37 -9,-18 -58,-64 -69,-123 3,-17 -25,-87 -36,-118 -10,-29 -25,-99 -30,-135 -12,-89 -4,-150 10,-231l18 -73c42,-202 208,-389 383,-475 79,-38 133,-45 235,-60 182,-29 308,38 447,117 91,52 277,206 279,296 20,11 7,1 21,14 4,4 8,10 10,14 1,2 18,19 20,21 4,-39 5,-33 -13,-69 -57,-114 -72,-125 -162,-206l-237 -168c0,0 -10,-21 -10,-22 -36,17 -36,8 -76,-8 -8,-3 -13,-4 -20,-7 -64,-27 -30,-40 -49,-87 -16,-39 -21,1 -18,-72 65,-3 226,34 287,67 69,37 49,19 55,-7 -47,-30 -129,-69 -188,-83 -87,-21 -15,-18 -146,-26 11,36 -3,23 57,23l-54 19c-77,6 3,-11 -126,14 -77,15 -61,23 -96,42 -57,32 -33,5 -83,-3 -16,-3 -46,-1 -64,-1 -12,-28 -13,-3 9,-36l66 -7c-2,-1 -5,-3 -7,-4l-41 -79 72 0c2,-2 4,-5 5,-8 1,-2 3,-5 5,-7 2,-2 7,-11 9,-14 1,-2 3,-5 4,-6 1,-2 3,-5 4,-6 1,-2 7,-10 8,-12 -52,0 -57,9 -109,30l-45 18c-48,16 -58,28 -99,52l-40 23c-2,1 -4,3 -5,4 -42,30 -80,44 -103,66l-31 32c-1,1 -3,3 -5,5l-130 139c-57,72 -52,44 -73,79 -8,14 0,1 -10,18 -32,51 -33,43 -69,127 -1,3 -7,17 -9,19 -12,28 -3,7 -15,31l-63 132c-1,-1 -3,6 -5,9 0,-145 38,-63 12,-135z"/>
    <path class="fil1" d="M8588 7910c74,-3 121,-11 185,16 153,63 238,159 240,336 1,81 -38,118 -98,156 -191,120 -486,-233 -373,-437 11,-21 38,-37 46,-70zm612 357l-4 8 -2 5c-10,22 -22,46 -35,70 -8,10 -15,21 -20,32 -11,22 -32,51 -58,82 -9,9 -18,18 -28,26l0 0c-8,6 -18,15 -28,23 -57,47 -97,81 -162,109l-6 3 -4 6 -12 17c-11,-15 3,1 -30,-15l-120 -42c-115,-39 -229,-142 -313,-225 -14,-14 -40,-33 -46,-59 -1,-23 -10,1 -13,-53 15,-8 12,-9 24,-20 21,-20 16,-13 34,-26 29,-21 72,-83 88,-116 13,-27 39,-74 36,-126 1,-28 -6,-15 18,-41 11,-12 19,-17 37,-27 34,-19 251,-98 301,-102 -36,-14 -13,6 -18,-45l40 1c22,6 26,9 41,16 13,5 27,10 40,16 34,15 156,101 181,145 70,147 31,14 51,163 8,57 6,118 5,178z"/>
    <path class="fil1" d="M10744 6517l-3 -21c-19,-29 -15,-86 -15,-132 0,-53 7,-84 32,-114 42,-51 150,-98 186,-11l11 12c1,2 3,4 5,6l20 39c25,109 5,232 -118,250 -85,13 -70,-11 -117,-29zm24 -652c11,-4 22,-8 33,-11l95 0c-3,38 -7,88 5,140 7,30 14,22 22,58 11,45 27,78 59,104 79,64 -2,25 121,128 0,9 -17,92 -22,113 -11,47 -26,35 -22,114l35 -21c-3,19 -29,77 -39,92 -8,11 -31,34 -32,35 -19,30 -17,23 -1,47 26,50 25,-2 35,57 -115,-41 -72,-59 -138,-66 12,177 -12,233 -99,342 -38,48 -61,63 -107,109 -89,88 -106,63 -120,97 33,51 58,-2 117,59 -11,-3 -124,-36 -124,-36 -25,-12 3,-29 -127,-27 -71,1 -189,42 -266,60 32,-40 165,-42 213,-71 -2,-70 -46,-32 -98,-66 22,-13 29,-11 61,-13l70 -20c31,-16 55,-25 79,-42 31,-20 43,-39 67,-59 39,-32 99,-112 113,-145 30,-37 51,-85 49,-156 -14,-30 -33,-37 -58,-55 -24,-18 -40,-34 -64,-54 -24,-44 -30,-83 -45,-136 -15,-53 -1,-114 12,-165 20,-78 92,-199 154,-222 -2,3 -4,3 -4,8l-9 30c36,-7 31,-11 55,-26 25,-16 20,-10 41,-30l-31 -89c-14,-30 -6,-10 -16,-47l-6 -21c-9,-27 -4,16 -7,-13z"/>
    <path class="fil1" d="M11120 8010l11 51c-69,4 -302,-3 -363,15l-5 2 43 0c28,0 57,0 86,0 45,-7 93,-10 146,2l27 1 -50 42c-42,35 -96,93 -137,157 -31,48 -53,99 -57,144l0 0c-1,6 -1,11 -1,15 0,37 12,62 32,78 21,17 52,26 87,29 10,1 19,1 27,1 44,0 111,-37 179,-87 88,-65 177,-150 223,-203 20,-28 36,-55 45,-79 2,-6 3,-13 4,-19 1,-8 2,-17 1,-26 -9,-6 -17,-10 -25,-15 -23,-17 -9,-6 -24,-25l43 -2 -2 -10 -3 -14c-43,1 -85,0 -126,-4 -14,-22 -31,-44 -37,-73 11,59 31,70 57,108 -111,0 -28,-27 -144,-27 -1,-30 -7,-32 -9,-63l-31 0zm487 94c1,-3 2,-6 3,-8 11,-12 75,4 141,-19l14 -5c36,-13 25,5 38,-16 -30,-7 -70,5 -94,5 -33,-2 -69,-1 -106,0l1 15c1,9 2,19 2,29z"/>
    <path class="fil1" d="M4625 11438c108,-35 203,22 270,67 278,185 133,592 -141,633 -360,54 -540,-332 -351,-568 84,-105 142,-106 221,-132zm-370 211c-2,78 -84,186 67,403 255,367 829,118 800,-283l-24 -117c-15,-19 -9,-54 -66,-113 -29,-31 -58,-62 -92,-88 -205,-160 -471,-111 -624,84 -18,24 -58,89 -61,113z"/>
    <path class="fil1" d="M4553 10649l-145 61c-94,42 -202,131 -230,141 -19,30 -88,72 -121,108 -83,92 -135,149 -198,251 -18,29 -70,117 -69,153 26,72 -12,-10 -12,135 2,-3 4,-11 5,-9l63 -132c12,-23 2,-3 15,-31 1,-3 7,-17 9,-19 36,-84 37,-76 69,-127 10,-16 1,-3 10,-18 21,-35 16,-7 73,-79l130 -139c1,-1 3,-3 5,-5l31 -32c23,-22 61,-36 103,-66 2,-1 4,-3 5,-4l40 -23c41,-24 51,-36 99,-52l45 -18c52,-21 57,-30 109,-30 -2,2 -7,10 -8,12 -1,2 -3,4 -4,6 -1,2 -3,4 -4,6 -2,3 -7,11 -9,14 -2,2 -4,5 -5,7 -1,2 -3,5 -5,8l-72 0 41 79c2,1 5,3 7,4l-66 7c-22,33 -21,8 -9,36 18,0 48,-2 64,1 50,8 25,34 83,3 35,-20 20,-27 96,-42 129,-25 49,-8 126,-14l54 -19c-60,0 -46,12 -57,-23 -17,-19 -20,-27 -8,-60 13,-35 15,-10 22,-70 -2,2 -5,5 -6,7l-19 25c-5,9 -7,19 -11,33 -7,27 -7,52 -20,65 -60,-8 -18,-21 -13,-75 4,-41 6,-62 10,-96 -43,1 -122,25 -159,43 -26,12 -19,10 -54,11 -9,-14 -14,22 -7,-33z"/>
    <path class="fil1" d="M10418 7480c-11,9 -19,14 -27,31 -9,19 -6,26 -10,47 -7,36 -17,40 -20,74 -5,79 -7,182 0,261 3,36 13,61 22,100 7,32 21,45 24,72l1 0 7 1 6 1c0,-3 1,-7 1,-11 0,0 -2,-37 -3,-40 18,18 17,38 19,53 28,2 55,4 81,5 -2,-18 -8,-12 -3,-43 0,-2 2,-3 3,-7 0,-4 2,-5 3,-7l9 32c2,12 4,21 5,27 9,0 19,1 28,1 -40,-122 -57,-397 -39,-450 10,-27 -8,-8 18,-25 -12,-51 8,-108 30,-158 7,-16 4,-13 12,-23 55,0 114,18 180,24 47,5 40,14 75,21 24,5 67,5 93,6 -28,-25 -31,-9 -109,-32 -61,-18 -267,-34 -284,-37 -34,-7 -14,-11 -36,-14 -33,140 -12,29 -58,122 -54,109 -11,93 -40,142l-15 -46c-3,-73 32,-71 29,-125z"/>
    <path class="fil1" d="M11973 6825c-19,20 17,-16 -16,12 -29,24 -40,46 -61,75 -43,57 -14,69 -26,119 -7,30 -27,60 -26,115 -34,1 -12,-2 -26,15 44,8 36,-9 65,19 22,21 18,21 18,62 25,-6 27,-20 56,8 -32,16 -68,33 -78,71 -9,35 7,79 41,100 -13,-32 -26,-62 -24,-106 77,-55 107,-95 217,-133 144,-50 139,-103 159,-192l3 1c-3,-4 -6,-9 -9,-13 -3,7 -6,18 -9,21l-25 12c-1,-2 -6,1 -9,1 -9,-49 15,-42 1,-89 -2,-8 -4,-12 -5,-14l-1 -1c-2,-2 -4,-3 -8,-8 3,49 1,66 -17,104 -19,39 -57,63 -101,83 -2,1 -4,2 -6,3 -30,11 -36,4 -49,-3 -34,-17 -61,-59 -50,-105 31,-124 101,-129 198,-112 -14,-16 6,-2 -24,-22 -24,-16 -57,-15 -84,-16 13,-36 2,-2 26,-36l-11 -9c-12,-8 -25,-16 -38,-24l1 3c-40,27 -47,14 -82,59z"/>
    <path class="fil1" d="M9627 8226c-21,-26 -44,-29 -70,-53 -15,-14 -40,-53 -58,-74 -22,-12 -13,-5 -27,-20 -11,-11 -8,-12 -14,-23 -53,54 -65,-1 -93,-3 -5,0 -25,4 -43,4 -59,4 -83,44 -122,24 -27,-62 -5,-110 -57,-155 70,147 31,14 51,163 8,57 6,118 5,178l2 -3 12 -3 339 -72 11 -2 9 7c0,0 19,15 55,32z"/>
    <path class="fil1" d="M8187 7782c-4,38 5,81 5,137 18,37 -3,-5 23,29 24,33 11,66 8,95 -3,39 20,75 32,110 -17,21 27,21 -31,15 14,21 35,44 51,65 30,39 20,47 57,72 -1,-23 -10,1 -13,-53 15,-8 12,-9 24,-20 21,-20 16,-13 34,-26 29,-21 72,-83 88,-116 13,-27 39,-74 36,-126 -29,13 -54,54 -79,69 -2,1 -4,2 -6,3l-52 38c-33,-41 -15,-41 -71,-54l-22 -6c-1,-3 -5,-1 -7,-3 -28,-24 -14,-54 -32,-95l-15 -29c-38,-68 -11,-110 18,-141 -10,7 -20,13 -29,20l-1 0c-6,4 -11,9 -16,15z"/>
    <path class="fil1" d="M11120 8010l31 0c2,31 8,33 9,63 115,0 33,27 144,27 -26,-39 -46,-49 -57,-108 -51,-123 -35,-179 -29,-312 -54,33 -24,102 -26,169 -2,70 2,30 -19,50 -7,-37 -13,-157 -5,-203 9,-49 18,-17 15,-86 -15,39 -20,63 -56,91 0,-69 37,-88 56,-150 -16,11 -6,2 -18,15l-41 67c-57,127 -20,246 -5,377z"/>
    <path class="fil1" d="M8113 7873c3,107 47,218 94,278 16,11 6,-10 17,18 58,6 14,6 31,-15 -12,-34 -35,-71 -32,-110 2,-30 16,-63 -8,-95 -25,-34 -5,9 -23,-29 0,-56 -9,-100 -5,-137 -3,4 -6,8 -9,13 -10,16 -16,33 -19,46l-3 12 -12 5c-10,4 -20,9 -31,15z"/>
    <path class="fil1" d="M8508 7569c30,-9 35,-17 71,-9 -21,8 -13,12 -12,37 127,12 49,43 147,71 -1,-44 3,-21 -11,-58 -2,-5 -5,-13 -9,-21l-67 -32c-18,-8 -37,-14 -56,-14 -16,0 -31,4 -44,12l0 0c-6,4 -12,8 -18,12zm162 -28c-11,-34 11,-29 -27,-58l4 22c3,6 6,11 10,17l13 19z"/>
   </g>
   <g>
    <path class="fil2" d="M0 11797c45,3 33,17 85,49 63,38 49,-11 90,52l104 104c52,55 35,39 74,96l64 116c30,62 10,51 41,96 41,60 13,89 31,157 4,15 12,29 17,54 14,69 -8,371 -3,408 5,37 10,1 -3,51l-31 177c-10,78 -15,38 -26,80 -10,39 6,16 -21,88 -5,12 -5,6 -8,28 -1,7 -1,26 -2,35 -25,8 -34,17 -51,29 14,61 34,-27 -2,134 -6,27 -11,45 -17,75 -21,106 -63,194 -72,240 -9,43 -32,134 -54,171l-69 158c-8,23 -2,6 -17,26 -27,36 16,-27 -8,10l-12 24c-33,65 -69,158 -73,233l-38 1 0 176 680 0 856 -1121 -2 0c6,-37 36,-79 53,-124l52 -120c6,-20 11,-51 19,-71 13,-31 18,-19 28,-51 15,-52 22,-79 34,-131 12,-54 12,3 24,-64 7,-38 5,-36 15,-67 31,-102 8,-98 34,-182 1,-2 2,-5 2,-7l5 -23c2,-10 8,-32 8,-33 6,-29 1,3 2,-24 3,-56 59,-230 59,-430 0,-133 -38,-376 -104,-480 -96,-151 -49,-71 -113,-139 -19,-20 -15,-30 -30,-53 -20,-31 -167,-152 -216,-206l-333 -251c-117,-87 -54,-31 -107,-64 -10,-7 -65,-62 -137,-105 -41,-24 -74,-43 -108,-63l-508 -320c-43,-35 -51,-39 -103,-68 -45,-26 -43,-51 -110,-53l0 1378z"/>
    <path class="fil2" d="M0 5869l0 2489c50,21 74,65 109,100 79,80 129,136 217,205 128,101 419,219 587,266 63,18 111,44 184,52 -15,-81 -47,-56 -56,-120 -4,-22 -62,-120 -81,-157 -24,-46 -69,-132 -62,-191 50,-1 72,26 162,46 306,68 626,92 937,-9 74,-24 241,-72 298,-118 2,-2 5,-4 6,-5 2,-1 4,-4 6,-5l18 -12c14,-8 15,-7 25,-12 -12,-33 -9,-18 -23,-45 -8,-15 -1,-39 -35,-37 -2,0 -5,0 -7,0 -2,0 -5,0 -7,1 -37,6 -158,82 -213,90l-274 73c-342,53 -586,38 -905,-96 -239,-100 -435,-270 -572,-482 -136,-210 -257,-504 -266,-775 -2,-58 -2,-120 -9,-176 -17,-141 67,-427 135,-557 21,-41 38,-76 59,-112 105,-182 315,-471 495,-555l95 -61c54,-35 289,-121 347,-130 36,-6 64,0 98,-12 97,-35 408,-26 494,-7 36,8 47,11 90,17l239 69 63 5c-14,-36 4,-10 -27,-33 -36,-27 -285,-128 -355,-158 -39,-17 -98,-30 -141,-41 -41,-10 -28,-18 -74,-24l-153 -27c-81,-9 -388,-8 -453,6l-155 35c-30,12 -46,21 -69,29 -26,9 -43,9 -70,22l-145 70c-172,80 -331,204 -461,341 -17,18 -27,31 -50,40z"/>
    <path class="fil2" d="M2705 2308c31,175 95,300 194,420 130,158 212,203 411,201 282,-3 427,-133 542,-375 34,-72 47,-156 41,-255 -3,-57 -17,-81 -28,-124 -29,-116 -70,-221 -146,-311 -406,-479 -1079,76 -1013,445z"/>
    <path class="fil2" d="M5376 11469c42,161 52,160 53,318 3,281 -173,553 -426,662 -224,96 -349,104 -585,21 -79,-28 -167,-87 -221,-141 -35,-35 -58,-60 -84,-95 -31,-41 -44,-86 -75,-113 11,60 60,106 69,123 10,21 4,40 -5,37l-10 -2c-23,-12 -14,-27 -45,-39l-41 63c-1,2 -2,4 -3,6l-8 57c-77,-8 0,-30 -62,-36 19,17 35,62 39,95 -51,-11 -12,15 -48,-30 -19,-24 0,-16 -32,-33 13,23 38,51 44,82 16,9 32,18 48,26l3 1 2 2c8,7 16,14 24,21 6,5 13,10 21,17l8 7c120,97 250,168 378,214 31,11 61,21 91,30 50,11 101,20 154,32 77,10 148,11 209,3l4 -1 4 1c9,2 19,4 28,5 25,-22 70,-41 103,-56 253,-122 428,-279 562,-527 141,-262 124,-611 -9,-897 -28,-61 -38,-58 -56,-105 -18,-33 -127,-143 -158,-168 -71,-57 -119,-101 -200,-137 -6,25 14,43 -55,7 -61,-32 -222,-70 -287,-67 -3,74 2,33 18,72 19,47 -15,61 49,87 7,3 12,4 20,7 40,16 40,25 76,8 1,1 10,21 10,22l237 168c91,81 105,92 162,206 18,36 18,30 13,69 -2,-2 -19,-20 -20,-21zm-188 1342c-40,3 -80,5 -120,6 41,1 81,-1 120,-6z"/>
    <path class="fil2" d="M10709 7259c47,2 104,32 145,46 121,43 376,86 503,81 35,-47 30,-100 165,-163 60,-28 165,-101 215,-110l-391 -198c-122,-67 -312,-248 -326,-254 26,50 25,-2 35,57 -115,-41 -72,-59 -138,-66 12,177 -12,233 -99,342 -38,48 -61,63 -107,109 -89,88 -106,63 -120,97 33,51 58,-2 117,59z"/>
    <path class="fil2" d="M2888 1410c-3,7 -7,22 -12,26 79,15 44,14 76,-7l175 -46c-5,43 7,12 -25,25 -71,30 -93,20 -112,45 28,17 46,2 86,5 26,-1 58,-13 97,-16 222,-18 428,-15 618,122 130,94 221,206 286,361 59,141 21,56 53,164 100,338 -76,740 -324,940 -47,38 -207,141 -272,154 -11,12 2,4 -22,19 -29,19 -136,26 -167,29 -93,7 -178,-39 -221,7 27,8 80,8 106,14 56,13 24,28 76,26 123,-5 193,-29 299,-70 6,-2 15,-5 20,-7 2,-1 5,-2 7,-3l13 -6c39,-20 -10,1 35,-18 74,-32 45,-51 104,-55 -38,20 -30,33 -79,57 -2,1 -4,2 -6,3l-142 73c-10,4 -13,3 -20,6 -30,13 -22,2 -33,35l81 -8c25,-1 70,-24 93,-37 187,-98 349,-261 452,-444 148,-262 160,-580 71,-860 -78,-243 -262,-439 -482,-548 -46,-23 -138,-52 -195,-64 -366,-74 -586,73 -635,76z"/>
    <path class="fil2" d="M9467 7433c-2,2 -4,2 -5,6l-21 20c-55,48 -5,26 -55,88 -12,15 -32,44 -38,60 -6,14 -6,20 -11,34 -8,24 -11,25 -15,39 -30,114 10,240 39,347 -3,2 -16,9 -17,10 -2,1 -10,7 -12,9 -2,1 -4,4 -6,5 -1,1 -4,4 -6,6 18,0 38,-4 43,-4 28,1 40,56 93,3 6,11 3,12 14,23 14,15 6,8 27,20 -10,-54 -19,-26 -24,-74 -2,-2 -3,-7 -4,-6l-11 -27c-44,-160 45,-416 232,-495 42,-33 214,-127 252,-138l40 -15c3,-1 10,-4 13,-5 18,-8 5,-2 17,-9 43,-24 19,-11 71,-25 72,-19 56,-29 178,-17 -17,-14 -76,-12 -105,-15 8,-6 6,-6 20,-13 2,-1 11,-3 14,-4 32,-40 165,-42 213,-71 -2,-70 -46,-32 -98,-66 22,-13 29,-11 61,-13l70 -20c-37,7 -75,21 -116,11 -23,-6 -27,-11 -41,-28 -20,-24 9,-22 -27,-22 -32,-10 -224,69 -271,93 -2,1 -4,2 -6,3l-39 16c-10,5 -30,17 -45,25 -68,37 -370,182 -428,248z"/>
    <path class="fil2" d="M11709 8060c24,0 64,-12 94,-5 -13,21 -2,3 -38,16l-14 5c-67,23 -131,7 -141,19 -1,3 -2,6 -3,8 1,15 2,30 3,46 4,49 7,99 14,146 6,43 31,132 83,197 32,39 74,69 128,71 67,3 108,-42 133,-110 28,-74 37,-175 40,-272 3,-110 -6,-208 -19,-314 -12,-34 -26,-62 -42,-81 14,103 6,149 -56,198 -100,78 -148,29 -182,74z"/>
    <path class="fil2" d="M8644 7483c38,29 16,24 27,58l5 7c-4,-7 -6,-13 -11,-40 -25,-129 13,-141 44,-195l-16 13c-19,18 -38,48 -48,82 -6,23 -6,48 0,75zm50 106c4,8 7,15 9,21 14,37 10,15 11,58 -98,-29 -20,-59 -147,-71 0,-25 -8,-29 12,-37 -35,-8 -41,0 -71,9 -48,32 -96,63 -144,93 -44,28 -88,56 -132,85 -29,31 -56,73 -18,141l15 29c18,41 4,72 32,95 2,1 6,0 7,3l22 6c56,13 38,13 71,54l52 -38c2,-1 4,-2 6,-3 26,-15 50,-56 79,-69 1,-28 -6,-15 18,-41 11,-12 19,-17 37,-27 34,-19 251,-98 301,-102 -36,-14 -13,6 -18,-45l40 1 0 -8c-26,-4 -99,-47 -117,-61 -39,-29 -46,-51 -64,-90l-5 -2z"/>
    <path class="fil2" d="M5647 2235c-91,46 -104,110 -88,235 6,48 10,12 26,88 5,22 17,58 28,81 9,20 10,16 19,34 24,49 22,75 87,78 101,4 140,-82 168,-167 16,-49 37,-139 31,-194 -16,-156 -192,-193 -271,-154z"/>
    <path class="fil2" d="M11392 7550c20,25 0,13 38,21 2,0 41,3 41,3 88,15 185,28 267,50 37,7 19,7 46,16 22,7 34,7 57,10 3,-139 -52,-154 -78,-153 -26,1 -111,39 -173,37 17,-56 43,-31 92,-62 187,-118 91,-248 9,-238 -45,5 -156,83 -186,116 -83,89 -61,170 -30,202l11 9c-54,7 -51,-3 -94,-10z"/>
    <path class="fil2" d="M2500 8153l-22 40c37,-3 26,-8 54,-8 0,25 6,38 6,41 -2,40 -6,-21 -15,47 39,-14 21,-16 61,-24 36,-4 37,-36 71,-50l1 -39c-91,-14 -3,-75 -87,-66 -13,9 -56,47 -69,59z"/>
   </g>
   <g>
    <path class="fil3" d="M0 10418c66,2 65,27 110,53 52,29 61,33 103,68l508 320c35,20 68,38 108,63 72,43 127,98 137,105 54,33 -9,-23 107,64l333 251c50,54 196,175 216,206 15,23 10,32 30,53 64,67 17,-12 113,139 66,104 104,346 104,480 0,199 -57,374 -59,430 -1,26 4,-6 -2,24 0,1 -6,23 -8,33l-5 23c-1,2 -1,5 -2,7 -26,84 -3,80 -34,182 -9,31 -8,29 -15,67 -12,67 -12,10 -24,64 -12,52 -19,79 -34,131 -9,32 -15,20 -28,51 -8,20 -13,51 -19,71l-52 120c-17,46 -46,87 -53,124l2 0 82 -107 0 0 1402 -1931 2 -3c-8,1 -8,1 -25,-17l-750 -922c-21,-26 -37,-60 -57,-86l-436 -582c-173,-222 -455,-611 -605,-853 -23,-37 -28,-64 -46,-97l-43 -66c-1,-2 -3,-4 -4,-5l-10 -10c-1,-3 -4,-3 -6,-5 9,64 41,39 56,120 -73,-8 -121,-35 -184,-52 -168,-47 -459,-165 -587,-266 -88,-69 -139,-125 -217,-205 -35,-35 -59,-79 -109,-100l0 2060z"/>
    <path class="fil3" d="M2279 5093c10,19 6,18 42,39 295,176 338,235 575,431 96,79 217,221 292,327l185 273c38,57 35,59 54,106 6,16 21,36 27,54 9,25 10,47 17,67 20,-9 39,-4 47,-63 4,-30 3,-44 4,-56 -3,-5 -7,-10 -10,-15l-5 -7 1 -9c24,-237 327,-834 380,-936l-45 -42c-91,-144 -192,-202 -314,-315 -23,-22 -38,-36 -61,-56 -58,-51 -48,-58 -81,-89l-10 -8c-37,-35 -90,-122 -124,-172 -18,-26 -33,-41 -51,-66l-52 -74c-27,-43 -2,-58 -19,-98 0,-1 -11,-16 -14,-21 -55,-83 -42,-61 -66,-132 -38,10 -16,3 -43,27l-38 24c-3,102 -25,75 -43,136l-93 251c-16,42 -42,66 -59,110l-42 93c-1,2 -2,4 -3,6 -27,48 -35,100 -59,147 -49,95 -29,81 -47,125l-48 115c-1,-1 -2,5 -4,7 -28,-12 -13,-6 -41,-26 -55,-40 -204,-142 -252,-151z"/>
    <path class="fil3" d="M2888 1410c-55,11 -109,53 -148,87l-111 104c-338,353 -380,870 -110,1292 98,153 291,334 463,401 181,70 274,40 373,57 10,19 28,99 -13,108 -2,1 -5,1 -8,2l-33 4c-19,2 -36,4 -55,5 -154,9 -248,-22 -334,-23l36 22c33,13 390,28 421,-1 27,-24 4,-121 -8,-144l110 -8c3,41 33,440 58,481 13,22 2,9 22,23 -10,-51 -21,-65 -27,-117 -16,-141 -34,-220 -30,-381 29,-5 44,-3 70,-20 14,-9 9,-6 17,-15l-81 8c11,-33 3,-22 33,-35 7,-3 10,-2 20,-6l142 -73c2,-1 4,-2 6,-3 49,-24 41,-37 79,-57 -59,4 -29,23 -104,55 -45,19 4,-2 -35,18l-13 6c-2,1 -5,2 -7,3 -6,2 -14,4 -20,7 -106,41 -176,65 -299,70 -52,2 -20,-13 -76,-26 -26,-6 -79,-6 -106,-14 44,-46 128,1 221,-7 32,-2 138,-10 167,-29 24,-15 11,-7 22,-19 -50,4 -202,63 -383,15 -104,-28 -210,-65 -294,-134 -190,-156 -240,-251 -328,-472 -69,-175 -69,-419 -4,-603 12,-34 20,-48 31,-77 12,-32 19,-38 38,-67 114,-175 202,-284 401,-352 26,-9 60,-18 81,-35 -40,-2 -58,13 -86,-5 19,-25 41,-15 112,-45 31,-13 20,18 25,-25l-175 46c-32,20 3,22 -76,7 5,-4 9,-20 12,-26z"/>
    <path class="fil3" d="M10256 7047c36,0 7,-2 27,22 14,17 18,22 41,28 41,10 79,-4 116,-11 31,-16 55,-25 79,-42 31,-20 43,-39 67,-59 39,-32 99,-112 113,-145l-31 30c-25,31 -37,61 -78,72 3,-35 4,-31 19,-51 53,-69 17,-32 48,-78 6,-9 16,-22 21,-33 21,-52 27,-68 14,-91 -28,-50 -46,-12 -44,-72 36,11 50,31 75,50 19,14 8,7 25,16 -14,-30 -33,-37 -58,-55 -24,-18 -40,-34 -64,-54 3,43 -26,49 -88,119 -35,39 -64,77 -95,111 -34,38 -61,73 -92,116l-95 125z"/>
    <path class="fil3" d="M2344 8246c-19,33 -24,29 -63,46 -62,28 -50,37 -144,76l-56 25c-27,20 0,-1 -16,15 56,-7 177,-84 213,-90 2,0 5,0 7,-1 2,0 5,0 7,0 34,-2 27,21 35,37 14,27 12,12 23,45 -10,5 -11,4 -25,12l-18 12c-2,1 -5,4 -6,5 -2,1 -4,3 -6,5 43,-8 47,-20 80,-37 9,-8 88,-55 104,-66 29,-18 92,-46 105,-82 -40,8 -22,9 -61,24 9,-68 13,-7 15,-47 0,-3 -6,-16 -6,-41 -28,0 -17,5 -54,8l22 -40c-44,18 -45,27 -83,53 -27,18 -40,34 -73,41z"/>
    <path class="fil3" d="M12087 6905c-34,14 -1,-3 -23,21 -2,2 -7,8 -8,10 -11,13 -1,-1 -8,10 -11,16 -17,30 -15,57 7,97 154,-29 146,-69 -5,-27 -57,-50 -91,-29z"/>
   </g>
   <g>
    <path class="fil4" d="M5647 2235c79,-40 255,-2 271,154 6,55 -15,145 -31,194 -28,85 -67,171 -168,167 -65,-3 -63,-29 -87,-78 -9,-18 -10,-14 -19,-34 -11,-22 -23,-58 -28,-81 -16,-77 -20,-41 -26,-88 -16,-125 -3,-189 88,-235zm-2644 -2047c265,-119 572,-188 917,-188 669,0 1277,208 1710,576 411,349 666,841 666,1435l0 0c-1,90 -18,201 -37,317 -34,211 -70,436 -12,589l0 0 201 506 1 1c0,1 122,255 20,334 -110,86 -411,78 -412,78l-20 0 -5 19 -205 884 0 2c0,1 -66,433 -475,448 -43,0 -82,-4 -114,-24 -141,-87 -207,-204 -284,-345l-6 -11c-18,-34 -13,-41 -24,-74 -100,-280 5,-939 -60,-1249 -10,-48 -27,-202 -47,-256 -17,-44 -46,-268 -46,-337 0,-111 9,-227 44,-330 12,-36 14,-72 25,-102l58 -192c17,-47 63,-381 64,-429l0 -495c-1,-56 -47,-248 -69,-295l-76 -174c-80,-150 -207,-304 -344,-403 -344,-249 -733,-368 -1169,-332 -37,3 -63,12 -108,16 -190,15 -101,22 -163,31 -11,2 -20,2 -27,1z"/>
    <path class="fil4" d="M1255 7048c-18,-88 -1,-201 16,-274 50,-219 222,-421 438,-426 129,-3 338,88 419,155 246,202 319,616 150,827 -49,62 -157,172 -246,189 -40,8 -23,2 -53,16 -71,33 -241,5 -316,-26 -79,-33 -119,-56 -181,-108 -92,-77 -155,-143 -197,-257 -1,-2 -2,-5 -3,-7l-10 -35c-5,-16 -15,-35 -19,-53zm-527 -1318c-7,48 6,54 -6,105 -15,65 -19,186 -3,254 25,109 21,170 71,324l125 407c10,40 18,65 31,104 57,180 107,291 206,455l75 114c80,118 359,455 430,506 18,13 23,12 38,25l69 66c131,110 157,94 256,138 51,23 52,11 109,24 183,42 128,22 216,-6 32,-7 45,-23 73,-41 38,-25 39,-34 83,-53 13,-12 56,-50 69,-59 12,-21 2,-5 17,-25l40 -50c21,-26 34,-40 59,-67 80,-86 150,-179 202,-281 24,-47 131,-299 136,-353 18,-180 47,-245 26,-468 -4,-46 -17,-57 -21,-99 -12,-114 -21,-106 -49,-195 -43,-134 -173,-382 -263,-479 -53,-57 -119,-144 -170,-188 -85,-74 -255,-207 -365,-244l-88 -39 -239 -69c-43,-6 -54,-9 -90,-17 -86,-19 -398,-27 -494,7 -34,12 -63,6 -98,12 -57,9 -293,95 -347,130l-95 61z"/>
    <path class="fil4" d="M3424 7978c-1,1 -16,32 -20,41 -16,39 -10,56 -18,41 -1,-1 -3,5 -4,8 -35,-12 -29,-13 -50,-53l-163 -324c-1,-2 -2,-4 -3,-5l-31 -59c-19,-46 -9,-38 -40,-53l-9 22c-1,2 -1,5 -2,7l-73 160c-59,120 -117,165 -162,232 -14,20 -7,13 -29,37l-159 161c-1,-2 -4,4 -6,6 -34,14 -35,46 -71,50 -13,37 -76,64 -105,82 -16,10 -95,57 -104,66 0,82 301,474 366,579 16,25 32,50 49,75 358,518 669,1088 1036,1600 307,429 221,245 351,202 28,-10 137,-99 230,-141l145 -61 173 -63c11,-4 37,-18 48,-24 2,-27 3,-63 1,-90 -4,-56 -9,-28 -21,-66l-2 -6 -88 -173 -612 -1003 -4 -7 0 -8 4 -59c-6,13 -8,14 -31,18 0,-39 -7,-46 -24,-78 -1,-2 -2,-4 -3,-6l-17 -30c-25,-32 -29,-62 -57,-94 -22,-25 -1,3 -19,-36l-130 -202c-32,-38 -17,-41 -34,-86l-9 -16c-1,-2 -2,-4 -3,-5l-9 -17c-14,-25 -4,-8 -24,-29 -1,-1 -3,-3 -5,-4l-278 -430c0,-77 45,-73 45,-162 -19,11 2,1 -30,5zm119 -1675l0 124c1,-3 2,-6 3,-9 1,-2 2,-6 2,-9 7,-26 -2,-22 13,-45 35,8 36,52 48,80 1,2 2,4 3,6l124 249c5,10 1,5 8,18l108 316c27,54 6,43 23,84l73 245c1,26 7,49 8,51 11,36 3,-15 10,40 2,11 0,11 3,24l7 21c18,45 20,71 27,125 4,34 19,50 24,84 5,34 -2,72 5,105 7,33 4,10 15,40 4,12 8,26 9,42l12 100c7,22 16,167 16,195 0,34 3,60 7,85 -16,-404 -104,-1293 -547,-1972z"/>
    <path class="fil4" d="M4831 10672c-7,60 -9,35 -22,70 -12,32 -9,40 8,60 131,8 59,5 146,26 59,14 142,53 188,83 81,35 129,80 200,137 31,25 139,135 158,168 29,14 5,-4 25,20 8,9 7,13 14,25 21,-7 59,-53 86,-81l173 -177c32,-32 56,-62 87,-93 158,-164 342,-391 494,-566 24,-28 48,-59 78,-94l161 -190c27,-33 54,-60 83,-96l333 -379c25,-27 55,-64 78,-91l253 -279c60,-61 118,-120 174,-186 29,-34 55,-60 82,-89 15,-16 27,-30 44,-47l49 -49c83,-89 208,-226 293,-303 38,-34 192,-225 230,-232 22,-38 47,-37 6,-87 -28,-34 -34,-25 -43,-71 -47,-60 -92,-171 -94,-278 -243,124 -748,561 -1301,1040 -267,231 -545,472 -809,691 -840,697 -1104,1012 -1104,1013l-24 28 -7 -14c-14,19 -28,36 -37,40z"/>
    <path class="fil4" d="M8709 7313c-31,54 -69,66 -44,195 5,27 7,32 11,40l34 49 -12 -5c18,39 25,61 64,90 19,14 92,56 117,61 39,-6 198,-105 251,-128 2,-1 4,-2 6,-2l28 -15c59,-35 243,-153 301,-164 58,-66 360,-211 428,-248 15,-8 35,-20 45,-25l39 -16c2,-1 4,-2 6,-3 47,-24 240,-104 271,-93l95 -125c31,-43 57,-78 92,-116 31,-35 60,-72 95,-111 62,-70 91,-76 88,-119 -24,-44 -30,-83 -45,-136 -15,-53 -1,-114 12,-165 20,-78 92,-199 154,-222 10,-26 -1,-1 21,-28l9 -11c-9,-36 -16,-31 -34,-59 -22,-35 -9,-35 -23,-66 -8,1 -14,2 -20,3 -26,12 -51,25 -75,40 -31,19 -61,41 -93,65l0 0 -532 378 0 0 -700 475 0 0 -590 463z"/>
    <path class="fil4" d="M3424 7978c32,-4 11,6 30,-5 0,89 -45,85 -45,162l278 430c1,1 3,3 5,4 20,21 10,3 24,29l9 17c1,2 2,4 3,5l9 16c17,46 2,49 34,86l130 202c19,39 -3,11 19,36 28,32 32,61 57,94l17 30c1,2 2,4 3,6 16,32 23,39 24,78 23,-5 25,-6 31,-18l42 -662 0 0c0,-9 2,-88 -3,-215 -4,-25 -7,-52 -7,-85 0,-29 -9,-173 -16,-195l-12 -100c-1,-15 -4,-29 -9,-42 -11,-30 -8,-7 -15,-40 -7,-33 1,-70 -5,-105 -5,-34 -20,-50 -24,-84 -7,-54 -9,-80 -27,-125l-7 -21c-3,-13 -1,-13 -3,-24 -8,-55 1,-4 -10,-40 -1,-2 -6,-25 -8,-51l-73 -245c-17,-41 3,-30 -23,-84l-108 -316c-7,-13 -3,-8 -8,-18l-124 -249c-1,-2 -2,-4 -3,-6 -12,-28 -12,-72 -48,-80 -16,23 -7,19 -13,45 -1,3 -2,6 -2,9 -1,3 -1,6 -3,9l0 -124c-4,-6 -8,-12 -12,-18 -1,26 -3,52 -8,76 -8,37 -18,41 -23,93 -7,69 -12,146 -21,209 -24,178 3,853 -11,1132 -3,62 -38,135 -45,184z"/>
    <path class="fil4" d="M1635 6515c-44,27 -64,13 -130,87 -37,42 -56,81 -83,132 -53,104 -54,255 -11,368 38,98 131,172 214,218 347,189 764,-86 549,-505 -65,-127 -164,-207 -282,-256 -71,-30 -186,-87 -259,-43z"/>
    <path class="fil4" d="M4001 11565l-3 87c78,26 160,108 211,122 2,-2 3,-9 4,-8 6,13 5,-71 43,-118 3,-24 42,-90 61,-113 153,-195 419,-244 624,-84 34,26 62,58 92,88 57,59 51,94 66,113 25,5 110,-33 143,-49l27 -17c2,-1 4,-2 6,-3 110,-64 113,-14 71,-141 -3,-89 -189,-244 -279,-296 -139,-79 -265,-145 -447,-117 -102,16 -156,22 -235,60 -175,85 -342,273 -383,475z"/>
    <path class="fil4" d="M9692 7497c-20,41 -37,21 -66,69 204,2 102,18 339,49 39,5 350,28 357,26 12,2 13,8 40,-10 4,-34 14,-39 20,-74 4,-20 1,-27 10,-47 8,-18 16,-22 27,-31l0 -10 33 -59c-25,-30 -73,-47 -110,-68 -36,-21 -15,-1 -31,-30 -28,-6 -25,-13 -47,-25 -122,-12 -106,-2 -178,17 -52,14 -28,1 -71,25 -12,7 0,1 -17,9 -3,1 -10,4 -13,5l-40 15c-39,11 -211,105 -252,138z"/>
    <path class="fil4" d="M10948 5830l27 180 28 -46c33,28 251,-21 315,-32 42,-7 80,-4 121,-8 41,-4 50,-12 98,-17l353 -19c37,-33 124,6 218,-31l34 -1c2,0 6,-1 8,-2 2,0 6,-1 8,-2l-11 -103c1,-8 0,-14 -2,-18 -98,4 -206,15 -314,26 -112,11 -224,23 -327,27l0 0c-38,2 -74,4 -108,6 -35,9 -74,7 -113,7l-56 4 -15 1c-39,7 -70,18 -114,20 -45,2 -125,-6 -149,8z"/>
    <path class="fil4" d="M12270 5849c75,-2 539,44 624,67l326 71c0,-4 -21,-8 -28,-26 128,-3 140,52 135,134 -2,1 -4,1 -5,4l-41 39c-61,63 -524,49 -591,37 -99,-18 -175,-13 -208,-18 -47,-8 -7,-1 -32,-12 -20,-10 -139,-27 -160,-121 -12,-52 -24,-115 -20,-174zm43 -118c58,5 132,16 212,30 7,3 16,6 38,9 61,8 40,9 77,21l292 60c49,8 12,2 39,14 35,15 56,7 95,13 2,0 5,1 7,1l12 3 0 0c21,6 36,15 56,19 9,2 19,2 28,2 58,15 95,24 98,25 9,3 44,20 67,57l0 0c13,21 22,47 20,82 -2,34 -18,59 -38,77 -35,32 -82,43 -97,43l-682 0 0 0c-37,-1 -73,-4 -106,-11 -53,-19 -89,-29 -130,-72 -1,-1 -3,-3 -4,-5 -30,-32 -25,-24 -34,-54 -6,-21 -20,-67 -22,-85 -22,-158 13,-215 72,-229z"/>
    <path class="fil4" d="M10542 7600l3 44c43,16 203,15 248,33 55,-18 122,6 177,13l100 13 1 162c15,-133 -27,-90 23,-188 35,-69 16,-100 87,-144 14,-6 -5,28 9,-13 -69,-4 -86,-22 -139,-26 -46,-4 -99,0 -120,-23 -26,-2 -69,-1 -93,-6 -35,-7 -28,-17 -75,-21 -66,-7 -125,-25 -180,-24 -8,11 -5,8 -12,23 -22,50 -42,107 -30,158z"/>
    <path class="fil4" d="M11252 7620c-16,10 -30,7 -25,40 9,42 13,240 6,253 5,-55 -7,-170 11,-197 13,-14 38,-15 56,-13 11,1 33,6 48,7 53,6 279,14 311,3 -16,-52 -45,34 -54,-60l120 -12c-53,-7 -78,-21 -126,-28 -27,-4 -87,-3 -106,-14 -26,-15 -11,7 -22,-25 0,0 -39,-2 -41,-3 -39,-8 -19,4 -38,-21l-16 -2c15,50 27,39 99,39 -32,26 -59,18 -99,18 -37,0 -48,8 -81,9 -1,31 -8,33 -9,63 39,0 42,-2 72,9 -30,41 -87,-2 -108,27 -2,-5 -12,-13 -7,-46 8,-51 19,40 9,-47z"/>
    <path class="fil4" d="M10741 6496l28 2c9,-46 10,-40 40,-62l27 -45c18,-22 25,-31 41,-50 49,-58 72,-64 68,-103 -36,-87 -144,-40 -186,11 -25,31 -32,61 -32,114 0,46 -4,103 15,132z"/>
    <path class="fil4" d="M11252 7620c10,87 -1,-4 -9,47 -5,33 5,42 7,46 21,-29 78,14 108,-27 -30,-11 -33,-9 -72,-9 1,-30 8,-32 9,-63 33,-1 44,-9 81,-9 40,0 68,9 99,-18 -72,0 -84,10 -99,-39 -69,-4 -139,-5 -124,72z"/>
   </g>
   <g>
    <path class="fil5" d="M2484 3334c26,20 17,23 123,39 39,6 27,9 61,18 38,11 217,57 245,54 85,1 180,32 334,23 19,-1 36,-3 55,-5l33 -4c3,-1 5,-1 8,-2 41,-9 23,-89 13,-108 -100,-17 -193,14 -373,-57 -172,-67 -365,-248 -463,-401 -270,-422 -228,-939 110,-1292l111 -104c39,-34 92,-75 148,-87 49,-3 269,-150 635,-76 57,12 149,41 195,64 219,109 404,305 482,548 89,279 77,597 -71,860 -103,183 -266,346 -452,444 -23,12 -68,35 -93,37 -9,9 -3,6 -17,15 -26,17 -41,15 -70,20 -4,161 14,240 30,381 6,52 17,67 27,117 -15,50 71,276 92,329 73,182 216,378 373,492 165,120 125,78 233,144l26 23c11,6 24,14 37,22l339 173c214,97 470,187 677,187 8,0 15,0 23,0 -43,0 -82,-4 -114,-24 -141,-87 -207,-204 -284,-345l-6 -11c-18,-34 -13,-41 -24,-74 -100,-280 5,-939 -60,-1249 -10,-48 -27,-202 -47,-256 -17,-44 -46,-268 -46,-337 0,-111 9,-227 44,-330 12,-36 14,-72 25,-102l58 -192c17,-47 63,-381 64,-429l0 -495c-1,-56 -47,-248 -69,-295l-76 -174c-80,-150 -207,-304 -344,-403 -344,-249 -733,-368 -1169,-332 -37,3 -63,12 -108,16 -190,15 -101,22 -163,31 -11,2 -20,2 -27,1 -204,92 -384,213 -537,355 -399,371 -615,883 -615,1379 0,933 627,1365 629,1366l13 9 -3 16c0,0 -2,7 -5,20z"/>
    <path class="fil5" d="M2295 8433c-57,45 -225,94 -298,118 -311,101 -631,77 -937,9 -90,-20 -112,-48 -162,-46 -6,59 38,145 62,191 19,36 77,134 81,157 2,2 5,2 6,5l10 10c1,1 3,4 4,5l43 66c18,33 23,60 46,97 150,242 433,631 605,853l436 582c20,26 37,60 57,86l750 922c17,18 17,17 25,17l20 -27 19 32c1,2 383,653 875,934 -7,-31 -31,-58 -44,-82 -141,-200 -222,-497 -183,-751 8,-53 38,-201 79,-245 -1,-36 51,-124 69,-153 63,-102 115,-159 198,-251 33,-36 102,-79 121,-108 -130,44 -44,227 -351,-202 -367,-512 -677,-1082 -1036,-1600 -17,-25 -34,-50 -49,-75 -65,-105 -366,-497 -366,-579 -33,16 -37,29 -80,37z"/>
    <path class="fil5" d="M5510 11216c19,47 28,44 56,105 133,287 150,635 9,897 -133,248 -309,405 -562,527 -32,16 -78,35 -103,56 54,10 107,14 157,15 40,-1 80,-3 120,-6 108,-12 205,-41 290,-78 160,-69 278,-164 346,-220 36,-30 137,-121 290,-276l4 -7c9,-9 13,-13 22,-22l141 -147c1,-1 3,-3 4,-5 1,-1 3,-3 4,-4 5,-5 11,-10 16,-15 94,-101 200,-217 315,-350 7,-9 13,-16 20,-22 35,-40 70,-81 106,-124l85 -108c1,-1 3,-4 4,-5 5,-6 11,-13 12,-15 1,-1 3,-3 4,-5l259 -345c17,-27 48,-41 69,-65l224 -308c1,-2 3,-4 4,-5l30 -40c1,-1 3,-3 4,-5l103 -152c1,-2 2,-4 3,-6l29 -42c1,-1 3,-4 4,-5 42,-53 33,-62 63,-89l49 -51c1,-1 3,-3 4,-5l28 -46c10,-20 36,-34 50,-58l21 -30c25,-25 2,13 30,-36 1,-2 2,-4 3,-6l147 -218c44,-37 125,-157 167,-223l23 -30c2,-2 5,-6 8,-10l0 0c48,-71 95,-144 144,-218 50,-76 97,-148 142,-216 2,-4 4,-7 7,-10l0 0c109,-163 202,-298 270,-396l24 -40c1,-2 2,-4 3,-6 25,-54 -4,6 19,-33 6,-11 9,-3 10,1l2 -3c0,-6 1,-17 2,-38 -46,-3 -12,-8 -45,-15 -18,-4 -35,-3 -54,-3l0 -27 -63 0c-2,-40 8,-20 -34,-40l-273 -215c-1,-2 -2,-4 -3,-6 -14,-27 -16,-14 -23,-53l-56 -7c-37,7 -192,198 -230,232 -85,77 -210,213 -293,303l-49 49c-18,17 -29,30 -44,47 -27,28 -53,54 -82,89 -56,66 -113,125 -174,186l-253 279c-24,26 -53,64 -78,91l-333 379c-28,36 -55,63 -83,96l-161 190c-30,35 -54,66 -78,94 -152,175 -336,402 -494,566 -30,32 -55,61 -87,93l-173 177c-27,27 -65,73 -86,81 -7,-12 -6,-16 -14,-25 -20,-23 4,-6 -25,-20z"/>
    <path class="fil5" d="M0 4914l0 955c23,-9 33,-22 50,-40 130,-137 289,-261 461,-341l145 -70c26,-12 44,-13 70,-22 23,-8 39,-17 69,-29l155 -35c65,-14 372,-15 453,-6l153 27c46,7 33,14 74,24 43,10 103,24 141,41 69,30 319,131 355,158 31,24 14,-3 27,33l-63 -5 88 39c110,38 280,170 365,244 51,44 116,131 170,188 90,97 220,345 263,479 29,89 37,81 49,195 5,42 17,53 21,99 20,223 -9,288 -26,468 -5,54 -112,306 -136,353 -52,103 -122,196 -202,281 -25,27 -38,41 -59,67l-40 50c-15,20 -5,5 -17,25 84,-9 -4,52 87,66l-1 39c2,-2 5,-7 6,-6l159 -161c22,-24 15,-16 29,-37 45,-66 103,-112 162,-232l73 -160c1,-2 1,-5 2,-7l9 -22c31,15 21,7 40,53l31 59c1,2 2,4 3,5l163 324c22,40 16,40 50,53 2,-2 4,-9 4,-8 8,15 2,-2 18,-41 4,-9 19,-40 20,-41 7,-49 42,-122 45,-184 14,-279 -13,-954 11,-1132 8,-63 14,-140 21,-209 5,-52 14,-56 23,-93 5,-24 6,-50 8,-76l-8 -12c-2,11 0,25 -4,56 -8,59 -27,54 -47,63 -7,-20 -8,-42 -17,-67 -6,-17 -21,-38 -27,-54 -19,-47 -16,-49 -54,-106l-185 -273c-75,-105 -196,-248 -292,-327 -238,-197 -281,-255 -575,-431 -36,-21 -32,-21 -42,-39 -17,-2 -60,-34 -128,-61 -22,-9 -5,-2 -25,-12 -172,-81 -281,-84 -399,-131l-45 -9c-3,3 -5,6 -8,9l-9 11 -14 -3c-969,-204 -1580,-15 -1637,4l-14 12z"/>
    <path class="fil5" d="M2065 8408c17,-16 -11,5 16,-15l56 -25c93,-39 81,-49 144,-76 39,-17 44,-13 63,-46 -88,28 -33,48 -216,6 -57,-13 -59,-2 -109,-24 -99,-44 -125,-28 -256,-138l-69 -66c-15,-13 -19,-12 -38,-25 -71,-50 -350,-388 -430,-506l-75 -114c-99,-164 -149,-275 -206,-455 -12,-39 -21,-64 -31,-104l-125 -407c-49,-154 -46,-216 -71,-324 -15,-67 -11,-189 3,-254 12,-52 -2,-58 6,-105 -180,83 -391,372 -495,555 -21,36 -38,71 -59,112 -68,130 -152,416 -135,557 7,56 7,118 9,176 9,271 130,565 266,775 137,212 333,382 572,482 319,134 563,149 905,96l274 -73z"/>
    <path class="fil5" d="M2705 2308c-66,-369 607,-924 1013,-445 76,90 117,195 146,311 11,44 25,67 28,124 6,99 -7,183 -41,255 -115,242 -260,372 -542,375 -199,2 -281,-43 -411,-201 -99,-121 -163,-245 -194,-420zm373 -850c-21,17 -55,27 -81,35 -200,68 -288,178 -401,352 -19,29 -26,34 -38,67 -11,28 -19,42 -31,77 -65,185 -65,428 4,603 88,222 139,316 328,472 84,69 189,107 294,134 181,48 333,-11 383,-15 65,-13 225,-116 272,-154 248,-200 424,-602 324,-940 -32,-108 6,-22 -53,-164 -65,-156 -155,-268 -286,-361 -190,-137 -396,-140 -618,-122 -38,3 -71,15 -97,16z"/>
    <path class="fil5" d="M5098 11652l24 117c30,400 -545,650 -800,283 -151,-217 -69,-326 -67,-403 -38,46 -37,130 -43,118 -1,-1 -2,6 -4,8 -51,-14 -133,-96 -211,-122l3 -87 -18 73c-14,81 -22,142 -10,231 5,35 19,105 30,135 11,30 38,101 36,118 31,27 44,72 75,113 26,35 49,61 84,95 54,54 142,113 221,141 236,83 361,75 585,-21 253,-109 429,-381 426,-662 -2,-157 -12,-157 -53,-318 -2,-4 -6,-10 -10,-14 -14,-13 -1,-2 -21,-14 42,127 38,77 -71,141 -2,1 -4,2 -6,3l-27 17c-33,16 -118,53 -143,49z"/>
    <path class="fil5" d="M11093 6489c-3,19 -29,77 -39,92 -8,11 -31,34 -32,35 -19,30 -17,23 -1,47 14,6 204,187 326,254l391 198c31,10 69,33 110,37 3,-93 16,-151 49,-231 -16,-40 8,-63 32,-94 52,-68 -44,39 16,-19 1,-1 3,-3 5,-4 1,-1 3,-3 5,-4 1,-1 4,-3 5,-4l46 -45 -234 -184c-1,-1 -3,-3 -5,-4l-22 -21c-4,-4 -15,-13 -16,-13 -2,-1 -4,-3 -6,-4 -49,-36 -49,-34 -51,-62 38,4 67,33 92,58l85 61c-31,-26 -63,-52 -95,-77 -97,-76 -197,-148 -307,-221l-20 -13 -106 15c-101,4 -114,9 -167,-19 10,53 -26,60 -36,109 -5,23 -3,42 -9,65 -5,20 -12,32 -17,48z"/>
    <path class="fil5" d="M1635 6515c72,-44 187,13 259,43 117,49 217,130 282,256 214,419 -202,694 -549,505 -83,-45 -176,-120 -214,-218 -43,-113 -43,-264 11,-368 26,-51 46,-90 83,-132 66,-74 85,-60 130,-87zm-380 533c4,18 14,37 19,53l10 35c1,2 2,5 3,7 42,114 105,180 197,257 62,51 102,75 181,108 75,31 245,59 316,26 30,-14 13,-8 53,-16 89,-17 197,-128 246,-189 169,-210 96,-625 -150,-827 -81,-66 -290,-158 -419,-155 -216,5 -388,207 -438,426 -16,73 -33,185 -16,274z"/>
    <path class="fil5" d="M9475 8025c9,-56 -11,-56 3,-192l8 -43c7,-15 2,-7 11,-16 40,59 -49,224 82,369 13,14 9,9 26,19 109,58 25,54 179,53 167,-1 234,-50 369,-79 48,-10 151,-58 196,-81 1,-86 -14,-47 -24,-91l-13 -224c1,-51 18,-61 9,-98 -7,2 -317,-21 -357,-26 -237,-31 -135,-47 -339,-49 29,-48 46,-28 66,-69 -187,79 -276,335 -232,495l11 27c0,-1 2,4 4,6z"/>
    <path class="fil5" d="M4625 11438c-79,25 -137,27 -221,132 -190,236 -10,623 351,568 274,-41 418,-448 141,-633 -67,-45 -162,-102 -270,-67z"/>
    <path class="fil5" d="M12010 7514c5,9 3,8 8,19 1,2 2,4 3,6l14 23c1,2 2,4 3,6 4,9 3,10 7,18l37 54c1,2 2,4 3,5l5 11c1,2 2,4 3,6l12 24c1,2 3,4 4,5l23 45c1,2 2,5 3,7l59 71c1,2 3,4 4,5 1,2 3,4 4,6 13,20 2,26 45,58 87,65 88,45 119,81 111,0 190,19 242,-47 64,-81 18,-95 1,-106l0 -99 -27 0 0 -90c-35,-20 -4,4 -20,-28l-17 -31c-1,-2 -3,-3 -4,-5l-10 -18c-4,-10 -2,-11 -5,-21l-20 -50c-3,-8 -5,-14 -7,-19 -37,-80 -17,-51 -30,-81l-66 -141c-15,-37 -71,-135 -100,-146 -2,34 -22,57 -49,79l-32 22c-7,4 -14,8 -19,10l-159 73c-4,2 -15,8 -18,10l-18 10c-23,13 -63,34 -65,63 -2,34 7,26 14,38l50 121c1,2 2,4 3,6z"/>
    <path class="fil5" d="M8588 7910c-9,33 -35,49 -46,70 -113,205 183,557 373,437 60,-38 99,-75 98,-156 -2,-176 -87,-273 -240,-336 -64,-26 -111,-19 -185,-16z"/>
    <path class="fil5" d="M8244 8310l56 7c8,39 9,26 23,53 1,2 2,4 3,6l273 215c42,20 32,1 34,40l63 0 0 27c19,0 36,-2 54,3 33,8 -1,13 45,15 -1,21 -1,32 -2,38 21,-30 37,-52 47,-66 -11,-15 3,1 -30,-15l-120 -42c-115,-39 -229,-142 -313,-225 -14,-14 -40,-33 -46,-59 -37,-25 -27,-33 -57,-72 -16,-21 -36,-44 -51,-65 -10,-27 -1,-6 -17,-18 9,46 15,38 43,71 41,50 16,50 -6,87zm547 406c-1,-5 -4,-12 -10,-1 -22,39 6,-21 -19,33 -1,2 -2,4 -3,6l-24 40c21,-30 40,-56 55,-79zm-325 474l0 0c-2,3 -5,6 -7,10l7 -10zm-293 445c-3,4 -6,8 -8,10l-23 30c-41,66 -123,186 -167,223l-147 218c-1,2 -2,4 -3,6 -29,49 -5,11 -30,36l-21 30c-14,23 -40,38 -50,58l-28 46c-1,1 -3,3 -4,5l-49 51c-30,27 -20,36 -63,89 -1,1 -3,4 -4,5l-29 42c-1,2 -2,4 -3,6l-103 152c-1,1 -3,3 -4,5l-30 40c-1,1 -3,4 -4,5l-224 308c-21,24 -52,38 -69,65l-259 345c-1,1 -3,3 -4,5 -2,2 -8,9 -12,15 -1,1 -3,4 -4,5l-85 108c93,-110 192,-229 296,-358 335,-416 719,-931 1131,-1548zm-1533 2029c-6,6 -13,14 -20,22l20 -22zm-335 372c-5,5 -11,10 -16,15 -1,1 -3,3 -4,4 -1,1 -3,3 -4,5l-141 147c-9,9 -13,13 -22,22l-4 7c57,-58 121,-125 192,-201z"/>
    <path class="fil5" d="M8880 7742l0 8c22,6 26,9 41,16 13,5 27,10 40,16 34,15 156,101 181,145 52,45 30,93 57,155 38,20 63,-20 122,-24 2,-2 4,-4 6,-6 1,-1 4,-4 6,-5 2,-2 10,-7 12,-9 1,-1 14,-8 17,-10 -30,-107 -70,-233 -39,-347 4,-14 7,-15 15,-39 5,-14 5,-20 11,-34 7,-16 26,-45 38,-60 50,-62 1,-40 55,-88l21 -20c1,-4 4,-4 5,-6 -58,11 -242,128 -301,164l-28 15c-2,1 -4,2 -6,2 -53,23 -212,121 -251,128z"/>
    <path class="fil5" d="M12302 7083c29,12 85,109 100,146l66 141c13,30 -8,1 30,81 2,5 4,11 7,19l20 50c3,10 1,11 5,21l10 18c1,2 3,3 4,5l17 31c16,32 -15,8 20,28l0 90 27 0 0 99c18,11 63,25 -1,106 -52,66 -131,47 -242,47 -30,-35 -32,-16 -119,-81 -43,-32 -33,-37 -45,-58 -1,-2 -3,-4 -4,-6 -1,-2 -3,-4 -4,-5l-59 -71c-1,-2 -2,-4 -3,-7l-23 -45c-1,-2 -3,-4 -4,-5l-12 -24c-1,-2 -2,-4 -3,-6l-5 -11c-1,-2 -2,-4 -3,-5l-37 -54c-4,-9 -3,-9 -7,-18 -1,-2 -2,-4 -3,-6l-14 -23c-1,-2 -2,-4 -3,-6 -5,-11 -3,-10 -8,-19 -1,-2 -2,-4 -3,-6l-50 -121c-7,-12 -17,-3 -14,-38 2,-28 42,-50 65,-63l18 -10c2,-1 14,-7 18,-10l159 -73c5,-2 12,-6 19,-10l32 -22c27,-21 46,-44 49,-79zm-29 -93l4 5 0 1c80,104 154,233 213,359 74,156 127,305 144,391l0 0c13,66 10,113 -2,148 -12,32 -33,53 -60,70 -51,19 -99,26 -147,21 -48,-5 -95,-23 -141,-52 -63,-53 -110,-96 -152,-148 -43,-52 -82,-113 -130,-204l-59 -111 0 3c-9,-18 -17,-36 -25,-53 -13,-32 -26,-62 -24,-106 77,-55 107,-95 217,-133 144,-50 139,-103 159,-192l3 1z"/>
    <path class="fil5" d="M12087 6905c34,-21 86,2 91,29 7,40 -139,166 -146,69 -2,-27 4,-41 15,-57 7,-10 -3,4 8,-10 2,-2 7,-8 8,-10 23,-24 -10,-7 23,-21zm121 -5c-9,-14 -11,-12 -24,-30 -97,-17 -168,-12 -198,112 -11,46 15,88 50,105 13,6 19,14 49,3 2,-1 4,-2 6,-3 44,-20 82,-44 101,-83 18,-37 20,-54 17,-104z"/>
    <path class="fil5" d="M10809 6436c-5,72 -18,12 -18,81 58,0 93,-4 134,-36l31 -38c14,-36 2,-70 6,-107 12,-98 67,91 -9,162 -2,1 -3,3 -5,5 -113,98 -159,31 -204,14 48,18 32,42 117,29 123,-19 143,-141 118,-250l-20 -39c-1,-2 -3,-4 -5,-6l-11 -12c4,38 -19,44 -68,103 -15,18 -23,27 -41,50l-27 45z"/>
    <path class="fil5" d="M11896 6921c21,-39 54,-64 77,-95 34,-45 42,-32 82,-59l-1 -3 -4 -2 -3 -2 -2 -2c-66,-63 -131,-121 -195,-175l-85 -61c-25,-25 -54,-54 -92,-58 2,28 2,25 51,62 2,1 4,3 6,4 1,0 12,9 16,13l22 21c1,1 3,3 5,4l234 184 -46 45c-1,1 -4,3 -5,4 -1,1 -4,3 -5,4 -1,1 -3,3 -5,4 -59,58 36,-48 -16,19 -24,31 -48,55 -32,94z"/>
    <path class="fil5" d="M10698 6841c30,-37 51,-85 49,-156 -17,-10 -7,-3 -25,-16 -25,-19 -39,-39 -75,-50 -2,60 16,22 44,72 13,23 7,40 -14,91 -4,11 -14,24 -21,33 -31,45 5,8 -48,78 -16,21 -16,17 -19,51 41,-11 53,-41 78,-72l31 -30z"/>
    <path class="fil5" d="M10809 6436c-29,22 -31,16 -40,62l-28 -2 3 21c45,17 90,85 204,-14 2,-1 3,-3 5,-5 76,-71 21,-260 9,-162 -5,37 8,71 -6,107l-31 38c-40,32 -75,36 -134,36 0,-69 13,-9 18,-81z"/>
   </g>
   <path class="fil6" d="M4652 5001c-139,-63 -260,-128 -339,-173l339 173zm-461 -231l-6 11 -11 20c-3,-14 -11,-26 -20,-40 14,0 26,4 37,8zm560 5631l107 211 10 19c-14,19 -28,36 -37,40 -2,2 -5,5 -6,7l-19 25c-5,9 -7,19 -11,33 -7,27 -7,52 -20,65 -60,-8 -18,-21 -13,-75 4,-41 6,-62 10,-96 -43,1 -122,25 -159,43 -26,12 -19,10 -54,11 -9,-14 -14,22 -7,-33l173 -63c11,-4 37,-18 48,-24 2,-27 3,-63 1,-90 -4,-56 -9,-28 -21,-66l-2 -6zm3897 -2897c-11,-24 -13,-51 -8,-77 1,-7 3,-13 5,-20 -6,23 -6,48 0,75l4 22zm2051 -1614c7,-3 14,-6 22,-9l0 0c16,-6 32,-12 47,-17 3,28 -2,-15 7,13l6 21c10,37 2,17 16,47l31 89c-21,20 -16,14 -41,30 -24,16 -20,19 -55,26l9 -30c1,-5 3,-5 4,-8 10,-26 -1,-1 21,-28l9 -11c-9,-36 -16,-31 -34,-59 -22,-35 -9,-35 -23,-66 -8,1 -14,2 -20,3zm102 -37c11,-4 23,-7 34,-11 38,-11 75,-20 113,-25 98,-4 181,-10 263,-16 -39,7 -70,18 -114,20 -45,2 -125,-6 -149,8 -5,5 -28,5 -12,82 13,61 31,133 62,180 27,40 107,160 157,174 10,53 -26,60 -36,109 -5,23 -3,42 -9,65 -5,20 -12,32 -17,48l-35 21c-4,-79 11,-67 22,-114 5,-21 22,-104 22,-113 -123,-103 -42,-64 -121,-128 -32,-26 -48,-59 -59,-104 -9,-36 -15,-28 -22,-58 -12,-52 -8,-102 -5,-140l-95 0zm481 -56c37,-3 74,-5 113,-7 -35,9 -74,7 -113,7zm862 -67c26,-1 50,-2 74,-2l2 0 1 0c23,-2 54,-2 92,2 -59,14 -94,71 -72,229 3,18 16,64 22,85 9,31 4,22 34,54 1,1 3,3 4,5 41,43 77,54 130,72 -16,-3 -32,-8 -47,-13 -46,-17 -88,-48 -127,-103l-27 -38 -16 43c-2,5 -4,9 -6,13 -4,-60 -20,-100 -23,-165 -2,-38 -1,-52 -11,-87 -4,-15 -8,-28 -12,-41l-16 -38c1,-8 0,-14 -2,-18zm381 30c20,3 39,7 60,11 167,32 352,74 487,107 -2,0 -4,-1 -7,-1 -38,-5 -60,3 -95,-13 -27,-12 10,-6 -39,-14l-292 -60c-37,-12 -15,-13 -77,-21 -22,-3 -31,-6 -38,-9zm559 121c32,8 60,15 85,21 -10,0 -19,-1 -28,-2 -20,-3 -36,-13 -56,-19zm-992 905c7,5 15,10 22,16 19,15 39,31 60,52 16,18 29,35 42,52 -2,-2 -4,-3 -8,-8 -9,-14 -11,-12 -24,-30 -14,-16 6,-2 -24,-22 -24,-16 -57,-15 -84,-16 13,-36 2,-2 26,-36l-11 -9zm125 121c9,13 18,26 27,39l0 0c7,10 13,20 20,30 -3,7 -6,18 -9,21l-25 12c-1,-2 -6,1 -9,1 -9,-49 15,-42 1,-89 -2,-8 -4,-12 -5,-14zm-273 564l12 122c7,72 16,137 23,198 3,26 7,51 10,76 -12,-34 -26,-62 -42,-81 -10,-27 -25,-53 -48,-77 -11,-11 -21,-19 -33,-29 -33,-29 -17,7 -25,-33 3,-139 -52,-154 -78,-153 -26,1 -111,39 -173,37 17,-56 43,-31 92,-62 187,-118 91,-248 9,-238 -45,5 -156,83 -186,116 -83,89 -61,170 -30,202l11 9c-54,7 -51,-3 -94,-10l-16 -2c-69,-4 -139,-5 -124,72 -16,10 -30,7 -25,40 -11,10 -10,-16 -10,19 -54,33 -24,102 -26,169 -2,70 2,30 -19,50 -7,-37 -13,-157 -5,-203 9,-49 18,-17 15,-86 -15,39 -20,63 -56,91 0,-69 37,-88 56,-150l-2 -18c14,-6 -5,28 9,-13 -69,-4 -86,-22 -139,-26 -46,-4 -99,0 -120,-23 -28,-25 -31,-9 -109,-32 -61,-18 -267,-34 -284,-37 -34,-7 -14,-11 -36,-14 -33,140 -12,29 -58,122 -54,109 -11,93 -40,142l-15 -46c-3,-73 32,-71 29,-125l0 -10 16 3c18,-59 32,-20 30,-81 -25,-12 -49,-25 -76,-41 -14,-8 -18,-10 -35,-20l-43 -18c-28,-6 -25,-13 -47,-25 -17,-14 -76,-12 -105,-15 8,-6 6,-6 20,-13 2,-1 11,-3 14,-4 77,-18 195,-59 266,-60 131,-2 102,15 127,27 0,0 113,33 124,36 47,2 104,32 145,46 121,43 376,86 503,81 35,-47 30,-100 165,-163 60,-28 165,-101 215,-110 31,10 69,33 110,37 3,-93 16,-151 49,-231 21,-39 54,-64 77,-95 -19,20 17,-16 -16,12 -29,24 -40,46 -61,75 -43,57 -14,69 -26,119 -7,30 -27,60 -26,115 -34,1 -12,-2 -26,15 44,8 36,-9 65,19 22,21 18,21 18,62 25,-6 27,-20 56,8 -32,16 -68,33 -78,71 -9,35 7,79 41,100 8,17 17,34 25,53zm-531 619c3,16 5,30 5,42 -9,-6 -17,-10 -25,-15 -23,-17 -9,-6 -24,-25l43 -2zm0 87c-5,16 -13,33 -24,55 -5,7 -12,15 -21,25 20,-28 36,-55 45,-79zm-375 -98l-38 -1c-37,-1 -73,-1 -108,-1 45,-7 93,-10 146,2zm-503 -8l-16 -1c-2,-18 -8,-12 -3,-43 0,-2 2,-3 3,-7 0,-4 2,-5 3,-7l9 32c2,12 4,21 5,27zm-98 -6l-17 -1c0,-3 1,-7 1,-11 0,0 -2,-37 -3,-40 18,18 17,38 19,53zm-279 107c-120,48 -255,94 -334,94 -46,0 -86,-6 -120,-14 10,2 22,3 34,4 139,4 283,-39 410,-80l10 -3zm-1000 176c-21,40 -47,81 -78,114 26,-31 47,-60 58,-82 5,-11 12,-22 20,-32zm-4494 4443c-49,-7 -101,-17 -154,-32 50,11 101,20 154,32zm-623 -276c-10,-8 -19,-16 -28,-24 6,5 13,10 21,17l8 7z"/>
   <path class="fil7" d="M10418 7470l16 3c18,-59 32,-20 30,-81 -25,-12 -49,-25 -76,-41 -14,-8 -18,-10 -35,-20l-43 -18c16,29 -5,10 31,30 36,21 84,38 110,68l-33 59z"/>
  </g>
 </g>
</svg>
