<?xml version="1.0" encoding="UTF-8"?>
<!DOCTYPE svg PUBLIC "-//W3C//DTD SVG 1.1//EN" "http://www.w3.org/Graphics/SVG/1.1/DTD/svg11.dtd">
<!-- Creator: CorelDRAW X6 -->
<svg xmlns="http://www.w3.org/2000/svg" xml:space="preserve" width="133.238mm" height="141.99mm" version="1.1" style="shape-rendering:geometricPrecision; text-rendering:geometricPrecision; image-rendering:optimizeQuality; fill-rule:evenodd; clip-rule:evenodd"
viewBox="0 0 13515 14403"
 xmlns:xlink="http://www.w3.org/1999/xlink">
 <defs>
  <style type="text/css">
   <![CDATA[
    .fil23 {fill:#2C303F}
    .fil24 {fill:#2E3755}
    .fil35 {fill:#302E36}
    .fil33 {fill:#322F3C}
    .fil15 {fill:#4D3D4B}
    .fil3 {fill:#73696C}
    .fil1 {fill:#766755}
    .fil6 {fill:#906E52}
    .fil12 {fill:#90756D}
    .fil2 {fill:#968672}
    .fil5 {fill:#9A6D5E}
    .fil18 {fill:#AB8D78}
    .fil45 {fill:#AB9D89}
    .fil4 {fill:#AC9C63}
    .fil0 {fill:#AD754F}
    .fil8 {fill:#AE5A38}
    .fil44 {fill:#B19584}
    .fil10 {fill:#C19D85}
    .fil19 {fill:#C66A3A}
    .fil7 {fill:#CC7543}
    .fil39 {fill:#CD7639}
    .fil41 {fill:#CD7649}
    .fil36 {fill:#D48139}
    .fil16 {fill:#D5763A}
    .fil32 {fill:#D57A45}
    .fil29 {fill:#D8824B}
    .fil20 {fill:#D88539}
    .fil40 {fill:#D9834A}
    .fil34 {fill:#DB864F}
    .fil21 {fill:#DF8B50}
    .fil38 {fill:#E1793A}
    .fil43 {fill:#E7AA49}
    .fil25 {fill:#E9A146}
    .fil26 {fill:#EAA84A}
    .fil22 {fill:#EB9A62}
    .fil14 {fill:#EBDA74}
    .fil11 {fill:#ECB549}
    .fil27 {fill:#EEA067}
    .fil37 {fill:#EEBB8A}
    .fil28 {fill:#F0C068}
    .fil9 {fill:#F1AB74}
    .fil30 {fill:#F2B986}
    .fil42 {fill:#F2E8DA}
    .fil17 {fill:#F3C696}
    .fil13 {fill:#F4B378}
    .fil31 {fill:#F5CD92}
   ]]>
  </style>
 </defs>
 <g id="Layer_x0020_1">
  <metadata id="CorelCorpID_0Corel-Layer"/>
  <g id="_870253152">
   <g>
    <path class="fil0" d="M8280 2993l-18 -43c6,-2 18,-5 25,-10 18,-13 2,4 11,-16l-74 -12c36,45 -2,46 55,80z"/>
    <path class="fil0" d="M5668 10767c-3,-2 -6,-4 -9,-6 11,23 17,39 37,52 -9,-15 -18,-31 -28,-46z"/>
   </g>
   <g>
    <path class="fil1" d="M7902 3029c-8,-9 -6,-19 -35,-24 -14,-2 -36,2 -52,2 6,-66 10,-8 44,-64 -59,20 -59,42 -56,81l99 5z"/>
    <path class="fil1" d="M8072 1082l9 -3c23,-39 70,-71 86,-106l-34 20c-9,8 -18,18 -26,28 -25,28 -38,43 -35,61z"/>
    <path class="fil1" d="M1156 6753c24,-9 11,6 18,-15l-18 15 0 0z"/>
   </g>
   <g>
    <path class="fil2" d="M8118 3193c30,-19 28,-20 22,-60l-6 -104c60,1 33,9 81,23 -14,-28 -60,-40 -84,-43 -20,68 6,122 -13,184z"/>
    <path class="fil2" d="M7473 3193c17,-14 5,0 19,-18 23,-30 53,-107 58,-146l-39 75c-16,41 -23,36 -37,88z"/>
    <path class="fil2" d="M9247 7906c24,-18 68,-70 91,-106 -24,26 -48,53 -71,81 -7,8 -13,15 -20,23l0 2z"/>
    <path class="fil2" d="M6916 11417c37,-24 29,-23 57,-60 13,-17 30,-33 40,-57 -34,42 -65,78 -93,109 -1,2 -2,5 -3,8z"/>
    <path class="fil2" d="M8335 9365l48 -75c13,-24 32,-52 43,-81 -3,2 -6,3 -8,5 -26,47 -53,96 -81,146l-1 5z"/>
    <path class="fil2" d="M7644 10460c25,-12 6,7 31,-23 22,-28 44,-59 52,-89 -7,4 -12,7 -15,10l-16 23c-2,5 -5,11 -12,20 -16,22 -26,30 -39,59z"/>
    <path class="fil2" d="M3422 7243l18 26c5,6 10,11 15,16l-33 -41z"/>
    <path class="fil2" d="M8084 9795c27,-16 34,-44 51,-70 28,-44 14,0 24,-46 -6,4 -11,9 -16,14 -17,29 -35,58 -54,88 -2,5 -4,10 -5,14z"/>
    <path class="fil2" d="M9854 7295c2,-1 4,-2 7,-5 32,-23 13,-5 21,-23 -8,8 -17,17 -28,28z"/>
    <path class="fil2" d="M7569 10572c35,-10 5,17 64,-78l12 -22c-14,8 -25,19 -36,32l-16 22c-9,15 -18,31 -25,46z"/>
    <path class="fil2" d="M7380 3357c37,-21 18,-12 40,-47 15,-25 24,-30 36,-64 -24,12 -12,1 -26,20 -1,1 -13,24 -16,29 -13,21 -23,40 -34,63z"/>
    <path class="fil2" d="M7224 11036c20,-9 24,-20 37,-35 3,-4 13,-11 18,-18 23,-27 8,-2 18,-35 -9,5 -14,8 -18,11 -18,24 -35,47 -52,69 0,2 -1,4 -2,7z"/>
    <path class="fil2" d="M7014 11299c20,-10 27,-24 41,-39 24,-25 32,-18 27,-44l-1 1c-24,29 -46,57 -66,82z"/>
    <path class="fil2" d="M8478 9107c33,-29 26,-27 44,-71 -4,3 -7,4 -9,4l-32 59 -2 8z"/>
    <path class="fil2" d="M7166 11110c33,-15 55,-46 59,-74l-59 74z"/>
    <path class="fil2" d="M8209 9591c28,-27 22,-14 30,-48 -5,3 -7,4 -9,4 -7,12 -14,23 -21,35 0,2 0,5 0,9z"/>
    <path class="fil2" d="M3080 6800c6,23 4,29 28,37l-28 -37z"/>
    <path class="fil2" d="M9480 7650c19,-8 16,-5 24,-24 -8,8 -16,16 -24,24z"/>
    <path class="fil2" d="M7786 5753c-7,-19 -23,-37 -43,-51 13,19 27,36 43,51z"/>
   </g>
   <g>
    <path class="fil3" d="M7856 947l31 -30c15,-22 7,-13 28,-33 39,-37 75,-83 119,-114 29,-20 53,-33 71,-59 -36,9 -109,71 -137,101 -18,19 -35,36 -59,58 -25,23 -11,7 -29,34 -10,15 -17,20 -25,44z"/>
    <path class="fil3" d="M3295 7080c8,20 19,36 39,50 -13,-17 -26,-33 -39,-50z"/>
    <path class="fil3" d="M7081 11217c24,-16 27,-19 34,-43 -12,15 -23,29 -34,42l0 1z"/>
   </g>
   <g>
    <path class="fil4" d="M6535 11805c40,-18 81,-69 119,-102 16,-21 33,-40 55,-61 29,-27 39,-34 60,-56 30,-32 95,-91 109,-128 -2,1 -4,2 -6,4 -59,65 -106,111 -151,155 -72,72 -138,139 -186,185l-2 4z"/>
    <path class="fil4" d="M8612 8865c34,-29 215,-362 218,-371 -6,3 -9,4 -10,4 -71,116 -138,233 -206,356 -1,4 -2,8 -2,10z"/>
    <path class="fil4" d="M7312 10926c26,-17 7,-2 28,-27 42,-50 118,-136 131,-193l-25 26 -11 15c-3,5 -4,8 -10,16 -12,18 -26,35 -38,51 -7,10 -16,20 -24,31l-28 38c-9,14 -17,28 -23,42z"/>
    <path class="fil4" d="M8235 9546c21,-17 1,8 23,-22 4,-6 10,-19 16,-29 15,-28 23,-28 29,-67 -3,4 -7,8 -11,12 -16,28 -33,57 -50,87 -3,7 -5,14 -7,20z"/>
    <path class="fil4" d="M9692 7445c13,-5 7,1 21,-14 7,-7 10,-12 13,-18l-29 27 -4 4z"/>
    <path class="fil4" d="M7513 10650c35,-10 25,-7 33,-43 -17,13 -7,1 -22,21 -12,16 1,-4 -11,22z"/>
   </g>
   <g>
    <path class="fil5" d="M8306 5838c-6,0 -13,1 -19,1 6,0 13,-1 19,-1zm-340 -12c-17,-5 -31,-10 -49,-10 16,4 32,7 49,10z"/>
    <path class="fil5" d="M9462 2984c-11,-22 -13,-24 -33,-44 -15,-15 -23,-23 -39,-41 -22,-24 -47,-73 -79,-84 20,42 115,151 151,169z"/>
    <path class="fil5" d="M10615 4280l-116 73c-11,9 -9,9 -17,17l31 -3c30,-38 109,-64 148,-119 -23,10 -33,18 -47,32z"/>
    <path class="fil5" d="M708 7140c28,-17 79,-65 112,-100 -42,36 -78,68 -112,100z"/>
    <path class="fil5" d="M2413 8314c-4,-20 2,-12 -14,-31 -8,-10 -22,-21 -28,-26 -24,-22 -23,-39 -61,-54 10,17 3,7 12,20 6,8 8,9 13,15l77 75z"/>
    <path class="fil5" d="M1106 6803c28,-16 40,-22 50,-50l0 0 -16 13 -30 26c-1,2 -2,6 -4,11z"/>
    <path class="fil5" d="M424 5965c-10,-17 -22,-17 -44,-21 14,7 29,14 44,21z"/>
    <path class="fil5" d="M1185 6728c11,-3 11,-1 19,-16l-19 16z"/>
   </g>
   <g>
    <path class="fil6" d="M4824 9482l3 50c40,-6 10,10 40,-19l-11 -98c20,14 12,5 27,25 0,0 14,27 15,29 13,25 17,32 34,56 22,31 43,86 78,108 -4,-9 -7,-17 -11,-24l-20 -34c-17,-27 -36,-50 -57,-84 -17,-27 -24,-47 -36,-71l-4 -8c-22,-35 -32,-49 -39,-56 -2,0 -4,-1 -7,-2 -11,13 -12,-17 -15,34 -3,49 24,5 28,88 -13,14 21,19 -26,7z"/>
    <path class="fil6" d="M4775 9339l-2 -4c-2,-2 -3,-5 -5,-8 -21,-32 -58,-97 -137,-256 -7,-14 -14,-29 -22,-45l0 0c8,37 129,247 141,304l26 9z"/>
    <path class="fil6" d="M6846 14159l80 -27 18 -7c28,-13 54,-23 79,-32 41,-17 81,-35 121,-54 7,-5 13,-10 19,-16 -12,2 -156,59 -166,64 -67,36 -82,31 -117,41 -38,11 -20,3 -34,30z"/>
    <path class="fil6" d="M10941 3039c-17,-42 -40,-60 -64,-86 -27,-28 -52,-51 -87,-62 25,29 52,43 78,71 19,20 48,62 73,76z"/>
    <path class="fil6" d="M1129 7876l1 -2c-30,18 -48,33 -67,63 16,-18 32,-31 50,-47l16 -14z"/>
    <path class="fil6" d="M7957 3191c-16,-37 -12,-51 -21,-86 -5,-18 -4,-13 -9,-32 -1,-4 -5,-21 -5,-23 -10,-23 2,-3 -14,-19 3,34 5,57 16,89 5,14 7,30 12,43 13,39 -4,19 23,28z"/>
    <path class="fil6" d="M10781 4133c31,-21 35,-38 60,-66 23,-26 44,-47 57,-78 -26,13 -5,-5 -27,18l-37 52c-26,30 -37,35 -52,73z"/>
    <path class="fil6" d="M9033 2360c-1,-2 -3,-7 -4,-5 -6,15 -6,-8 -8,-10l-99 -80c-24,-18 -2,-4 -27,-16 21,39 106,104 138,111z"/>
    <path class="fil6" d="M4668 12818c-7,-22 -19,-41 -30,-62 -2,-4 -4,-7 -5,-9 12,24 23,48 35,71zm-51 -104c-9,-25 3,-14 -11,-22l11 22z"/>
    <path class="fil6" d="M9006 12618l27 -16c3,6 7,14 11,23 6,6 13,16 21,30 6,10 13,23 21,38 3,3 5,6 8,8l-44 -105c-21,-9 -17,1 -26,-10l-19 32z"/>
    <polygon class="fil6" points="5168,9903 5182,9929 5187,9936 "/>
    <path class="fil6" d="M6242 11619c13,27 26,37 45,63 6,9 15,24 21,31l21 18c-25,-32 -55,-70 -87,-112z"/>
    <path class="fil6" d="M8509 2562c3,6 10,24 13,32 -49,-6 -32,-16 -81,-38 11,17 3,7 16,20 2,2 8,7 10,9l46 29c29,-2 11,1 24,-22 -11,-34 2,-16 -28,-30z"/>
    <path class="fil6" d="M10896 3979c32,-21 48,-60 66,-96 1,-2 3,-6 4,-8 1,-2 3,-5 4,-8 -31,18 -60,76 -74,112z"/>
    <path class="fil6" d="M4107 11546c-9,-38 -13,-28 -27,-63l-15 -35c-6,-8 -10,-11 -17,-17 7,44 8,24 25,66 5,13 4,18 13,30 16,23 13,13 22,20z"/>
    <path class="fil6" d="M10701 4214c36,-21 67,-50 81,-89 -39,21 -14,11 -46,44 -6,6 -14,12 -18,17 -19,23 -4,2 -16,28z"/>
    <path class="fil6" d="M9668 3136l-151 -102c19,29 49,43 73,59 31,21 44,37 78,43z"/>
    <path class="fil6" d="M9120 2426c-14,-20 -5,-10 -23,-23l-64 -42c15,36 48,55 87,66z"/>
    <path class="fil6" d="M5332 13858c-15,-27 -44,-64 -65,-76l14 17c17,20 34,40 50,59z"/>
    <path class="fil6" d="M3733 10675c-4,-55 -9,-59 -33,-100 -2,33 17,74 33,100z"/>
    <path class="fil6" d="M5239 13747c-9,-20 -31,-57 -54,-67 18,23 36,45 53,66l1 1z"/>
    <path class="fil6" d="M2470 8365c-15,-25 -28,-44 -57,-51 4,8 7,15 11,21 7,6 13,13 20,19 7,4 15,8 25,12z"/>
    <path class="fil6" d="M4831 13136c0,-3 -2,-7 -8,-18 -4,-7 -7,-11 -9,-14l17 31z"/>
    <path class="fil6" d="M3999 11295c-5,-29 -12,-34 -31,-55 6,30 -3,10 10,35 15,27 11,13 20,20z"/>
    <path class="fil6" d="M4910 13275c-5,-24 -10,-23 -17,-29 6,10 11,19 17,29z"/>
    <path class="fil6" d="M10337 2971c23,-5 20,3 27,-24l-27 24z"/>
   </g>
   <g>
    <path class="fil7" d="M10382 4768l19 -36c18,-57 1,-99 24,-164 17,-47 11,-60 14,-112 3,-57 15,-47 39,-92l-18 3c-51,43 -132,24 -207,28 7,101 171,73 176,74 -4,54 -54,265 -48,299z"/>
    <path class="fil7" d="M3385 9125c-12,-59 -106,-243 -96,-289 41,-11 175,2 203,-52 -19,-12 1,-10 -34,-7 -15,1 -25,7 -38,10 -103,22 -209,-25 -250,-25 34,30 35,25 121,38 -6,12 -11,21 -15,28 8,25 26,78 67,193 11,30 23,63 36,100 2,1 4,2 6,4z"/>
   </g>
   <g>
    <path class="fil8" d="M10439 3224c-15,16 -37,32 -52,48 -15,17 -26,39 -39,52 -24,62 -60,60 -78,128 62,0 36,0 63,-37l39 -41c92,-108 117,-145 242,-206 36,-18 34,-12 82,-8 -10,-24 -20,-48 -58,-52 -66,-7 -138,92 -199,115z"/>
    <path class="fil8" d="M7942 4676c23,-9 28,-7 32,-41 -18,-21 1,-15 -35,-16 -12,11 3,7 -28,18 -13,5 -49,5 -62,15 -36,28 -9,2 -23,33l116 -9z"/>
    <path class="fil8" d="M3700 10575l-7 -56 94 -8c-9,-33 13,-34 -50,-33 -30,1 -17,6 -55,-1 1,58 -14,62 20,97z"/>
    <path class="fil8" d="M745 7710l6 -1c4,-7 6,-13 9,-18 8,-13 19,-20 23,-12 4,8 1,30 -5,50 -1,3 -2,6 -3,8l0 5c31,-33 33,-30 30,-83 -24,1 -30,1 -45,14 -23,20 -20,-9 -15,35z"/>
   </g>
   <g>
    <path class="fil9" d="M748 7304c-36,84 12,158 48,205 51,66 190,129 270,151l173 37c35,9 110,53 144,39 57,2 139,51 187,27 -12,-26 -8,-12 -50,-18 -58,-8 -15,-14 -127,-27 -33,-4 -32,-11 -88,-29l-107 -36c-2,-1 -4,-3 -5,-4 -41,-21 -44,-3 -98,-28 -57,-27 -48,-11 -79,-27l-46 -36c-60,-45 -113,-5 -69,-165 12,-42 5,-92 17,-141 54,-19 240,-11 313,-11 -41,-38 -234,-24 -285,-24 -152,0 -131,16 -199,87z"/>
    <path class="fil9" d="M10460 4366l18 -3 4 6c8,-8 6,-8 17,-17l116 -73c-16,-23 8,-18 -29,-16 -27,2 -1,7 -74,40l-86 53c14,9 -4,12 35,9z"/>
   </g>
   <g>
    <path class="fil10" d="M7507 1451c6,23 11,45 19,65 9,24 32,85 38,108 9,14 15,27 21,38 11,16 22,29 31,42 10,14 19,26 26,38 4,1 9,2 14,3 27,-77 -23,-337 112,-639 32,-71 63,-108 87,-159 8,-24 15,-29 25,-44 18,-26 4,-11 29,-34 24,-22 41,-39 59,-58 28,-30 102,-92 137,-101 33,-12 86,-52 121,-70 40,-20 98,-42 125,-62 15,-33 19,-33 66,-39 -16,-17 4,-12 -30,-15 -17,-1 -10,0 -23,5l-163 83c-112,62 -181,93 -273,194 -69,75 -83,57 -166,211l-12 26c-14,37 -2,15 -19,42 -42,63 -22,35 -49,122l-21 93c-9,48 -6,8 -19,48 -9,27 -20,209 -34,247l-38 -93c-44,-110 -44,-235 -43,-353 -16,-2 -9,-5 -15,-2 -11,46 -17,92 -18,139 -1,55 4,112 13,164z"/>
    <path class="fil10" d="M7514 1140c3,4 10,7 22,18 14,-27 15,-55 33,-85 1,-1 22,-35 24,-39 46,-97 30,-69 109,-160 30,-35 -17,13 17,-17 24,-22 40,-37 61,-57 54,-50 147,-127 210,-165 187,-113 231,-132 448,-216 63,-24 174,-75 238,-76 -31,-37 -17,-24 -54,-22l-29 7c-31,-1 -148,42 -237,77 -48,21 -93,42 -136,63 -164,81 -305,168 -414,258 -109,90 -186,183 -236,276 -25,46 -42,92 -55,138z"/>
   </g>
   <g>
    <path class="fil11" d="M5696 10813c-20,-12 -26,-29 -37,-52 -1,-8 -3,-13 -5,-18l-5 -8c-4,-5 -9,-11 -16,-21 -50,-67 -57,-96 -89,-155 0,0 -14,-21 -17,-27l-43 -75c-6,-10 -10,-20 -16,-31l-18 -32c-86,-149 -179,-311 -263,-459l-5 -7 -13 -26 -59 -103c-39,12 -9,4 -21,-3 -10,-58 4,-23 -18,-43 -48,53 20,72 68,186 11,25 0,3 10,19 0,0 16,21 20,26l84 147c39,45 26,59 61,111l75 139c2,3 8,16 8,17 35,81 150,284 188,335 2,2 6,8 8,10l13 14c22,29 8,23 28,52l65 88c51,46 7,29 57,95 6,8 15,19 18,24 5,10 5,16 13,32l140 203c1,2 3,4 4,6l125 178c29,47 13,39 64,46 -26,-60 -38,-40 -40,-83 -46,-64 -93,-132 -140,-201 -82,-122 -162,-248 -244,-384z"/>
    <path class="fil11" d="M6349 11760c-1,-3 -1,-5 -1,-6l-18 -23 -21 -18c-6,-7 -14,-22 -21,-31 -19,-26 -32,-36 -45,-63 -28,-37 -59,-78 -91,-121 -15,-15 0,-3 -9,-7 -59,-34 -14,-12 -31,0 4,55 15,54 51,91 19,20 33,55 53,82 17,22 8,4 32,31 51,60 50,98 115,109l-13 -44z"/>
   </g>
   <g>
    <path class="fil12" d="M9509 105c34,6 51,-5 78,-13 49,-15 43,-6 84,-10 22,-2 22,-2 40,-10l22 -12c-67,10 -138,22 -210,35 -10,4 -1,0 -14,10zm261 -50c20,0 42,2 61,1 126,-4 144,-37 367,-26 -32,19 -92,18 -138,22 -72,6 -85,16 -134,26 -42,9 -99,3 -150,13 -25,5 -126,19 -142,26 10,10 9,12 28,18 49,14 123,-22 223,-26 76,-3 27,-9 65,-16 59,-11 116,4 183,-13 34,-9 135,-16 172,-6 20,5 10,1 22,10l-236 27c-28,7 11,-6 -17,5 -20,8 -16,8 -24,14 483,-31 582,-83 1078,-1 65,11 63,21 145,21l-161 -56c-35,-10 -71,-18 -105,-26l-247 -46 -14 -2c-45,-4 -82,-8 -116,-12 -58,-5 -117,-7 -180,-8 -174,-2 -377,10 -664,52l-17 2z"/>
    <path class="fil12" d="M8167 974c22,-7 36,-17 49,-32 9,-10 14,-22 18,-26 25,-26 -4,-12 32,-13 -3,-42 2,-13 -13,-24 -24,13 -26,27 -44,48 -19,22 -27,21 -42,48z"/>
    <path class="fil12" d="M7913 5816l-53 -30 -69 -28c7,6 15,12 23,17 28,18 61,31 99,41z"/>
    <path class="fil12" d="M8914 8351c23,-17 37,-41 48,-71 -16,24 -32,47 -48,71z"/>
    <path class="fil12" d="M1765 5998l-2 0c3,2 6,2 8,6l29 13c-12,-6 -24,-12 -35,-18z"/>
    <path class="fil12" d="M52 5743c-2,-22 2,-9 -8,-24 -16,-23 -14,-13 -23,-21 8,15 18,30 31,45z"/>
    <path class="fil12" d="M7691 2322c9,-5 12,-1 26,-15 16,-16 6,-4 17,-27 -24,15 -30,16 -43,42z"/>
   </g>
   <g>
    <path class="fil13" d="M51 5741l1 2c7,8 15,16 24,25 36,33 85,64 176,112l2 1c66,3 70,44 117,27 -14,-23 -41,-17 -91,-50l-86 -58c40,-28 108,-5 208,-68 7,-57 -3,-70 -8,-124 52,4 239,85 252,89 48,14 41,4 91,26 119,50 -18,9 114,45 41,11 16,6 43,21l356 95c61,14 116,27 179,42 69,16 192,59 245,97 27,19 50,31 87,36 -20,-19 -115,-79 -140,-89 -7,-3 -16,-5 -20,-7 -24,-10 -9,-4 -18,-9 -37,-20 12,-4 -37,-17 -35,-9 -57,-12 -94,-22 -55,-15 -114,-31 -176,-45 -47,-11 -46,-6 -84,-25 -49,-25 -50,-2 -79,-45 92,-8 88,25 154,25 -9,-8 -19,-14 -30,-19 -13,-4 -26,-7 -40,-11 -58,-16 -125,-36 -195,-57l-6 -1c21,9 50,16 66,20 51,14 48,24 55,45 -159,0 -63,-5 -152,-25 -64,-14 -154,-55 -188,-62 -44,-10 -37,-16 -82,-24 -47,-8 -140,-46 -159,-51 -27,-7 -42,-2 -79,-20l-331 -78c-35,-1 -12,-5 -33,8 -10,6 -22,18 -26,24 -25,38 -14,111 15,151 16,23 45,39 56,49 -35,26 -36,0 -86,-32z"/>
    <path class="fil13" d="M3591 7549c-16,-45 -16,-31 -43,-57 -13,-13 -20,-28 -33,-47 -16,-23 -26,-27 -45,-46 -50,-49 34,-18 -102,-130 -40,-33 -30,-58 -93,-87 10,50 209,272 258,325 37,39 31,32 58,42z"/>
   </g>
   <g>
    <path class="fil14" d="M9888 7267l-2 -2 -4 4c-8,18 11,0 -21,23 -3,2 -5,4 -7,5 -29,27 -69,63 -128,118 -3,6 -6,11 -13,18 -14,14 -8,9 -21,14 -53,49 -118,111 -188,182 -7,19 -5,16 -24,24 -46,46 -93,97 -142,150 -24,35 -67,88 -91,106 -1,0 -1,1 -2,1 -98,116 -193,242 -283,373 -11,30 -25,54 -48,71l-9 13c-9,20 -26,42 -41,63 -9,14 -18,28 -27,42 -4,9 -7,17 -8,25 -3,9 -184,342 -218,371l-90 171c-18,44 -11,42 -44,71 -5,10 -13,22 -22,36l-24 44c-4,8 -6,16 -7,23 -11,28 -29,57 -43,81l-48 75c-1,1 -2,2 -3,3l-23 41c-3,7 -5,14 -7,18 -5,39 -13,39 -29,67 -5,10 -11,23 -16,29 -22,30 -2,5 -23,22l3 -3c-8,34 -2,21 -30,48 -11,18 -47,67 -49,88 -10,46 4,2 -24,46 -17,26 -24,54 -51,70l-4 16c-4,52 -42,51 -57,127 44,-12 16,6 44,-32l134 -223c1,-2 2,-4 3,-5l42 -74c19,-35 32,-48 54,-82 15,-24 29,-57 48,-85 11,-17 18,-23 25,-38 40,-85 19,-29 45,-70 1,-2 2,-4 3,-6l5 -12c16,-45 -2,-34 42,-94 18,-25 11,-14 26,-45 5,-10 14,-26 23,-40 19,-29 10,-11 27,-46l43 -89c4,-7 8,-18 11,-26l402 -675c25,-33 49,-96 103,-156 14,-16 17,-16 31,-32 13,-15 20,-23 32,-40 8,-13 14,-25 25,-38l68 -76c37,-45 58,-82 92,-113 29,-26 37,-44 61,-72 44,-51 89,-86 139,-138l242 -234c27,-19 23,-9 33,-38 23,24 7,10 21,45 16,-7 5,2 17,-14 24,-32 10,-56 47,-87 14,-10 41,-56 38,-87 -11,7 -16,14 -27,24 -15,13 -23,20 -37,30z"/>
    <path class="fil14" d="M7726 10348c-8,31 -29,62 -52,89 -25,31 -6,11 -31,23l1 12 -12 22c-59,95 -29,68 -64,78 -10,23 -13,17 -23,35 -8,36 2,33 -33,43 -11,18 -31,40 -41,56 -13,58 -90,144 -131,193 -21,25 -2,10 -28,27 -12,6 -9,-4 -16,22 -10,33 5,7 -18,35 -5,6 -14,14 -18,18 -12,14 -16,26 -37,35 -4,28 -26,59 -59,74 -9,13 -22,31 -34,43l-3 3 -14 17c-7,24 -10,27 -34,43 5,26 -3,19 -27,44 -14,14 -20,29 -41,39l-1 1c-10,24 -27,40 -40,57 -28,37 -20,35 -57,60 -3,2 -6,4 -9,6 -8,9 -16,18 -23,26 -2,3 -3,5 -5,8 -14,37 -79,96 -109,128 -21,22 -31,29 -60,56 -23,21 -39,41 -55,61 24,44 -31,3 12,6 40,3 86,-63 115,-94l121 -130c77,-68 48,-65 113,-129 1,-1 3,-3 5,-4l496 -634c59,-92 161,-220 200,-292l83 -115c61,-77 126,-205 174,-264 25,-31 45,-55 56,-106 -14,-10 -1,-6 -29,-7 -13,18 -18,24 -34,51 -12,19 -22,30 -36,55l-140 209c-11,15 -62,94 -64,100z"/>
   </g>
   <g>
    <path class="fil15" d="M9701 2243c-7,-21 -73,-47 -99,-58 -123,-56 -375,-272 -462,-363 -113,-117 -141,-170 -222,-270 -41,-50 -102,-146 -128,-204 -17,-38 -35,-76 -56,-115 -20,-39 -29,-74 -43,-117 -51,-152 -64,-154 -47,-360 4,-44 9,-55 -8,-87l-13 4c-31,21 -87,213 -90,244 -9,103 -12,248 19,339 33,99 230,329 302,413 104,121 250,243 380,338 35,25 70,48 109,69 111,61 50,53 228,129 63,27 94,54 129,38z"/>
    <path class="fil15" d="M762 7769c10,-3 3,-2 14,-25l0 -5c-3,10 -7,19 -14,31zm-11 -60l-6 1c-1,10 -1,12 -1,13 3,-5 5,-9 8,-13z"/>
   </g>
   <g>
    <path class="fil16" d="M11482 7131c44,-23 117,-131 155,-171 27,-30 143,-139 183,-157 33,-36 41,-18 51,-75 -46,-6 -59,5 -102,3 -39,-1 -80,-11 -108,-11 -48,0 -22,11 -87,-10l-202 -32c-212,-24 -175,-41 -232,-53 -65,-13 -56,-19 -129,-42 -10,-3 -20,-5 -28,-8 -22,-8 -4,0 -18,-9 -1,0 -11,-8 -15,-12 -87,-69 -40,-23 -91,-61 -2,-1 -4,-3 -5,-4 -1,-1 -4,-3 -5,-4l-20 -15c-105,-92 -34,4 -119,-114l-76 -94c-27,-36 -22,-28 -55,-50 0,104 102,216 141,277 57,88 89,111 149,166 67,61 246,164 336,185l316 97c-21,45 -45,21 -90,20 8,14 18,44 3,65 -14,21 -23,10 -26,11l-18 2c-1,-2 -4,0 -6,1l1 36 43 18c1,34 0,22 -33,73 -17,26 -18,16 -19,43 46,-6 61,-56 108,-75z"/>
    <path class="fil16" d="M1152 8014c-23,33 -43,75 -49,115 -1,9 -1,17 0,25 2,26 10,51 25,70 25,25 70,39 142,34 17,-1 33,-5 47,-11 27,-14 53,-38 94,-85 27,-31 59,-71 92,-111 1,-2 2,-4 4,-6 7,-11 4,-6 8,-15l14 -43c-84,10 -69,63 -146,141 -1,1 -3,3 -5,5 -39,40 -110,93 -175,76 -57,-15 -42,-61 -42,-124 16,-9 67,-85 36,-125 -23,44 -18,40 -46,54z"/>
   </g>
   <g>
    <path class="fil17" d="M1763 6057c20,7 154,67 185,96 73,69 67,20 137,70 52,38 0,23 110,61 79,27 47,27 106,54 60,28 8,-13 88,36 30,18 64,23 89,37 0,0 17,12 21,14 71,44 82,40 146,70l141 101c14,14 19,35 35,54l193 219c61,83 66,71 116,135 14,18 25,28 38,42 31,33 14,13 51,32 33,16 12,9 47,76 5,9 7,-8 9,27 63,29 52,54 93,87 136,112 52,81 102,130 19,19 29,22 45,46 13,18 19,33 33,47 26,27 26,12 43,57 1,3 67,94 75,103l407 481c17,24 28,32 46,52 55,59 110,200 162,234l-4 -33c-104,-181 -208,-331 -326,-486 -133,-173 -285,-353 -433,-537 -21,-26 -42,-53 -63,-79 -5,-5 -9,-10 -15,-16l-18 -26c-30,-38 -60,-76 -89,-113 -19,-13 -31,-30 -39,-50 -30,-38 -58,-75 -85,-110 -4,-5 -8,-10 -12,-15 -20,-25 -71,-88 -86,-114l-3 -4c-24,-9 -22,-15 -28,-37 -80,-106 -134,-177 -198,-239 -74,-72 -160,-130 -246,-173 -86,-43 -172,-71 -281,-115 -109,-44 -241,-103 -356,-158 -74,-35 -140,-69 -198,-99l-29 -13c-2,-4 -5,-4 -8,-6l-335 -145c-33,-9 -70,-18 -114,-29 -15,-2 -30,-3 -46,-1 -66,-1 -62,-34 -154,-25 29,44 29,20 79,45 38,19 37,14 84,25 62,14 122,30 176,45 37,10 59,13 94,22 49,13 0,-3 37,17 9,5 -6,-1 18,9 5,2 14,5 20,7 25,10 120,70 140,89z"/>
    <path class="fil17" d="M7644 4927l-100 -6c-7,44 8,48 24,77 12,14 22,27 30,39 12,15 23,31 31,47 16,31 19,62 21,124 2,62 3,156 12,235 8,79 24,144 48,200 9,21 20,41 32,60 21,14 36,32 43,51 2,2 3,3 5,5l69 28 34 3c-12,-28 -20,-29 -37,-49 -32,-37 -91,-134 -100,-173 -5,-20 -1,-38 -7,-55 -9,-26 -19,16 -26,-99 -6,-105 -3,-423 -22,-497l-57 11z"/>
    <path class="fil17" d="M7477 4184c15,10 25,31 31,51 1,3 2,7 2,11 2,6 3,13 4,19 3,22 3,44 -2,68 0,9 0,18 0,26 -12,37 -41,87 -52,133 -15,65 -36,72 -3,130l69 -25c-23,-66 27,-150 36,-186 10,-39 22,-160 1,-187 -16,-20 -52,-65 -80,-74 -17,12 0,-2 -15,13l-5 7c6,4 10,8 15,13z"/>
   </g>
   <g>
    <path class="fil18" d="M9509 105c-12,-2 -22,-2 -32,-2l-32 6c-18,5 -36,12 -59,15l-349 76c-118,32 -268,57 -401,106 -10,4 -19,6 -27,10l-18 12 29 -7c36,-2 23,-15 54,22 -64,1 -176,52 -238,76 -217,84 -260,103 -448,216 -63,38 -156,116 -210,165 -21,20 -37,34 -61,57 -33,31 14,-18 -17,17 -79,91 -63,64 -109,160 -2,4 -23,38 -24,39 -18,30 -18,58 -33,85 -13,-11 -19,-14 -22,-18l-2 7c6,-3 -1,0 15,2 -1,118 -1,243 43,353l38 93c15,-37 25,-219 34,-247 13,-40 10,1 19,-48l21 -93c27,-86 7,-58 49,-122 17,-26 4,-5 19,-42l12 -26c83,-153 97,-135 166,-211 91,-100 160,-132 273,-194l163 -83c13,-5 6,-6 23,-5 34,3 14,-3 30,15 -47,6 -50,5 -66,39 72,-19 124,-56 197,-75 39,-10 165,-50 203,-67l312 -90c44,-12 66,-21 102,-30l542 -132c39,-8 85,-4 120,-17 56,-21 170,-25 222,-36 8,-7 4,-6 24,-14 28,-12 -11,2 17,-5l236 -27c-12,-8 -2,-4 -22,-10 -37,-10 -138,-3 -172,6 -67,17 -124,2 -183,13 -37,7 11,13 -65,16 -100,4 -174,40 -223,26 -19,-5 -18,-8 -28,-18 16,-7 117,-21 142,-26 52,-11 108,-4 150,-13 49,-11 62,-20 134,-26 46,-4 106,-4 138,-22 -223,-11 -241,22 -367,26 -18,1 -40,-2 -61,-1l-38 6 -22 12c-17,7 -18,8 -40,10 -41,4 -35,-5 -84,10 -27,8 -44,19 -78,13z"/>
    <path class="fil18" d="M7652 1959c13,-10 16,-12 23,-34 12,-39 5,-66 41,-153 18,-43 17,-66 51,-135 20,-42 11,0 21,-49 -43,32 -72,121 -86,173l-30 110 0 3c-4,23 -11,52 -19,85z"/>
   </g>
   <g>
    <path class="fil19" d="M701 7766c3,-1 9,-3 14,-5l1 -2c13,-15 22,-27 28,-37 0,-1 0,-3 1,-13 -5,-45 -8,-15 15,-35 15,-13 21,-12 45,-14 3,53 1,50 -30,83 -10,24 -4,22 -14,25 -5,8 -11,18 -19,29 -18,24 -45,55 -69,90 43,1 13,-1 25,10 -9,53 -26,35 -34,109 -12,108 -20,164 121,164 83,0 128,-74 166,-133 18,-28 84,-132 109,-151 44,-32 1,10 62,-55 22,-23 24,-27 62,-28l-30 34c-9,9 -6,4 -14,14 -14,18 -6,4 -11,23l3 -1c20,-17 39,-34 52,-48 17,-18 23,-31 29,-32 4,-1 8,3 12,11l1 0 0 4c1,4 2,8 3,12 3,18 3,45 -14,80 -10,21 -27,44 -44,69 -8,16 -16,30 -20,44 27,-13 22,-10 46,-54 31,40 -20,117 -36,125 0,63 -15,108 42,124 64,17 135,-36 175,-76 1,-1 3,-3 5,-5 77,-78 62,-131 146,-141l-14 43c5,-4 9,-6 12,-9l34 -42c10,-15 17,-24 30,-40 10,-12 20,-23 30,-35 10,-13 18,-22 25,-29 5,-6 9,-12 13,-18l4 0c2,-2 4,-4 6,-5 10,-7 15,-8 63,9 21,7 49,18 82,32 -24,-19 -64,-31 -89,-40 -164,-61 -118,-49 -283,-84 -46,-10 -48,-22 -57,-33 -35,14 -109,-30 -144,-39l-173 -37c-80,-22 -219,-85 -270,-151 -37,-47 -84,-121 -48,-205 22,-118 102,-95 199,-94 274,1 379,-11 631,91 40,16 74,26 114,42 74,28 128,52 206,77 24,8 92,25 112,29 53,9 85,20 129,26 126,15 347,14 470,-24 25,-8 15,-18 48,-20 -1,-12 20,-43 -65,-23 -103,24 -50,23 -135,2 -32,-8 -42,-4 -74,-7 -44,-4 -97,-19 -144,-30l-119 -41c-68,-26 -69,-4 -109,-23 -9,-4 -9,-8 -24,-12 -44,-12 -91,-10 -139,-25l-147 -24c-43,-2 -102,-1 -134,-22 1,-38 11,-42 39,-58 70,-41 75,-56 184,-114 158,-83 267,36 298,-44 -32,-11 -219,-25 -260,-21 -37,4 -379,106 -451,112 -37,3 -111,0 -142,9 -40,11 -36,38 -100,43 -50,4 -84,-10 -134,-12 -64,-3 -62,-7 -126,3 -110,18 -138,94 -174,152l-7 9c-30,37 -37,63 -50,112l-5 212 35 107c1,-1 3,6 5,9 47,-21 48,-70 54,-36 -24,13 -37,23 -31,57z"/>
    <path class="fil19" d="M7491 4677l9 10c5,5 9,9 14,14 11,10 13,10 24,21 21,20 25,31 21,63l19 -51c79,22 243,-14 324,-37l40 -22 -116 9c14,-31 -13,-5 23,-33 14,-10 49,-11 62,-15 31,-11 17,-7 28,-18 -34,5 -75,12 -107,20 -29,7 -53,24 -79,35l-190 51c-28,-21 -9,-11 -34,-28 -11,-8 -4,-3 -17,-10 0,0 -17,-7 -21,-9z"/>
    <path class="fil19" d="M7463 4017c53,23 14,30 82,26 23,-34 -5,-32 17,-53 15,-14 30,2 66,2 -9,-26 2,-7 -17,-31 -2,-2 -7,-8 -9,-10l-16 -16c-73,-2 -130,-6 -160,46 18,37 1,16 37,36z"/>
   </g>
   <g>
    <path class="fil20" d="M10946 14403l406 0c2,-43 7,-76 7,-126 1,-59 14,-65 18,-106 7,-63 -7,-205 5,-255 6,-25 12,-3 17,-50 7,-57 -9,-92 1,-171 42,-331 29,-654 38,-986 2,-79 -9,-167 -8,-251 3,-197 7,-1409 -18,-1510 -16,-65 0,-756 2,-892 0,-38 10,-70 12,-108 5,-84 -1,-171 13,-252 13,-70 9,-158 28,-226 36,-130 45,-306 89,-419 9,-23 23,-77 32,-106l147 -362c16,-31 29,-43 46,-79 25,-52 68,-111 98,-154 51,-76 159,-228 222,-290 116,-114 281,-260 427,-343 135,-77 129,-61 166,-80 -16,-84 -205,34 -228,46 -225,118 -475,366 -627,572l-67 94c-8,13 -14,17 -24,31 -86,121 -225,442 -269,610 -16,61 -39,103 -53,174l-38 177c-19,62 -17,123 -31,181 -13,51 -20,134 -29,184 -17,98 -27,498 -28,637 -1,179 -25,476 -9,630 6,61 -21,18 -21,186l-30 305c-5,37 -15,42 -21,86l-156 716c-16,40 -4,60 -16,93 -16,42 -20,10 -19,81 1,67 -13,139 -21,194 -9,65 -3,147 -8,215 -19,15 -19,0 0,16 4,113 3,295 -6,406 -5,61 -15,112 -15,181l-9 682c0,91 -33,11 -23,268z"/>
    <path class="fil20" d="M8992 9214c-9,45 -13,15 -36,140 -6,32 -21,97 -31,131l-39 125c-5,23 -4,53 -9,77 -5,26 -14,39 -18,59 -39,178 -41,224 -92,405 -36,126 -11,28 -27,130 -6,35 -11,23 -19,72l-78 313c-9,57 -20,80 -33,129 -11,43 -22,94 -34,139l-72 412c-10,89 -35,363 -61,442l-106 626c-6,26 -11,33 -15,62 -8,60 -20,87 -30,141 -8,43 -22,96 -27,136 -11,89 -42,169 -75,260l-95 236c-21,44 -63,131 -63,174 0,58 -4,4 -15,59 36,-16 103,-66 165,-115 55,-46 112,-96 176,-152 158,-138 357,-315 473,-423 112,-104 147,-144 170,-164 3,-4 5,-8 6,-11l19 -32c9,10 5,1 26,10 -27,-60 -21,-4 -37,-63l-134 -484c1,-19 -71,-296 -76,-363 -12,-144 -23,-286 -23,-428 0,-123 30,-709 62,-835 11,-43 22,-150 29,-197 51,-309 93,-653 165,-954l62 -360c-2,2 -3,4 -5,6 -27,32 -99,277 -102,297z"/>
    <path class="fil20" d="M6478 11857l-5 0c-8,4 -15,5 -24,2l-8 1c-1,-2 -2,-4 -3,-7 -16,-11 -37,-34 -69,-74 -2,-1 -5,-3 -7,-4 16,34 -2,4 12,23 14,20 9,11 19,20l11 7c1,1 4,3 5,4 1,1 3,3 5,4 12,12 6,9 15,20 28,37 17,5 62,73 38,56 176,210 239,299 155,217 311,450 355,719 7,43 18,73 23,114 6,48 2,84 34,95 44,-25 2,-150 -2,-194 -3,-40 0,-84 -5,-119 -32,-244 -216,-562 -384,-745 -62,-68 -170,-160 -193,-184 -39,-43 -13,-39 -80,-31 -6,-12 -4,-2 0,-24z"/>
   </g>
   <g>
    <path class="fil21" d="M9926 7153c5,22 4,37 0,50 -4,17 -13,32 -33,54 -2,3 -4,6 -5,10 13,-10 22,-17 37,-30 11,-10 16,-17 27,-24 2,31 -24,77 -38,87 -6,77 -29,88 -39,141 -11,55 -26,78 -44,131l-236 637c-13,31 -42,93 -45,129 -22,52 -29,39 -26,101 87,8 306,-1 386,-24 252,-71 195,-66 412,-189l289 -221c46,-41 49,-73 151,-154l218 -194c143,-139 258,-281 397,-418 46,-46 84,-58 105,-107 -48,19 -63,69 -108,75 1,-27 2,-17 19,-43 33,-51 34,-38 33,-73l-43 -18 -1 -36c2,-1 5,-3 6,-1l18 -2c3,0 12,10 26,-11 14,-22 4,-52 -3,-65 45,2 70,26 90,-20l-316 -97c-90,-21 -269,-123 -336,-185 -60,-55 -91,-78 -149,-166 -40,-61 -141,-173 -141,-277 33,22 28,14 55,50l76 94c85,119 14,23 119,114l20 15c1,1 4,3 5,4 1,1 4,3 5,4 51,38 4,-8 91,61 4,3 15,11 15,12 14,9 -4,0 18,9 8,3 18,5 28,8 73,23 64,29 129,42 57,11 20,28 232,53l202 32c65,21 39,10 87,10 28,0 68,9 108,11 43,1 56,-9 102,-3 -10,57 -17,39 -51,75 39,-26 48,-37 68,-83 57,-9 99,8 158,18 62,11 71,-11 153,8l304 43 -35 -13c-86,-22 -173,-22 -245,-41 -42,-11 -110,-8 -160,-12 -53,-5 -81,-17 -143,-19 -193,-5 -204,-28 -296,-30l-291 -36c-93,-24 -170,-42 -260,-74 -176,-64 -343,-219 -442,-373l-62 -93c-1,-3 -4,-3 -6,-5l-5 37c12,8 9,7 17,17 26,29 26,30 30,59 -7,-29 -6,-4 -32,-53 -36,-68 -97,-167 -117,-226l-39 -87c-17,-31 -5,-18 -12,-49 -8,-34 -4,-11 -14,-31l-10 -33c-17,-96 -18,-6 -32,-116 -6,-50 -15,-33 -22,-74 -6,-38 2,-50 -12,-90l-15 -76c-8,-68 0,-318 -15,-358l-10 109 -53 4c2,2 17,13 17,14 1,1 3,3 5,5 1,1 4,4 5,5l9 12c-10,19 0,3 -12,16l-39 45c-34,28 -27,-1 -30,41 -2,-2 -3,-6 -4,-7 -1,-2 -3,-5 -4,-7 -26,-36 8,-8 -54,-30 9,-43 7,-17 12,-31 5,-17 4,-25 -11,-50 -19,2 -13,5 -16,5 -36,8 -8,-12 -38,0 17,29 11,28 -20,74 -19,29 -45,67 -75,82 -29,-41 3,-69 16,-112 16,-53 34,-46 38,-98 -79,-6 -95,58 -145,97l-73 45c-23,15 -39,35 -65,51l-142 92c-49,33 -99,58 -151,82 -62,28 -108,50 -164,78l-405 160c-50,24 -10,1 -35,28 -17,18 -3,8 -27,21 20,8 23,10 39,22 20,-2 41,-3 61,-4 83,-3 171,2 243,12 72,10 129,25 181,54 51,29 97,73 154,166 57,93 125,237 197,424 72,187 148,419 190,555 30,99 43,147 47,177zm-1123 -1379c-16,1 -32,1 -48,3 -53,5 -70,7 -76,14 46,-7 86,-13 124,-17z"/>
    <path class="fil21" d="M3789 10238c49,49 8,58 -2,66 -1,1 -4,2 -6,4 3,11 5,26 7,35 5,17 0,5 7,21 6,13 6,12 12,19l5 -27c7,5 49,70 51,74 89,-26 268,-152 335,-214 34,-31 64,-48 99,-80 102,-90 145,-155 217,-232 30,-32 115,-101 133,-141 20,-24 -10,33 10,-19l-17 -10c-33,-17 -41,-36 -77,-40 30,0 17,7 24,-14 16,-50 -8,-36 -10,-38 -26,9 -12,0 -25,22 -9,16 -1,29 -58,34l-21 -38 -44 26c-6,-73 17,18 26,-58l-62 -4c-16,-27 -11,-34 -29,-52l-26 -38c-1,-4 -2,-5 -3,-8 -21,14 -5,4 -21,18l-37 26c-48,18 -5,-17 -77,-22l-75 -2c3,35 10,37 1,59l-9 12c13,8 25,12 33,25l-78 -22c-24,-10 23,0 -19,-5l12 14c1,2 4,4 5,6 1,1 3,4 4,5 13,21 -31,5 -55,4 -8,33 -3,55 -45,54 6,-57 29,3 23,-57l-37 -91c-16,-26 0,-29 -14,-84 -28,4 -19,3 -36,15l-19 19c-1,-2 -3,3 -5,5l18 42c-8,-1 -26,-9 -27,-9 -35,-1 -38,27 -75,27 12,-32 15,-31 -3,-55 -65,2 -34,-6 -54,36 -23,-7 -34,-16 -50,-27 0,-48 -8,-60 -8,-98 -2,2 -3,5 -5,7l-18 50c-29,-38 -22,-21 -23,-84 -2,2 -5,4 -6,5l-13 9c-14,8 -4,4 -20,7 -56,-65 -57,-19 -60,-15 19,-48 -9,-38 -23,-43l35 125c10,28 -1,-4 11,23l25 48c35,44 25,91 42,145 18,58 7,51 38,106 18,33 25,75 37,115 10,32 33,62 44,98l57 161c11,50 12,53 -17,64z"/>
   </g>
   <g>
    <path class="fil22" d="M380 5944c22,3 34,4 44,21 62,29 131,58 204,86 152,58 322,110 465,158 143,49 259,94 361,147 6,3 12,6 18,9 69,35 139,75 200,123 13,9 25,17 36,26 51,37 89,66 114,86 15,9 27,15 36,17 44,15 74,73 118,98 52,30 171,163 207,207 25,31 60,110 132,181 46,45 70,111 113,193 22,43 33,110 97,108 56,-2 114,-63 154,0 -6,23 1,14 -21,26 -33,1 -24,12 -48,20 -123,38 -344,39 -470,24 -44,-5 -77,-17 -129,-26 -20,-3 -87,-21 -112,-29 -78,-25 -132,-48 -206,-77 -40,-15 -74,-25 -114,-42 -252,-103 -357,-91 -631,-91 -97,0 -177,-23 -199,94 68,-72 47,-87 199,-87 51,0 244,-14 285,24 -73,0 -260,-8 -313,11 -13,49 -6,99 -17,141 -44,160 9,121 69,165l46 36c32,17 22,1 79,27 54,25 57,7 98,28 2,1 4,3 5,4l107 36c56,17 55,25 88,29 111,13 68,19 127,27 42,6 38,-9 50,18 -49,24 -131,-24 -187,-27 10,10 12,23 57,33 165,36 119,23 283,84 24,9 65,21 89,40 43,18 93,40 140,65 61,32 119,69 173,108 65,41 141,96 183,136 38,15 36,32 61,54 6,6 20,16 28,26 15,18 10,10 14,31 29,7 41,26 57,51 4,8 88,84 124,116 22,17 44,33 68,50 107,75 234,143 332,186 32,14 61,25 87,35 36,10 67,15 89,12 41,0 147,47 250,25 12,-3 22,-8 38,-10 35,-3 15,-5 34,7 -27,54 -162,40 -203,52 -10,46 84,230 96,289 -1,2 -1,5 -1,9 77,211 190,514 261,706 15,40 28,75 39,105l75 195c52,30 27,52 29,98 30,-12 28,-15 17,-64l-57 -161c-11,-36 -34,-66 -44,-98 -12,-40 -19,-82 -37,-115 -30,-54 -20,-47 -38,-106 -17,-54 -7,-101 -42,-145l-25 -48c-12,-26 -1,5 -11,-23l-35 -125c14,5 42,-5 23,43 3,-5 4,-50 60,15 16,-3 6,1 20,-7l13 -9c2,-1 4,-4 6,-5 1,63 -6,47 23,84l18 -50c1,-2 3,-5 5,-7 0,38 8,50 8,98 16,11 27,20 50,27 20,-42 -11,-34 54,-36 18,24 15,22 3,55 38,1 40,-28 75,-27 1,0 19,7 27,9l-18 -42c2,-2 4,-7 5,-5l19 -19c17,-12 8,-11 36,-15 14,55 -2,58 14,84l37 91c6,60 -17,0 -23,57 43,1 37,-21 45,-54 25,0 68,17 55,-4 -1,-1 -3,-4 -4,-5 -1,-2 -3,-4 -5,-6l-12 -14c42,4 -5,-5 19,5l78 22c-8,-13 -20,-17 -33,-25l9 -12c9,-21 3,-24 -1,-59l75 2c72,5 28,41 77,22l37 -26c16,-14 1,-4 21,-18 2,2 3,4 3,8l26 38c18,18 12,25 29,52l62 4c-9,76 -32,-15 -26,58l44 -26 21 38c58,-5 49,-18 58,-34 13,-22 -1,-13 25,-22 2,2 26,-12 10,38 -7,22 6,14 -24,14 36,4 44,24 77,40l17 10c-20,53 10,-5 -10,19 62,-18 30,-30 101,-90 2,-2 16,-17 17,-18 14,-19 34,-54 46,-72 41,-63 38,-21 56,-70 -30,29 0,14 -40,19l-3 -50c5,-38 4,-17 -7,-40 -16,-33 -43,-69 -42,-102l-26 -9c-12,-57 -133,-267 -141,-304l0 0c-78,-159 -188,-385 -294,-576 -12,-21 -24,-43 -36,-63l4 33c-51,-35 -107,-176 -162,-234 -19,-20 -29,-28 -46,-52l-407 -481c-8,-9 -74,-100 -75,-103 -27,-10 -21,-3 -58,-42 -50,-52 -248,-275 -258,-325 -2,-35 -4,-18 -9,-27 -35,-67 -15,-60 -47,-76 -37,-19 -20,1 -51,-32 -14,-14 -24,-24 -38,-42 -50,-64 -55,-51 -116,-135l-193 -219c-16,-19 -22,-40 -35,-54l-141 -101c-64,-29 -75,-25 -146,-70 -4,-3 -21,-14 -21,-14 -25,-14 -59,-19 -89,-37 -80,-49 -28,-9 -88,-36 -59,-27 -27,-27 -106,-54 -110,-38 -58,-23 -110,-61 -69,-50 -63,-1 -137,-70 -31,-29 -165,-88 -185,-96 -37,-5 -60,-17 -87,-36 -53,-37 -176,-81 -245,-97 -63,-14 -118,-28 -179,-42l-356 -95c-28,-15 -2,-9 -43,-21 -132,-36 5,6 -114,-45 -50,-21 -43,-12 -91,-26 -13,-4 -201,-85 -252,-89 4,54 15,67 8,124 -100,63 -168,40 -208,68l86 58c50,33 77,27 91,50 -47,17 -51,-24 -117,-27 36,19 78,40 126,63z"/>
    <path class="fil22" d="M1203 6712c-7,15 -8,13 -19,16l-11 9c-7,21 6,7 -18,15 -9,28 -21,34 -50,50l-174 141c-38,33 -76,65 -110,95l-1 1c-33,35 -84,83 -112,100 -26,25 -52,50 -77,77l-1 2c-20,63 -13,29 -40,78 44,-5 64,-25 104,-74 89,-109 92,-42 145,-138 86,-10 54,-37 118,-64 34,-15 32,-10 57,-33l141 -126c16,-10 34,-25 50,-41 17,-18 30,-38 45,-53 126,-121 104,-74 271,-75 112,-1 236,14 361,7l-45 -30c-64,-23 -281,3 -378,-5 -76,-7 -95,1 -166,7 -16,-3 -29,0 -40,6 -13,8 -27,19 -49,37z"/>
   </g>
   <path class="fil23" d="M13515 6232c-6,8 -15,18 -28,32 -32,35 -92,95 -149,142 -58,46 -113,79 -183,119 -70,40 -154,87 -225,114 -70,28 -126,36 -154,43 -28,7 -29,12 -36,29 -7,18 -20,48 -31,68 -11,20 -22,31 -27,38 -2,3 -4,5 -3,7 -76,-22 -151,-40 -178,-35l-35 -13c-86,-22 -173,-22 -245,-41 -42,-11 -110,-8 -160,-12 -53,-5 -81,-17 -143,-19 -193,-5 -204,-28 -296,-30l-291 -36c-93,-24 -170,-42 -260,-74 -176,-64 -343,-219 -442,-373l-62 -93c-1,-3 -4,-3 -6,-5 2,-28 -33,-85 -53,-130 -10,-23 -9,-15 -15,-29l-110 -341c-29,-197 -34,-233 -31,-457 1,-56 -2,-144 5,-197 7,-55 31,-98 23,-173l19 -36c18,-57 1,-99 24,-164 17,-47 11,-60 14,-112 3,-57 15,-47 39,-92l4 6 31 -3c30,-38 109,-64 148,-119 10,-9 28,-18 40,-34 36,-21 67,-50 81,-89l-2 7c31,-21 35,-38 60,-66 23,-26 44,-47 57,-78l-1 -11c32,-21 48,-60 66,-96 1,-2 3,-6 4,-8 1,-2 3,-5 4,-8 69,-145 90,-245 85,-423 -4,-174 -7,-83 -24,-162 -5,-25 -2,-37 -10,-63l-80 -180c-17,-42 -40,-60 -64,-86 -27,-28 -52,-51 -87,-62 -53,-12 -118,-44 -242,-23 -85,14 -162,70 -185,78l-27 24c-29,5 -96,79 -122,104 -129,123 -287,146 -454,90 -21,-7 -30,-9 -47,-17 -27,-11 -18,-11 -46,-13l-151 -102c-16,-16 -35,-35 -55,-49 -11,-22 -13,-24 -33,-44 -15,-15 -23,-23 -39,-41 -22,-24 -47,-73 -79,-84l-156 -283c-22,-50 -34,-64 -35,-107 -14,-20 -5,-10 -23,-23l-64 -42c-1,-2 -3,-7 -4,-5 -6,15 -6,-8 -8,-10l-99 -80c-24,-18 -2,-4 -27,-16 -40,-29 -191,-187 -236,-250 -36,-49 -70,-91 -102,-140 -19,-29 -33,-48 -50,-75l-34 -54c-1,-2 -5,-9 -6,-12l-144 -367c-49,-163 -20,-205 -38,-342 -2,-12 -6,-35 -9,-52l-17 -49 8 -5c-3,-42 2,-13 -13,-24 -24,13 -26,27 -44,48 -19,22 -27,21 -42,48l-34 20c-9,8 -18,18 -26,28 -25,28 -38,43 -35,61 -76,48 -296,456 -285,506 -43,32 -72,121 -86,173l-30 110c9,-51 5,-68 -5,-89 -6,-12 -13,-26 -23,-41 4,1 9,2 14,3 27,-77 -23,-337 112,-639 32,-71 63,-108 87,-159l31 -30c15,-22 7,-13 28,-33 39,-37 75,-83 119,-114 29,-20 53,-33 71,-59 33,-12 86,-52 121,-70 40,-20 98,-42 125,-62 72,-19 124,-56 197,-75 39,-10 165,-50 203,-67l312 -90c44,-12 66,-21 102,-30l542 -132c39,-8 85,-4 120,-17 56,-21 170,-25 222,-36 483,-31 582,-83 1078,-1 65,11 63,21 145,21 22,22 53,23 91,27 3,0 7,1 11,2 27,10 54,21 81,33 144,61 289,139 423,231l189 148c121,108 225,227 306,349 100,150 166,305 221,461 55,156 100,314 138,511 38,197 69,434 103,678 34,243 71,493 109,687 38,194 77,333 135,456 58,124 134,232 235,335 63,64 137,127 199,179l0 1984zm-532 705c44,19 91,40 139,63l-137 -63 -2 -1zm-3200 7459c-5,-16 -11,-34 -18,-56 -22,-69 -54,-170 -91,-281l86 224c3,9 19,89 23,113zm-679 -1668c-7,-13 -13,-25 -18,-36 3,3 5,6 8,8 1,4 4,14 10,28zm-60 -104c-15,-15 -25,-12 -41,2l-2 2c3,-4 5,-8 6,-11l27 -16c3,6 7,14 11,23zm-863 742c-81,68 -157,129 -244,193 -39,28 -80,58 -122,87 77,-57 175,-132 202,-164 36,-16 103,-66 165,-115zm-690 487c-14,8 -27,16 -41,24 -47,28 -94,53 -140,78 26,-16 47,-30 56,-34 43,-23 84,-45 124,-67zm-304 165c-14,7 -28,14 -43,20 7,-5 13,-10 19,-16 7,0 15,-2 24,-5zm-164 74c-19,8 -38,16 -58,24l-21 8c28,-13 54,-23 79,-32zm-97 39c-162,63 -338,119 -470,155l-8 2c16,-5 31,-11 44,-15 25,-8 33,-6 57,-16l297 -100 80 -27zm-836 203c-48,-6 -95,-19 -145,-36 50,13 100,24 145,36zm-849 -585l-3 -3 1 1 2 3zm-96 -121c-63,-83 -128,-177 -196,-288l196 288zm-867 -1660c-47,-107 -96,-218 -149,-339 -146,-331 -323,-729 -411,-938 -88,-209 -88,-229 -87,-249 1,-20 3,-39 23,-69 20,-31 56,-73 81,-100 8,-9 15,-16 20,-22 -17,26 -17,10 -23,39 -31,19 -51,56 -72,92 -32,54 -16,65 21,94 1,58 -14,62 20,97 -2,33 17,74 33,100l180 434c11,28 54,112 56,131 6,30 -3,10 10,35 15,27 11,13 20,20 0,26 12,42 24,71 13,33 8,16 17,35 8,18 7,3 8,29 7,44 8,24 25,66 5,13 4,18 13,30 16,23 13,13 22,20 -2,31 133,332 171,423zm-502 -1766c-2,-7 -4,-15 -8,-26 -10,-31 -29,-84 -83,-231l75 195c9,31 16,47 16,63zm-391 -1069l-5 -13c2,1 4,2 6,4 -1,2 -1,5 -1,9zm-108 -305c-6,-19 -8,-22 -10,-25 -6,-6 -20,-7 -62,-17 -28,-6 -69,-17 -124,-36 36,10 67,15 89,12 34,30 35,25 121,38 -6,12 -11,21 -15,28zm-682 -348c-55,-43 -104,-86 -149,-128 7,4 15,8 25,12 4,8 88,84 124,116zm-170 -147c-12,-11 -23,-22 -34,-32 -75,-72 -138,-135 -207,-192 -18,-15 -37,-29 -56,-44 65,41 141,96 183,136 10,17 3,7 12,20 6,8 8,9 13,15l77 75c4,8 7,15 11,21zm-761 -477c-4,4 -10,9 -18,18 5,-6 9,-12 13,-18l4 0zm-42 48c-7,8 -14,17 -23,28 -11,13 -23,29 -37,46 10,-15 17,-24 30,-40 10,-12 20,-23 30,-35zm-93 117l-24 30c1,-2 2,-4 4,-6 7,-11 4,-6 8,-15 5,-4 9,-6 12,-9zm-210 226c-9,5 -19,8 -29,11 -40,11 -91,12 -127,-6 -13,-7 -24,-16 -33,-28 25,25 70,39 142,34 17,-1 33,-5 47,-11zm-214 -119c3,-35 16,-71 36,-107 10,-18 22,-35 33,-52 -8,16 -16,30 -20,44 -23,33 -43,75 -49,115zm123 -320c0,-1 -1,-2 -1,-4l1 0 0 4zm-94 65l-3 3 1 -2 3 -1zm-496 294c-25,-26 -35,-67 -32,-110 3,-43 19,-89 44,-132 -3,7 -7,19 -14,38 -20,57 -40,152 1,205zm22 -258c3,-5 6,-9 9,-14 -5,8 -7,12 -9,14zm56 -148c-33,36 -92,89 -165,138 -73,49 -159,94 -225,111 -65,17 -110,7 -142,-11 -32,-18 -51,-44 -56,-73 -5,-30 4,-63 29,-106 25,-42 67,-94 140,-190 73,-96 178,-235 266,-337 24,-28 47,-54 70,-78l-1 2 -37 40c-14,22 -12,19 -26,37l-171 222c-15,23 -40,46 -62,73 -22,27 -40,47 -61,73 -83,106 -217,247 -90,333 126,85 458,-151 509,-217 8,-10 5,-8 8,-13 3,-1 9,-3 14,-5zm217 -817c63,-54 128,-109 178,-152 -1,2 -2,6 -4,11l-174 141zm224 -191l0 0 0 0 0 0zm97 -78c5,-3 10,-6 16,-8 13,-6 27,-10 49,-12 -12,4 -21,8 -25,14 -16,-3 -29,0 -40,6zm595 -25c16,-2 18,-4 18,-6 1,-4 -4,-10 -27,-30 -5,-4 -11,-9 -17,-14 15,9 27,15 36,17 9,14 9,10 11,32 -7,0 -13,1 -20,1zm-176 -161c-55,-38 -123,-82 -200,-123 69,35 139,75 200,123zm-1619 -746l-1 -1 0 -1 1 2zm-32 -46c-6,-11 -10,-21 -13,-32 -4,-13 -6,-26 -7,-38 5,25 16,48 20,70zm13 -172c12,-13 27,-23 48,-29 40,-12 98,-7 187,15 89,22 209,61 380,115 26,8 53,17 80,25l-305 -82c-100,-30 -177,-77 -293,-75 -41,0 -70,5 -97,32zm953 204l16 5 -6 -1 -10 -4zm252 73c27,7 53,14 76,20 -15,-2 -30,-3 -46,-1 -9,-8 -19,-14 -30,-19zm190 50c33,9 62,17 88,25 70,23 121,51 195,91 17,9 35,19 55,29l-2 0 -335 -145zm1683 989l10 13c27,36 57,75 89,116 -4,-5 -8,-10 -12,-15 -20,-25 -71,-88 -86,-114zm1497 2184l0 0 0 0 0 0zm164 309c17,25 22,24 30,22 9,-2 21,-7 31,-7 3,0 5,0 10,4 -2,0 -4,-1 -7,-2 -11,13 -12,-17 -15,34 -3,49 24,5 28,88 -13,14 21,19 -26,7 5,-38 4,-17 -7,-40 -16,-33 -43,-69 -42,-102l-2 -4zm110 76c17,28 41,69 76,128l20 35c-17,-27 -36,-50 -57,-84 -17,-27 -24,-47 -36,-71l-4 -8zm116 198c16,27 33,57 51,88 -13,-20 -28,-44 -40,-64 -4,-9 -7,-17 -11,-24zm469 819c63,109 123,211 181,308 -4,-5 -9,-11 -16,-21 -50,-67 -57,-96 -89,-155 0,0 -14,-21 -17,-27l-43 -75c-6,-10 -10,-20 -16,-31zm186 317l14 23c-3,-2 -6,-4 -9,-6 -1,-8 -3,-13 -5,-18zm485 736l13 17c-15,-15 0,-3 -9,-7 -1,-4 -2,-7 -3,-10zm209 274l6 8c-1,0 -3,0 -5,-2 -1,-3 -1,-5 -1,-6zm14 18l7 8c-2,-1 -5,-3 -7,-4l0 -5zm76 82c4,3 8,5 12,6l-8 1c-1,-2 -2,-4 -3,-7zm35 4c3,-1 6,-3 9,-5 -1,1 -2,3 -3,5l-5 0zm12 -8c4,-3 8,-6 12,-10l-5 8c-4,2 -6,2 -7,2zm46 -42l6 -6 -2 4 -4 2zm343 -346l11 -12c-2,3 -3,5 -5,8 -2,1 -4,2 -6,4zm34 -38l12 -13c-1,2 -2,5 -3,8 -3,2 -6,4 -9,6zm172 -206l1 -2 0 1 -1 1zm51 -65c30,-38 62,-80 95,-124 0,2 -1,4 -2,7l-59 74c-9,13 -22,31 -34,43zm147 -192c19,-25 37,-50 57,-76 -9,14 -17,28 -23,42 -12,6 -9,-4 -16,22 -9,5 -14,8 -18,11zm85 -115c24,-32 48,-65 72,-99 -3,5 -4,8 -10,16 -12,18 -26,35 -38,51 -7,10 -16,20 -24,31zm83 -114c49,-67 98,-136 147,-206 -9,15 -18,31 -25,46 -10,23 -13,17 -23,35 -17,13 -7,1 -22,21 -12,16 1,-4 -11,22 -11,18 -31,40 -41,56l-25 26zm163 -228c29,-41 57,-82 86,-123 -2,5 -5,11 -12,20 -16,22 -26,30 -39,59l1 12c-14,8 -25,19 -36,32zm102 -146c62,-89 121,-177 177,-261 74,-112 141,-217 202,-316 -2,5 -4,10 -5,14l-4 16c-20,15 -64,92 -79,123 -13,18 -18,24 -34,51 -12,19 -22,30 -36,55l-140 209c-11,15 -62,94 -64,100 -7,4 -12,7 -15,10zm432 -665c23,-38 45,-75 66,-111 0,2 0,5 0,9 -11,18 -47,67 -49,88 -6,4 -11,9 -16,14zm87 -146l12 -21c-3,7 -5,14 -7,20l3 -3c-5,3 -7,4 -9,4zm62 -107l17 -30c-3,7 -5,14 -7,18 -3,4 -7,8 -11,12zm40 -71l4 -7 -1 5c-1,1 -2,2 -3,3zm85 -153l11 -20 4 -8c-4,8 -6,16 -7,23 -3,2 -6,3 -8,5zm39 -72l24 -44 -2 8c-5,10 -13,22 -22,36zm56 -103c34,-63 68,-125 101,-185 -1,4 -2,8 -2,10l-90 171c-4,3 -7,4 -9,4zm307 -542l2 -4 16 -25c-4,9 -7,17 -8,25 -6,3 -9,4 -10,4zm45 -71c13,-21 27,-42 41,-63 -9,20 -26,42 -41,63zm381 -521l2 -3 0 2c-1,0 -1,1 -2,1zm640 -642l4 -4 3 -3c-2,3 -4,6 -5,10l-2 -2zm40 -62c1,-7 2,-14 2,-22 0,-8 -1,-17 -2,-28 5,22 4,37 0,50zm-2328 -2166c-12,-15 -24,-30 -34,-42l-3 -4c3,3 5,5 8,7 12,14 22,27 30,39zm-70 -102c-1,-4 -2,-8 -2,-13 -2,-23 5,-52 12,-78 -2,16 -2,32 -10,61 -3,10 -3,20 -1,30zm25 -138c3,-12 6,-22 5,-29 -1,-13 -11,-19 -26,-30 -15,-11 -35,-26 -55,-48 -20,-22 -40,-50 -50,-74 -10,-25 -10,-46 -3,-72 7,-26 20,-56 36,-88 6,-13 13,-26 19,-39 -2,5 -4,12 -8,20 -15,31 -21,55 -32,83 -31,75 20,125 52,158l9 10c5,5 9,9 14,14 11,10 13,10 24,21 21,20 25,31 21,63 -2,4 -4,8 -6,11zm-52 -430c1,-4 3,-7 4,-11 3,-8 5,-15 6,-23 0,9 0,18 0,26 -4,3 -7,6 -10,8zm8 -121c-6,-21 -15,-41 -28,-56 -1,-2 -3,-4 -5,-5 15,10 25,31 31,51 1,3 2,7 2,11zm-59 -82c-9,-5 -19,-10 -32,-14 16,1 24,0 32,14zm-86 -30c-13,-3 -27,-7 -42,-10 15,3 29,6 42,10zm-129 -558l14 -23c70,-116 161,-270 223,-392 62,-122 94,-211 109,-333 10,-77 12,-167 13,-254 3,115 5,282 -15,338l-29 117 -39 75c-16,41 -23,36 -37,88 -5,15 -16,31 -18,53 -24,12 -12,1 -26,20 -1,1 -13,24 -16,29 -13,21 -23,40 -34,63l4 0c-33,25 -28,27 -48,68l-8 17c-25,24 -66,91 -93,133zm350 -1914c-8,-11 -16,-24 -24,-39l3 1c9,14 15,27 21,38zm2116 581c-35,15 -66,-11 -129,-38 -178,-76 -117,-68 -228,-129 -39,-22 -74,-44 -109,-69 -130,-95 -277,-217 -380,-338 -72,-84 -269,-314 -302,-413 -31,-91 -28,-236 -19,-339 3,-32 59,-223 90,-244l13 -4c16,32 11,44 8,87 -17,206 -4,208 47,360 14,43 23,77 43,117 20,39 39,77 56,115 26,58 87,154 128,204 81,100 109,153 222,270 87,91 340,307 462,363 25,12 91,37 99,58z"/>
   <path class="fil24" d="M7561 1623c-9,-17 -18,-37 -27,-61 -11,-32 -21,-70 -28,-112 6,23 11,45 19,65 9,24 32,85 38,108l-3 -1zm793 -1218c133,-57 288,-112 494,-166 177,-46 391,-92 597,-130 -18,5 -36,12 -59,15l-349 76c-118,32 -268,57 -401,106 -10,4 -19,6 -27,10l-18 12c-31,-1 -148,42 -237,77zm1123 -302c15,-3 31,-6 46,-8 -10,4 -1,0 -14,10 -12,-2 -22,-2 -32,-2zm1154 -95c39,3 78,7 116,12 -45,-4 -82,-8 -116,-12zm130 14c57,8 114,18 174,30 24,5 48,10 73,16l-247 -46zm352 73c85,23 173,51 262,86 -4,-1 -7,-1 -11,-2 -38,-5 -69,-5 -91,-27l-161 -56zm766 350c35,24 69,49 102,75 30,24 59,48 87,73l-189 -148z"/>
   <path class="fil25" d="M11819 6803c-40,18 -156,128 -183,157 -37,40 -110,149 -155,171 -21,49 -59,61 -105,107 -138,138 -254,280 -397,418l-218 194c-102,81 -105,114 -151,154l-289 221c-218,123 -160,117 -412,189 -80,23 -299,31 -386,24 -3,-62 4,-49 26,-101 -48,54 -31,123 -68,196 -25,49 -21,131 -38,179l-47 155c-34,117 -70,219 -85,337 -9,68 -7,-2 -25,112 -4,28 -18,74 -25,105 -27,115 -31,218 -38,243 -20,71 -37,211 -50,291 -8,50 -6,3 -18,49 -7,29 -5,98 -10,135l-61 342c-14,48 -1,88 -14,130 -38,120 -52,368 -57,501 -5,156 -22,183 -25,376 -1,70 -4,69 -18,125 -9,38 -6,83 -9,126 -2,35 -12,96 -17,128 -8,50 -7,235 -20,256 -10,-18 -5,-20 -13,-38 -15,-33 -24,-32 -32,-38l134 484c16,59 10,3 37,63l44 105c1,4 4,14 10,28 25,49 56,116 95,199 64,137 150,320 226,494 76,173 142,337 200,498 17,47 33,94 48,139l86 224c3,9 19,89 23,113l2 7 1160 0c-10,-257 24,-178 23,-268l9 -682c0,-69 10,-120 15,-181 9,-111 10,-293 6,-406 -19,-16 -18,-1 0,-16 4,-68 -2,-150 8,-215 8,-55 21,-127 21,-194 -1,-70 4,-39 19,-81 12,-33 0,-54 16,-93l156 -716c6,-44 16,-50 21,-86l30 -305c0,-167 27,-125 21,-186 -15,-154 8,-451 9,-630 1,-138 11,-539 28,-637 9,-50 16,-134 29,-184 15,-58 12,-119 31,-181l38 -177c14,-70 37,-113 53,-174 43,-168 183,-489 269,-610 10,-14 16,-19 24,-31l67 -94c152,-207 402,-454 627,-572 23,-12 211,-130 228,-46 -37,19 -31,3 -166,80 -146,84 -311,229 -427,343 -63,62 -170,213 -222,290 -29,43 -73,102 -98,154 -17,36 -30,49 -46,79l-147 362c-9,29 -23,83 -32,106 -44,113 -53,290 -89,419 -19,67 -15,155 -28,226 -15,81 -8,168 -13,252 -2,38 -12,70 -12,108 -1,135 -18,826 -2,892 25,101 20,1314 18,1510 -1,84 10,172 8,251 -9,332 5,655 -38,986 -10,79 6,113 -1,171 -5,47 -11,25 -17,50 -13,50 2,192 -5,255 -5,42 -17,47 -18,106 -1,50 -5,83 -7,126l2163 0 0 -7132c-87,-88 -193,-162 -306,-225 -29,-16 -58,-31 -86,-45l-137 -63 -2 -1 -1 0 0 0c-57,-24 -108,-44 -148,-59 -91,-33 -124,-41 -141,-46 -9,-3 -13,-5 -14,-8 -76,-22 -151,-40 -178,-35l-304 -43c-82,-19 -91,3 -153,-8 -59,-10 -101,-27 -158,-18 -20,46 -29,57 -68,83z"/>
   <path class="fil26" d="M6505 12175c23,29 40,246 49,281 41,166 56,254 72,419 15,151 19,243 12,391 -2,39 2,39 -29,48l-87 -551c-3,-85 -20,-217 -34,-292 -6,-32 2,-269 17,-296zm1309 1472c-104,71 -216,143 -324,207 -40,22 -81,44 -124,67 -9,5 -30,18 -56,34 -41,22 -82,43 -124,63 -9,3 -17,4 -24,5 -12,2 -156,59 -166,64 -67,36 -82,31 -117,41 -38,11 -20,3 -34,30l-297 100c-23,10 -32,7 -57,16 -14,5 -29,10 -44,15 -137,38 -225,53 -306,50 -18,-1 -35,-2 -53,-4 -45,-12 -95,-23 -145,-36 -16,-5 -32,-11 -48,-18 -89,-34 -192,-81 -295,-160 -88,-67 -176,-157 -269,-264 -15,-27 -44,-64 -65,-76 -9,-10 -18,-21 -26,-32l-2 -3c-9,-20 -31,-57 -54,-67 -13,-17 -26,-34 -40,-51l-196 -288c-11,-17 -21,-35 -32,-53l-8 -13c-5,-24 -10,-23 -17,-29 -20,-35 -41,-72 -62,-110 0,-3 -2,-7 -8,-18 -4,-7 -7,-11 -9,-14 -49,-91 -98,-187 -146,-286 -7,-22 -19,-41 -30,-62 -2,-4 -4,-7 -5,-9l-16 -33c-9,-25 3,-14 -11,-22 -30,-64 -60,-127 -90,-190 -81,-176 -158,-346 -240,-532 -38,-92 -173,-393 -171,-423 -9,-38 -13,-28 -27,-63l-15 -35c-6,-8 -10,-11 -17,-17 -1,-26 1,-11 -8,-29 -9,-19 -4,-2 -17,-35 -11,-29 -23,-44 -24,-71 -5,-29 -12,-34 -31,-55 -2,-19 -45,-103 -56,-131l-180 -434c-4,-55 -9,-59 -33,-100l-7 -56 94 -8c28,-16 2,2 27,-18l25 -25c-12,-46 -29,-36 -30,-86l5 -27c7,5 49,70 51,74 89,-26 268,-152 335,-214 34,-31 64,-48 99,-80 102,-90 145,-155 217,-232 30,-32 115,-101 133,-141 62,-18 30,-30 101,-90 2,-2 16,-17 17,-18 14,-19 34,-54 46,-72 41,-63 38,-21 56,-70l-11 -98c20,14 12,5 27,25 0,0 14,27 15,29 13,25 17,32 34,56 22,31 43,86 78,108 11,20 26,44 40,64l59 104c-39,12 -9,4 -21,-3 -10,-58 4,-23 -18,-43 -48,53 20,72 68,186 11,25 0,3 10,19 0,0 16,21 20,26l84 147c39,45 26,59 61,111l75 139c2,3 8,16 8,17 35,81 150,284 188,335 2,2 6,8 8,10l13 14c22,29 8,23 28,52l65 88c51,46 7,29 57,95 6,8 15,19 18,24 5,10 5,16 13,32l140 203c1,2 3,4 4,6l125 178c29,47 13,39 64,46 -26,-60 -38,-40 -40,-83 20,28 40,55 59,82 1,3 2,7 3,10 -59,-34 -14,-12 -31,0 4,55 15,54 51,91 19,20 33,55 53,82 17,22 8,4 32,31 51,60 50,98 115,109l-13 -44c2,1 4,2 5,2l3 4 5 6 0 5c16,34 -2,4 12,23 14,20 9,11 19,20l11 7c1,1 4,3 5,4 1,1 3,3 5,4 12,12 6,9 15,20 28,37 17,5 62,73 38,56 176,210 239,299 155,217 311,450 355,719 7,43 18,73 23,114 6,48 2,84 34,95 44,-25 2,-150 -2,-194 -3,-40 0,-84 -5,-119 -32,-244 -216,-562 -384,-745 -62,-68 -170,-160 -193,-184 -39,-43 -13,-39 -80,-31 -6,-12 -4,-2 0,-24 1,-2 2,-4 3,-5l3 -2c1,0 3,0 7,-2 62,24 79,-18 111,-43l87 -74c27,-17 25,-5 56,-26l266 -219c49,-41 2,18 62,-53l911 -972c25,-27 46,-63 72,-90l237 -247c42,-35 47,-19 87,-75 13,-19 19,-34 31,-49 0,-1 16,-15 17,-17 59,-54 70,-94 96,-120l238 -310c16,-22 13,-31 30,-52 15,-19 20,-20 36,-44 13,-19 21,-29 34,-48l93 -146c16,-27 15,-29 37,-50 -9,45 -13,15 -36,140 -6,32 -21,97 -31,131l-39 125c-5,23 -4,53 -9,77 -5,26 -14,39 -18,59 -39,178 -41,224 -92,405 -36,126 -11,28 -27,130 -6,35 -11,23 -19,72l-78 313c-9,57 -20,80 -33,129 -11,43 -22,94 -34,139l-72 412c-10,89 -35,363 -61,442l-106 626c-6,26 -11,33 -15,62 -8,60 -20,87 -30,141 -8,43 -22,96 -27,136 -11,89 -42,169 -75,260l-95 236c-21,44 -63,131 -63,174 0,58 -4,4 -15,59 -27,32 -124,107 -202,164z"/>
   <path class="fil27" d="M7586 3935c55,19 59,63 99,93 -1,22 -3,35 -6,48 -1,6 -4,16 -7,22 -6,15 -4,12 -12,22 -80,3 -109,-5 -166,-53l-32 -50c-36,-20 -19,1 -37,-36 30,-52 87,-48 160,-46zm1266 1834c-16,1 -32,3 -49,5l0 0 0 0c-16,1 -32,2 -48,3 -53,5 -70,7 -76,14l-39 6c-100,15 -226,33 -335,41 -6,0 -13,1 -19,1l-1 0 -11 1c-115,7 -203,2 -278,-9 -11,-2 -21,-3 -32,-5 -17,-5 -31,-10 -49,-10l-3 -1 -53 -30 34 3c-12,-28 -20,-29 -37,-49 -32,-37 -91,-134 -100,-173 -5,-20 -1,-38 -7,-55 -9,-26 -19,16 -26,-99 -6,-105 -3,-423 -22,-497l-57 11c15,-20 -12,-2 22,-20 32,-17 29,2 76,-22 59,-31 107,-63 147,-112 60,-73 54,-7 35,-67 45,-8 91,-17 64,-92 -50,-19 -71,-3 -122,3 -47,6 -86,1 -133,-1l-231 13c5,13 6,1 5,25 -1,22 1,7 -7,20 -5,-44 -4,-29 -43,-51l69 -25c-23,-66 27,-150 36,-186 10,-39 22,-160 1,-187 -16,-20 -52,-65 -80,-74 -17,12 0,-2 -15,13l-5 7c-3,-3 -7,-5 -11,-7 -8,-14 -16,-13 -32,-14 -7,-3 -16,-5 -25,-8 -9,-3 -19,-5 -30,-8 -13,-4 -27,-7 -42,-10 -36,-9 -74,-19 -106,-30 -56,-20 -94,-46 -120,-72 -14,-14 -25,-28 -32,-43 37,-11 20,-20 68,-48 7,-106 39,-131 86,-194l215 -306c21,-33 -4,5 10,-16l50 -85c84,-134 53,-107 97,-182 94,-159 92,-400 72,-582 -4,-38 -4,-83 -13,-124 -11,-53 -3,-59 24,-96 -8,33 -11,32 -16,62 229,10 384,-46 634,68 53,24 98,53 149,82 11,17 3,7 16,20 2,2 8,7 10,9l46 29c29,-2 11,1 24,-22 -11,-34 2,-16 -28,-30 -7,-13 -108,-117 -127,-135 -86,-83 -166,-99 -259,-144 -31,-15 -72,-14 -113,-25 -99,-28 -166,-10 -248,13l8 -1c43,-55 40,0 88,-53l-73 1 32 -82c36,-18 30,3 56,-40l36 -54c34,-41 23,-36 44,-83 1,-2 2,-4 3,-6l118 -195c15,-49 60,-128 87,-182 36,-73 62,-99 70,-147 9,-47 -2,-11 11,-39 24,-51 7,-44 15,-95 11,-77 32,48 20,-189 -3,-63 -21,-128 -18,-197l17 49c3,17 7,41 9,52 18,137 -11,180 38,342l144 367c1,2 5,9 6,12l34 54c17,27 31,46 50,75 32,49 66,91 102,140 46,63 196,220 236,250 21,39 106,104 138,111 15,36 48,55 87,66 1,43 14,57 35,107l156 283c20,42 115,151 151,169 20,14 39,34 55,49 19,29 49,43 73,59 31,21 44,37 78,43 28,2 19,1 46,13 18,8 27,10 47,17 167,55 325,33 454,-90 25,-24 93,-99 122,-104 23,-5 20,3 27,-24 23,-8 100,-64 185,-78 124,-21 189,11 242,23 25,29 52,43 78,71 19,20 48,62 73,76l80 180c8,26 5,38 10,63 17,80 19,-12 24,162 4,178 -16,278 -85,423 -31,18 -60,76 -74,112l1 11c-26,13 -5,-5 -27,18l-37 52c-26,30 -37,35 -52,73l2 -7c-39,21 -14,11 -46,44 -6,6 -14,12 -18,17 -19,23 -4,2 -16,28 -12,16 -30,25 -40,34 -23,10 -33,18 -47,32 -16,-23 8,-18 -29,-16 -27,2 -1,7 -74,40l-86 53c14,9 -4,12 35,9 -51,43 -132,24 -207,28 7,101 171,73 176,74 -4,54 -54,265 -48,299 8,75 -16,118 -23,173 -7,53 -4,140 -5,197 -2,224 2,261 31,457l110 341c6,14 5,5 15,29 19,45 54,103 53,130l-5 37c12,8 9,7 17,17 26,29 26,30 30,59 -7,-29 -6,-4 -32,-53 -36,-68 -97,-167 -117,-226l-39 -87c-17,-31 -5,-18 -12,-49 -8,-34 -4,-11 -14,-31l-10 -33c-17,-96 -18,-6 -32,-116 -6,-50 -15,-33 -22,-74 -6,-38 2,-50 -12,-90l-15 -76c-8,-68 0,-318 -15,-358l-10 109 -53 4c2,2 17,13 17,14 1,1 3,3 5,5 1,1 4,4 5,5l9 12c-10,19 0,3 -12,16l-39 45c-34,28 -27,-1 -30,41 -2,-2 -3,-6 -4,-7 -1,-2 -3,-5 -4,-7 -26,-36 8,-8 -54,-30 9,-43 7,-17 12,-31 5,-17 4,-25 -11,-50 -19,2 -13,5 -16,5 -36,8 -8,-12 -38,0 17,29 11,28 -20,74 -19,29 -45,67 -75,82 -29,-41 3,-69 16,-112 16,-53 34,-46 38,-98 -79,-6 -95,58 -145,97l-73 45c-23,15 -39,35 -65,51l-142 92c-49,33 -99,58 -151,82 -62,28 -108,50 -164,78l-405 160c-50,24 -10,1 -35,28 -17,18 -3,8 -27,21 20,8 23,10 39,22zm-1789 -1794c-6,-13 -9,-26 -9,-41 0,-13 1,-26 5,-42 -3,28 1,60 4,82zm14 -131l2 -4 2 -1 -4 5zm3271 -519c13,-14 24,-36 39,-52 14,-16 36,-32 52,-48l102 -93c219,-144 238,234 265,356 11,48 23,89 -7,127l-36 -92c-16,-59 -52,-227 -98,-269 -55,23 -161,115 -169,175 -8,67 106,145 88,234 -11,52 -31,79 -52,116 -45,81 -59,109 -154,187 -33,27 -58,71 -105,50 6,-37 107,-61 157,-290 21,-97 39,-248 -89,-248 -60,0 -47,20 -88,30 -17,-64 39,-149 94,-180zm-2068 -332c14,27 11,18 7,56l-28 23 -25 -6 3 39c-77,27 -34,31 -83,45 -7,-6 -9,-6 -15,-16 6,39 8,41 -22,60 -49,-10 -104,54 -161,-1 -27,-9 -10,11 -23,-28 -4,-13 -7,-29 -12,-43 -11,-32 -13,-55 -16,-89l-5 -2 -99 -5c-4,-39 -3,-61 56,-81l-1 -6c10,-35 128,-55 171,-55 79,1 135,1 196,32l74 12c-9,20 7,3 -11,16 -7,5 -19,8 -25,10l18 43z"/>
   <path class="fil28" d="M8080 9811c-20,15 -64,92 -79,123 27,1 15,-3 29,7 -11,51 -31,75 -56,106 -47,59 -113,187 -174,264l-83 115c-39,72 -141,199 -200,292l-496 634c-1,1 -3,3 -5,4 -65,64 -37,61 -113,129l-121 130c-29,32 -75,97 -115,94 -43,-3 12,38 -12,-6 -39,32 -79,84 -119,102l-4 2c-11,11 -21,20 -30,28l-4 4 -5 8c62,24 79,-18 111,-43l87 -74c27,-17 25,-5 56,-26l266 -219c49,-41 2,18 62,-53l911 -972c25,-27 46,-63 72,-90l237 -247c42,-35 47,-19 87,-75 13,-19 19,-34 31,-49 0,-1 16,-15 17,-17 59,-54 70,-94 96,-120l238 -310c16,-22 13,-31 30,-52 15,-19 20,-20 36,-44 13,-19 21,-29 34,-48l93 -146c16,-27 15,-29 37,-50 3,-20 75,-265 102,-297 2,-2 3,-4 5,-6l-62 360c-71,302 -114,646 -165,954 -8,47 -18,154 -29,197 -32,126 -62,712 -62,835 0,142 10,284 23,428 6,67 78,345 76,363 8,7 17,5 32,38 8,18 3,20 13,38 13,-21 12,-206 20,-256 5,-31 15,-93 17,-128 2,-43 -1,-88 9,-126 14,-56 17,-55 18,-125 2,-194 20,-220 25,-376 4,-132 19,-381 57,-501 13,-42 -1,-82 14,-130l61 -342c6,-38 3,-106 10,-135 12,-46 10,1 18,-49 13,-80 30,-220 50,-291 7,-26 12,-129 38,-243 7,-31 20,-77 25,-105 18,-114 16,-44 25,-112 16,-118 51,-220 85,-337l47 -155c18,-47 13,-129 38,-179 37,-73 20,-142 68,-196 3,-36 32,-98 45,-129l236 -637c18,-53 34,-76 44,-131 10,-52 33,-64 39,-141 -37,31 -23,54 -47,87 -12,16 -1,7 -17,14 -14,-35 1,-21 -21,-45 -10,29 -6,19 -33,38l-242 234c-50,53 -95,88 -139,138 -25,28 -33,46 -61,72 -35,31 -55,68 -92,113l-68 76c-11,13 -16,25 -25,38 -11,17 -18,26 -32,40 -14,16 -17,16 -31,32 -54,60 -78,123 -103,156l-402 675c-3,8 -8,19 -11,26l-43 89c-17,35 -8,17 -27,46 -9,13 -18,30 -23,40 -15,31 -8,20 -26,45 -44,60 -26,48 -42,94l-5 12c-1,2 -2,4 -3,6 -26,41 -5,-15 -45,70 -7,15 -14,22 -25,38 -18,28 -33,62 -48,85 -22,34 -35,48 -54,82l-42 74c-1,2 -2,4 -3,5l-134 223c-27,38 0,20 -44,32 14,-76 52,-75 57,-127z"/>
   <path class="fil29" d="M1292 6670c71,-6 90,-14 166,-7 97,9 314,-18 378,5l45 30c-125,7 -248,-8 -361,-7 -167,1 -145,-46 -271,75 -15,15 -28,35 -45,53 -15,17 -34,31 -50,41l-141 126c-25,23 -22,18 -57,33 -64,27 -32,54 -118,64 -53,97 -56,29 -145,138 -41,50 -60,69 -104,74 27,-49 20,-16 40,-78l-37 40c-14,22 -12,19 -26,37l-171 222c-15,23 -40,46 -62,73 -22,27 -40,47 -61,73 -83,106 -217,247 -90,333 126,85 458,-151 509,-217 8,-10 5,-8 8,-13 -6,-34 7,-44 31,-57 -6,-35 -7,15 -54,36 -2,-3 -4,-10 -5,-9l-35 -107 5 -212c13,-49 20,-75 50,-112l7 -9c37,-59 64,-134 174,-152 64,-10 62,-6 126,-3 51,3 85,16 134,12 63,-5 60,-32 100,-43 31,-8 105,-6 142,-9 72,-6 414,-108 451,-112 40,-4 228,10 260,21 -31,80 -140,-39 -298,44 -109,58 -115,73 -184,114 -28,16 -38,20 -39,58 32,21 91,20 134,22l147 24c48,14 95,13 139,25 15,4 16,8 24,12 40,19 41,-2 109,23l119 41c47,11 100,26 144,30 32,3 43,-1 74,7 85,21 32,22 135,-2 85,-20 64,12 65,23 21,-12 15,-2 21,-26 -40,-63 -98,-2 -154,0 -64,2 -75,-65 -97,-108 -42,-81 -67,-148 -113,-193 -72,-71 -107,-150 -132,-181 -36,-44 -155,-177 -207,-207 -44,-26 -74,-83 -118,-98 9,14 9,10 11,32 -7,0 -13,1 -20,1 -13,1 -35,2 -74,2 -86,1 -253,-2 -351,-1 -50,0 -83,1 -106,4 -12,4 -21,8 -25,14z"/>
   <path class="fil30" d="M8167 974c-17,35 -63,67 -86,106 52,-16 11,-7 26,7l-138 226c-19,39 -51,78 -91,167l-62 145c-1,3 -4,10 -5,13l-55 141c-1,2 -2,5 -2,7 -27,82 -3,73 -20,116 -12,32 -9,8 -22,33l-15 55c-23,72 0,72 -15,119 0,0 -50,83 -5,153l72 -27c17,25 4,-17 19,36 43,-55 40,0 88,-53l-73 1 32 -82c36,-18 30,3 56,-40l36 -54c34,-41 23,-36 44,-83 1,-2 2,-4 3,-6l118 -195c15,-49 60,-128 87,-182 36,-73 62,-99 70,-147 9,-47 -2,-11 11,-39 24,-51 7,-44 15,-95 11,-77 32,48 20,-189 -3,-63 -21,-128 -18,-197l8 -5c-36,1 -7,-13 -32,13 -5,5 -9,16 -18,26 -13,14 -26,25 -49,32z"/>
   <path class="fil31" d="M7787 1588c-10,49 -1,7 -21,49 -34,69 -33,92 -51,135 -36,87 -29,113 -41,153 -7,21 -10,24 -23,34 -10,45 -22,97 -31,151 -16,93 -22,191 -25,316 -1,46 -1,97 -2,148 3,115 5,282 -15,338l-29 117c-5,39 -36,116 -58,146 -14,18 -1,4 -19,18 -5,15 -16,31 -18,53 -11,34 -21,39 -36,64 -22,36 -2,27 -40,47l4 0c-5,24 -12,33 -20,46 -15,23 -11,23 -36,39 -25,24 -66,91 -93,133 -53,87 -94,151 -123,202 -1,6 -2,5 -10,20 -1,2 -1,2 -2,2l-3 5c-3,6 -6,11 -8,16 -3,7 -6,15 -7,18l-4 5c-8,18 -14,34 -18,49 -3,28 1,60 4,82l1 2c37,-11 20,-20 68,-48 7,-106 39,-131 86,-194l215 -306c21,-33 -4,5 10,-16l50 -85c84,-134 53,-107 97,-182 94,-159 92,-400 72,-582 -4,-38 -4,-83 -13,-124 -11,-53 -3,-59 24,-96 7,-9 12,-16 16,-23 13,-26 19,-28 43,-42l29 -9 8 -1c-15,-52 -2,-11 -19,-36l-72 27c-45,-70 4,-153 5,-153 15,-47 -8,-48 15,-119l15 -55c13,-24 10,0 22,-33 16,-43 -7,-34 20,-116 1,-2 2,-5 2,-7l55 -141c1,-3 4,-10 5,-13l62 -145c40,-89 72,-128 91,-167l138 -226c-16,-14 26,-23 -26,-7l-9 3c-76,48 -296,456 -285,506z"/>
   <path class="fil32" d="M10439 3224c61,-23 132,-122 199,-115 38,4 49,27 58,52 -47,-4 -45,-10 -82,8 -125,61 -151,98 -242,206l-39 41c-27,37 -1,37 -63,37 18,-67 54,-65 78,-128 -56,31 -111,116 -94,180 41,-10 28,-30 88,-30 128,0 111,151 89,248 -50,229 -152,253 -157,290 47,21 71,-23 105,-50 95,-78 108,-106 154,-187 21,-38 41,-64 52,-116 18,-88 -96,-166 -88,-234 8,-61 113,-152 169,-175 46,42 82,210 98,269l36 92c29,-37 18,-79 7,-127 -28,-122 -46,-500 -265,-356l-102 93z"/>
   <path class="fil33" d="M7763 2271l-29 9c-11,23 -1,12 -17,27 -14,14 -17,10 -26,15 -4,7 -9,13 -16,23 -8,33 -11,32 -16,62 229,10 384,-46 634,68 53,24 98,53 149,82 49,21 32,32 81,38 -3,-7 -10,-26 -13,-32 -7,-13 -108,-117 -127,-135 -86,-83 -166,-99 -259,-144 -31,-15 -72,-14 -113,-25 -99,-28 -166,-10 -248,13z"/>
   <path class="fil34" d="M7491 4677c3,1 20,9 21,9 14,7 6,2 17,10 25,18 6,7 34,28l190 -51c26,-11 50,-28 79,-35 32,-8 73,-15 107,-20 37,1 17,-5 35,16 -4,34 -9,31 -32,41l-40 22c-81,23 -245,59 -324,37l-19 51c-2,4 -4,8 -6,11 -3,10 -7,21 -11,34 -1,5 -3,9 -4,14 -2,16 -2,32 -10,61 -3,10 -3,20 -1,30 5,20 16,36 33,55 3,3 5,5 8,7 -16,-29 -31,-33 -24,-77l100 6c15,-20 -12,-2 22,-20 32,-17 29,2 76,-22 59,-31 107,-63 147,-112 60,-73 54,-7 35,-67 45,-8 91,-17 64,-92 -50,-19 -71,-3 -122,3 -47,6 -86,1 -133,-1l-231 13c5,13 6,1 5,25 -1,22 1,7 -7,20 -5,-44 -4,-29 -43,-51 -33,-58 -12,-65 3,-130 11,-47 40,-96 52,-133 -4,3 -7,6 -10,8 -6,16 -14,33 -22,50 -2,5 -4,12 -8,20 -15,31 -21,55 -32,83 -31,75 20,125 52,158z"/>
   <path class="fil35" d="M7858 2936l1 6c-34,56 -38,-1 -44,64 16,0 38,-4 52,-2 28,4 27,14 35,24l5 2c16,16 4,-4 14,19 1,1 4,19 5,23 5,20 5,14 9,32 9,36 5,49 21,86 57,56 112,-8 161,1 19,-63 -7,-116 13,-184 24,3 71,14 84,43l19 15 25 6 28 -23c3,-37 6,-29 -7,-56 -57,-34 -19,-35 -55,-80 -108,20 -256,-28 -367,23z"/>
   <path class="fil36" d="M6505 12175c-15,27 -23,264 -17,296 14,76 31,208 34,292l87 551c31,-9 28,-8 29,-48 7,-148 2,-241 -12,-391 -16,-166 -30,-253 -72,-419 -9,-36 -26,-252 -49,-281z"/>
   <path class="fil37" d="M21 5698c9,7 7,-3 23,21 10,15 6,2 8,24l0 0 0 -1c50,32 51,58 86,32 -10,-10 -39,-26 -56,-49 -28,-40 -40,-114 -15,-151 4,-6 16,-18 26,-24 21,-13 -2,-9 33,-8l331 78c37,18 52,13 79,20 18,5 112,44 159,51 45,7 38,14 82,24 34,7 124,48 188,62 89,19 -6,25 152,25 -7,-21 -4,-31 -55,-45 -16,-4 -44,-11 -66,-20l-10 -4c-86,-26 -176,-53 -258,-79l-305 -82c-100,-30 -177,-77 -293,-75 -41,0 -70,5 -97,32 -11,12 -19,26 -25,41 -7,19 -10,39 -9,60 5,25 16,48 20,70l0 0z"/>
   <path class="fil38" d="M668 7895c-5,8 -7,12 -9,14l-3 5c-2,4 -4,7 -7,11 -3,7 -7,19 -14,38 -20,57 -40,152 1,205 2,2 4,4 6,6 29,26 75,34 117,34 42,1 80,-6 114,-29 34,-22 64,-60 92,-102 28,-41 54,-86 77,-117 7,-9 13,-17 20,-24 19,-29 37,-44 67,-63 6,-19 -2,-4 11,-23 8,-10 4,-4 14,-14l30 -34c-37,2 -40,5 -62,28 -61,65 -18,22 -62,55 -25,18 -91,123 -109,151 -38,59 -83,133 -166,133 -141,0 -133,-56 -121,-164 8,-73 25,-56 34,-109 -12,-11 18,-9 -25,-10 -2,3 -4,6 -6,8z"/>
   <path class="fil39" d="M3756 10250c31,7 11,-10 26,13 -11,46 -39,55 -61,93 -47,80 -16,81 -49,98 -62,-29 -4,-62 32,-115l7 -11c1,-2 2,-4 3,-6l17 -30c-31,19 -51,56 -72,92 -32,54 -16,65 21,94 38,6 25,1 55,1 63,-1 41,0 50,33 28,-16 2,2 27,-18l25 -25c-12,-46 -29,-36 -30,-86 -6,-8 -6,-6 -12,-19 -7,-15 -2,-3 -7,-21 -3,-10 -5,-24 -7,-35 2,-2 5,-3 6,-4 10,-8 51,-17 2,-66 -2,-46 23,-68 -29,-98 9,31 16,47 16,63 4,16 3,21 -1,27 -3,5 -9,11 -18,20z"/>
   <path class="fil40" d="M7463 4017l32 50c57,48 87,56 166,53 7,-10 6,-7 12,-22 3,-6 5,-16 7,-22 3,-12 4,-25 6,-48 -40,-30 -44,-74 -99,-93l16 16c2,2 7,8 9,10 19,25 7,5 17,31 -36,0 -51,-17 -66,-2 -22,21 6,20 -17,53 -68,4 -29,-3 -82,-26z"/>
   <path class="fil41" d="M7858 2936c111,-51 259,-3 367,-23 -61,-30 -118,-31 -196,-32 -43,-1 -161,20 -171,55z"/>
   <path class="fil42" d="M8140 3133c6,10 8,10 15,16 50,-14 6,-18 83,-45l-3 -39 -19 -15c-48,-14 -20,-21 -81,-23l6 104z"/>
   <path class="fil43" d="M3731 10292l-17 30c-1,2 -2,4 -3,6l-7 11c-36,53 -94,86 -32,115 33,-18 2,-18 49,-98 22,-38 50,-47 61,-93 -16,-23 5,-6 -26,-13l-3 3c-17,26 -17,10 -23,39z"/>
   <path class="fil44" d="M7079 3840l2 -1c1,-3 4,-12 7,-18 -3,7 -6,13 -9,19zm21 -40c1,0 1,0 2,-2 8,-15 9,-14 10,-20 -4,7 -8,15 -12,21z"/>
   <path class="fil45" d="M7328 3443c25,-16 22,-16 36,-39 8,-13 15,-22 20,-46 -33,25 -28,27 -48,68l-8 17z"/>
  </g>
 </g>
</svg>
