<svg xmlns="http://www.w3.org/2000/svg" width="320" height="128" viewBox="0 0 320 128">
  <rect x="0" y="0" width="128" height="128" rx="24" fill="#002b5c"/>
  <g fill="#ffffff">
    <rect x="32" y="40" width="64" height="12" rx="6"/>
    <rect x="32" y="58" width="64" height="12" rx="6"/>
    <rect x="32" y="76" width="64" height="12" rx="6"/>
  </g>
  <path d="M144,84 h12 v-36 h-12 z M160,84 h12 v-36 h-12 z M176,84 h12 v-36 h-12 z M192,84 h12 v-36 h-12 z M208,84 h12 v-36 h-12 z M224,84 h12 v-36 h-12 z M240,84 h12 v-36 h-12 z" fill="#002b5c"/>
  <circle cx="204" cy="56" r="6" fill="#f4a261"/>
</svg>
