<svg xmlns="http://www.w3.org/2000/svg" width="400" height="128" viewBox="0 0 400 128">
  <rect x="0" y="0" width="400" height="128" fill="#002b5c"/>
  <rect x="0" y="0" width="128" height="128" rx="24" fill="#ffffff"/>
  <g fill="#002b5c">
    <rect x="32" y="40" width="64" height="12" rx="6"/>
    <rect x="32" y="58" width="64" height="12" rx="6"/>
    <rect x="32" y="76" width="64" height="12" rx="6"/>
  </g>
  <path d="M144.2,84.1c-2.7,0-4.9-2.2-4.9-4.9V48.8c0-2.7,2.2-4.9,4.9-4.9h10.3c2.7,0,4.9,2.2,4.9,4.9v30.4c0,2.7-2.2,4.9-4.9,4.9h-10.3z
           M164.2,84.1c-2.7,0-4.9-2.2-4.9-4.9V48.8c0-2.7,2.2-4.9,4.9-4.9h10.3c2.7,0,4.9,2.2,4.9,4.9v30.4c0,2.7-2.2,4.9-4.9,4.9h-10.3z
           M184.2,84.1c-2.7,0-4.9-2.2-4.9-4.9V48.8c0-2.7,2.2-4.9,4.9-4.9h10.3c2.7,0,4.9,2.2,4.9,4.9v30.4c0,2.7-2.2,4.9-4.9,4.9h-10.3z
           M204.2,84.1c-2.7,0-4.9-2.2-4.9-4.9V48.8c0-2.7,2.2-4.9,4.9-4.9h10.3c2.7,0,4.9,2.2,4.9,4.9v30.4c0,2.7-2.2,4.9-4.9,4.9h-10.3z
           M224.2,84.1c-2.7,0-4.9-2.2-4.9-4.9V48.8c0-2.7,2.2-4.9,4.9-4.9h10.3c2.7,0,4.9,2.2,4.9,4.9v30.4c0,2.7-2.2,4.9-4.9,4.9h-10.3z
           M244.2,84.1c-2.7,0-4.9-2.2-4.9-4.9V48.8c0-2.7,2.2-4.9,4.9-4.9h10.3c2.7,0,4.9,2.2,4.9,4.9v30.4c0,2.7-2.2,4.9-4.9,4.9h-10.3z
           M264.2,84.1c-2.7,0-4.9-2.2-4.9-4.9V48.8c0-2.7,2.2-4.9,4.9-4.9h10.3c2.7,0,4.9,2.2,4.9,4.9v30.4c0,2.7-2.2,4.9-4.9,4.9h-10.3z" fill="#ffffff"/>
  <circle cx="209.5" cy="42.5" r="6" fill="#f4a261"/>
</svg>
