<?xml version="1.0" encoding="UTF-8" standalone="no"?>
<!-- Created with Inkscape (http://www.inkscape.org/) -->

<svg
   width="100mm"
   height="26mm"
   viewBox="0 0 100 26"
   version="1.1"
   id="svg1"
   inkscape:version="1.4.2 (f4327f4, 2025-05-13)"
   sodipodi:docname="tyniweb_LOGO_Nov_2025_WhiteOnX.svg"
   xmlns:inkscape="http://www.inkscape.org/namespaces/inkscape"
   xmlns:sodipodi="http://sodipodi.sourceforge.net/DTD/sodipodi-0.dtd"
   xmlns="http://www.w3.org/2000/svg"
   xmlns:svg="http://www.w3.org/2000/svg">
  <sodipodi:namedview
     id="namedview1"
     pagecolor="#ffffff"
     bordercolor="#000000"
     borderopacity="0.25"
     inkscape:showpageshadow="2"
     inkscape:pageopacity="0.0"
     inkscape:pagecheckerboard="0"
     inkscape:deskcolor="#d1d1d1"
     inkscape:document-units="mm"
     inkscape:zoom="1.8974405"
     inkscape:cx="226.62107"
     inkscape:cy="76.682246"
     inkscape:window-width="1911"
     inkscape:window-height="1739"
     inkscape:window-x="229"
     inkscape:window-y="532"
     inkscape:window-maximized="0"
     inkscape:current-layer="layer1" />
  <defs
     id="defs1">
    <inkscape:path-effect
       effect="fillet_chamfer"
       id="path-effect26"
       is_visible="true"
       lpeversion="1"
       nodesatellites_param="F,0,0,1,0,1.48552,0,1 @ F,0,0,1,0,1.48553,0,1 @ F,0,0,1,0,1.47589,0,1 @ F,0,0,1,0,1.47588,0,1"
       radius="0"
       unit="px"
       method="auto"
       mode="F"
       chamfer_steps="1"
       flexible="false"
       use_knot_distance="true"
       apply_no_radius="true"
       apply_with_radius="true"
       only_selected="false"
       hide_knots="false" />
  </defs>
  <g
     inkscape:label="Layer 1"
     inkscape:groupmode="layer"
     id="layer1"
     transform="translate(-55,-135.5)">
    <g
       id="g27"
       transform="translate(-0.317602,-24.29644)"
       inkscape:label="tyniweb_Logo">
      <path
         id="path34"
         style="font-size:19.7556px;font-family:'Swis721 BdRnd BT';-inkscape-font-specification:'Swis721 BdRnd BT, Normal';text-align:center;text-anchor:middle;fill:#f4f7fa;fill-opacity:1;stroke-width:0"
         d="m 143.0784,163.47347 c -0.45016,0 -0.79065,0.13219 -1.02216,0.39585 -0.22508,0.25724 -0.33797,0.64595 -0.33797,1.16685 v 11.45977 c 0,0.5209 0.11289,0.91013 0.33797,1.16737 0.23151,0.25723 0.57877,0.38602 1.04179,0.38602 0.40515,0 0.72009,-0.11288 0.94517,-0.33796 0.23152,-0.22508 0.34726,-0.54002 0.34726,-0.94517 v -0.30851 c 0.40514,0.61736 0.85513,1.06736 1.35031,1.35031 0.50161,0.28296 1.09002,0.42426 1.76526,0.42426 1.2926,0 2.34117,-0.51124 3.14503,-1.53375 0.80385,-1.02251 1.20561,-2.36334 1.20561,-4.0225 0,-1.67202 -0.40176,-3.02875 -1.20561,-4.07055 -0.80386,-1.04822 -1.83939,-1.57251 -3.10627,-1.57251 -0.67524,0 -1.2733,0.13843 -1.7942,0.41496 -0.5209,0.27653 -0.95499,0.69132 -1.30225,1.24437 v -3.65611 c 0,-0.5209 -0.11576,-0.90961 -0.34727,-1.16685 -0.22508,-0.26366 -0.56608,-0.39585 -1.02267,-0.39585 z m -60.45316,0.92605 c -0.463022,0 -0.810287,0.13217 -1.041797,0.39584 -0.22508,0.25723 -0.337447,0.64595 -0.337447,1.16685 v 1.42782 h -0.45372 c -0.37299,0 -0.655602,0.0834 -0.848527,0.25063 -0.186496,0.16078 -0.280086,0.40532 -0.280086,0.73329 0,0.32798 0.09359,0.57539 0.280086,0.74259 0.192925,0.16077 0.475537,0.24133 0.848527,0.24133 h 0.45372 v 5.67149 c 0,1.18328 0.212217,1.98391 0.636653,2.40192 0.424437,0.41157 1.192747,0.61702 2.305286,0.61702 0.67524,0 1.167197,-0.0993 1.475879,-0.29869 0.308681,-0.20579 0.463021,-0.53376 0.463021,-0.98392 0,-0.30225 -0.08682,-0.53715 -0.26045,-0.70435 -0.173633,-0.17364 -0.414789,-0.26045 -0.72347,-0.26045 -0.07717,0 -0.167373,0.003 -0.270267,0.01 -0.102892,0.007 -0.173287,0.0103 -0.211874,0.0103 -0.23151,0 -0.392626,-0.0448 -0.482658,-0.13487 -0.0836,-0.09 -0.125057,-0.26418 -0.125057,-0.52142 v -5.80688 h 0.713652 c 0.37299,0 0.652731,-0.0806 0.839225,-0.24133 0.186496,-0.1672 0.27957,-0.41461 0.27957,-0.74259 0,-0.3344 -0.09307,-0.58182 -0.27957,-0.74259 -0.180064,-0.16077 -0.459804,-0.24133 -0.839225,-0.24133 h -0.713652 v -1.418 c -0.01286,-0.52733 -0.138263,-0.91944 -0.376204,-1.17667 -0.231511,-0.26367 -0.582163,-0.39584 -1.051615,-0.39584 z m 21.41471,2.61431 c -0.68167,0 -1.29903,0.15772 -1.85208,0.47284 -0.54662,0.30868 -0.99373,0.75527 -1.341,1.34048 l -0.0382,-0.34726 c -0.0322,-0.44373 -0.15469,-0.76832 -0.36691,-0.9741 -0.20579,-0.21222 -0.514464,-0.31833 -0.926039,-0.31833 -0.469452,0 -0.819587,0.13165 -1.051098,0.39532 -0.231511,0.26366 -0.347266,0.65916 -0.347266,1.1865 v 7.72666 c 0,0.51446 0.115755,0.9037 0.347266,1.16737 0.237942,0.25723 0.588076,0.38602 1.051098,0.38602 0.469455,0 0.820119,-0.12879 1.051619,-0.38602 0.23795,-0.26367 0.35708,-0.65291 0.35708,-1.16737 v -4.84209 c 0,-0.68168 0.19293,-1.21899 0.57878,-1.61127 0.38585,-0.39871 0.90961,-0.59789 1.57199,-0.59789 0.57235,0 0.98427,0.1606 1.23507,0.48214 0.25724,0.32155 0.38551,0.85886 0.38551,1.61127 v 4.95784 c 0,0.51446 0.11575,0.9037 0.34726,1.16737 0.23794,0.25723 0.58859,0.38602 1.05162,0.38602 0.46945,0 0.8201,-0.12879 1.05161,-0.38602 0.23795,-0.26367 0.35657,-0.65291 0.35657,-1.16737 v -5.76813 c 0,-1.2283 -0.29225,-2.15433 -0.87747,-2.77812 -0.5852,-0.62379 -1.44711,-0.93586 -2.58537,-0.93586 z m 30.73301,0 c -1.51769,0 -2.71382,0.49533 -3.58841,1.48569 -0.8746,0.99035 -1.31155,2.3437 -1.31155,4.06074 0,1.74277 0.44373,3.12556 1.33119,4.14807 0.88746,1.01607 2.08985,1.52393 3.60753,1.52393 0.74598,0 1.43424,-0.11575 2.06447,-0.34726 0.63665,-0.22508 1.17972,-0.54967 1.62988,-0.9741 0.23152,-0.22508 0.40226,-0.44356 0.51159,-0.65578 0.11575,-0.21864 0.17364,-0.43763 0.17364,-0.65629 0,-0.30224 -0.10611,-0.55305 -0.31833,-0.75241 -0.20579,-0.20579 -0.46624,-0.3085 -0.78135,-0.3085 -0.35369,0 -0.76848,0.2156 -1.24437,0.64647 -0.0836,0.0772 -0.1511,0.13793 -0.20257,0.18293 -0.20579,0.17364 -0.44407,0.3058 -0.71417,0.39584 -0.27009,0.09 -0.56574,0.13488 -0.88728,0.13488 -0.70096,0 -1.2474,-0.2156 -1.63969,-0.64647 -0.38586,-0.43087 -0.59523,-1.05789 -0.62736,-1.88103 h 5.20899 0.2992 c 0.66881,0 1.08699,-0.0834 1.25419,-0.25063 0.16721,-0.17364 0.25063,-0.49196 0.25063,-0.95498 0,-1.56913 -0.45676,-2.81975 -1.36994,-3.75222 -0.90676,-0.93248 -2.12218,-1.39888 -3.64629,-1.39888 z m -39.838911,0.15451 c -0.340836,0 -0.623964,0.10272 -0.849044,0.30851 -0.22508,0.20579 -0.395324,0.52411 -0.51108,0.95498 l -1.881022,6.52105 -1.919779,-6.48229 c -0.128618,-0.45016 -0.308508,-0.77527 -0.540019,-0.97462 -0.22508,-0.20579 -0.524113,-0.30851 -0.897103,-0.30851 -0.392283,0 -0.723642,0.13165 -0.993738,0.39532 -0.270096,0.25723 -0.405143,0.57896 -0.405143,0.9648 0,0.12862 0.0096,0.25402 0.02894,0.37621 0.02573,0.12219 0.06092,0.24133 0.105937,0.35708 l 3.222025,9.06715 -0.125574,0.39584 c -0.09003,0.3537 -0.227949,0.60737 -0.414445,0.76171 -0.180064,0.16078 -0.476226,0.27028 -0.887801,0.32815 -0.430868,0.0643 -0.736159,0.18006 -0.916223,0.34726 -0.180064,0.17364 -0.270268,0.4307 -0.270268,0.77153 0,0.40515 0.144694,0.70131 0.434082,0.8878 0.289389,0.1865 0.746149,0.27957 1.369943,0.27957 0.75241,0 1.369768,-0.19293 1.852083,-0.57877 0.488745,-0.37943 0.871207,-0.9741 1.147734,-1.78439 l 3.656107,-10.55336 c 0.05788,-0.1672 0.09985,-0.31816 0.125574,-0.4532 0.03215,-0.13506 0.04806,-0.25419 0.04806,-0.35709 0,-0.37298 -0.125402,-0.66864 -0.376205,-0.88728 -0.250804,-0.22508 -0.585034,-0.33745 -1.003039,-0.33745 z m 32.421281,0 c -0.3151,1e-5 -0.58861,0.10899 -0.82011,0.32763 -0.22508,0.21865 -0.38568,0.52445 -0.48214,0.91674 l -1.45676,6.24096 -1.264,-5.98051 c -0.12862,-0.57878 -0.3085,-0.9714 -0.54002,-1.17719 -0.2315,-0.20579 -0.62074,-0.30851 -1.16737,-0.30851 -0.53376,0 -0.91962,0.10611 -1.15756,0.31833 -0.23151,0.20578 -0.40513,0.59502 -0.52089,1.16737 l -1.1865,5.98051 -1.45624,-6.18308 c -0.0965,-0.42444 -0.26045,-0.74276 -0.49196,-0.95498 -0.22508,-0.21865 -0.51447,-0.32815 -0.86816,-0.32815 -0.37942,0 -0.69775,0.12879 -0.95498,0.38602 -0.25081,0.25724 -0.37621,0.58182 -0.37621,0.9741 0,0.0965 0.01,0.20596 0.0289,0.32815 0.0193,0.12219 0.0511,0.25724 0.0961,0.40514 l 2.05466,7.3117 c 0.16721,0.61094 0.36012,1.00643 0.57877,1.18649 0.21865,0.18007 0.6045,0.27027 1.15755,0.27027 0.59164,0 0.99678,-0.0936 1.21543,-0.28009 0.22508,-0.19292 0.39871,-0.58503 0.5209,-1.17667 l 1.34101,-6.22184 1.42782,6.22184 c 0.13505,0.57878 0.31493,0.96802 0.54001,1.16737 0.22508,0.19293 0.61094,0.28939 1.15756,0.28939 0.54662,0 0.92621,-0.0936 1.13843,-0.28009 0.21864,-0.1865 0.41157,-0.5786 0.57877,-1.17667 l 2.07378,-7.38921 c 0.0515,-0.19293 0.0872,-0.34727 0.10645,-0.46302 0.0193,-0.11576 0.0289,-0.21848 0.0289,-0.30851 0,-0.39228 -0.11574,-0.70096 -0.34726,-0.92604 -0.22507,-0.22507 -0.54343,-0.33744 -0.95498,-0.33745 z m -15.97474,0.0191 c -0.46945,0 -0.82297,0.13165 -1.06092,0.39532 -0.23151,0.26366 -0.34726,0.65916 -0.34726,1.1865 v 7.72666 c 0,0.51446 0.11575,0.9037 0.34726,1.16737 0.23795,0.25723 0.59147,0.38602 1.06092,0.38602 0.46303,0 0.81029,-0.12879 1.0418,-0.38602 0.23794,-0.26367 0.35708,-0.65291 0.35708,-1.16737 v -7.72666 c 0,-0.52734 -0.11914,-0.92284 -0.35708,-1.1865 -0.23151,-0.26367 -0.57877,-0.39532 -1.0418,-0.39532 z m 23.45025,2.17041 c 0.64951,0 1.14825,0.18666 1.49551,0.55966 0.35372,0.36656 0.54665,0.90336 0.57878,1.61075 h -4.12895 c 0.0579,-0.70739 0.26045,-1.24419 0.60772,-1.61075 0.34726,-0.373 0.82957,-0.55966 1.44694,-0.55966 z m 11.96154,0.10594 c 0.70739,0 1.26349,0.27687 1.66863,0.82992 0.40515,0.54663 0.60772,1.3019 0.60772,2.26653 0,1.04823 -0.19919,1.85564 -0.5979,2.42156 -0.39229,0.55948 -0.95802,0.83922 -1.69757,0.83922 -0.75241,0 -1.3283,-0.26722 -1.72702,-0.80098 -0.39871,-0.54019 -0.5979,-1.32154 -0.5979,-2.34405 0,-1.03537 0.20257,-1.82923 0.60771,-2.38228 0.40515,-0.55305 0.98392,-0.82992 1.73633,-0.82992 z"
         inkscape:label="tyniweb_text" />
      <path
         id="path24"
         style="font-size:19.7556px;font-family:'Swis721 BdRnd BT';-inkscape-font-specification:'Swis721 BdRnd BT, Normal';text-align:center;text-anchor:middle;fill:#f4f7fa;fill-opacity:1;stroke-width:0"
         d="m 60.263814,163.47347 a 1.48552,1.48552 0 0 0 -1.485698,1.4857 V 180.644 a 1.47588,1.47588 0 0 0 1.475879,1.47588 H 75.735221 A 1.47589,1.47589 0 0 0 77.2111,180.644 v -15.68483 a 1.48553,1.48553 0 0 0 -1.485181,-1.4857 z m 3.852995,3.68298 h 7.72666 c 0.527333,0 0.922831,0.11576 1.186491,0.34727 0.263666,0.23795 0.395841,0.59198 0.395841,1.06143 0,0.46303 -0.132175,0.8103 -0.395841,1.0418 -0.26366,0.23795 -0.659158,0.35708 -1.186491,0.35708 h -7.72666 c -0.514467,0 -0.903188,-0.11913 -1.166854,-0.35708 -0.257234,-0.23151 -0.386023,-0.57878 -0.386023,-1.0418 0,-0.46945 0.128789,-0.82348 0.386023,-1.06143 0.263666,-0.23151 0.652387,-0.34727 1.166854,-0.34727 z m 0,4.23644 h 7.72666 c 0.527333,0 0.922831,0.11576 1.186491,0.34726 0.263666,0.23795 0.395841,0.59198 0.395841,1.06144 0,0.46302 -0.132175,0.81029 -0.395841,1.04179 -0.26366,0.23795 -0.659158,0.35657 -1.186491,0.35657 h -7.72666 c -0.514467,0 -0.903188,-0.11862 -1.166854,-0.35657 -0.257234,-0.2315 -0.386023,-0.57877 -0.386023,-1.04179 0,-0.46946 0.128789,-0.82349 0.386023,-1.06144 0.263666,-0.2315 0.652387,-0.34726 1.166854,-0.34726 z m 0,4.21059 h 7.72666 c 0.527333,0 0.922831,0.11576 1.186491,0.34727 0.263666,0.23795 0.395841,0.59198 0.395841,1.06143 0,0.46303 -0.132175,0.8103 -0.395841,1.0418 -0.26366,0.23795 -0.659158,0.35657 -1.186491,0.35657 h -7.72666 c -0.514467,0 -0.903188,-0.11862 -1.166854,-0.35657 -0.257234,-0.23151 -0.386023,-0.57878 -0.386023,-1.0418 0,-0.46945 0.128789,-0.82348 0.386023,-1.06143 0.263666,-0.23151 0.652387,-0.34727 1.166854,-0.34727 z"
         inkscape:label="tyniweb_icon" />
      <path
         style="font-size:19.7556px;font-family:'Swis721 BdRnd BT';-inkscape-font-specification:'Swis721 BdRnd BT, Normal';text-align:center;text-anchor:middle;fill:#ff6a00;fill-opacity:1;stroke-width:0"
         d="m 109.8955,164.95896 q 0,-0.60772 0.43408,-1.0418 0.44373,-0.44373 1.05144,-0.44373 0.61737,0 1.0418,0.43408 0.43409,0.42444 0.43409,1.05145 0,0.60771 -0.43409,1.04179 -0.43408,0.43409 -1.0418,0.43409 -0.59807,0 -1.04179,-0.44373 -0.44373,-0.44373 -0.44373,-1.03215 z"
         id="path7"
         inkscape:label="Dot" />
    </g>
  </g>
</svg>
