<?xml version="1.0" encoding="UTF-8" standalone="no"?>
<!-- Created with Inkscape (http://www.inkscape.org/) -->

<svg
   width="96mm"
   height="26mm"
   viewBox="0 0 96 26"
   version="1.1"
   id="svg1"
   inkscape:version="1.4.2 (f4327f4, 2025-05-13)"
   sodipodi:docname="tyniweb_LOGO_Nov_2025_White_QuicksandMed.svg"
   xmlns:inkscape="http://www.inkscape.org/namespaces/inkscape"
   xmlns:sodipodi="http://sodipodi.sourceforge.net/DTD/sodipodi-0.dtd"
   xmlns="http://www.w3.org/2000/svg"
   xmlns:svg="http://www.w3.org/2000/svg">
  <sodipodi:namedview
     id="namedview1"
     pagecolor="#ffffff"
     bordercolor="#000000"
     borderopacity="0.25"
     inkscape:showpageshadow="2"
     inkscape:pageopacity="0.0"
     inkscape:pagecheckerboard="0"
     inkscape:deskcolor="#d1d1d1"
     inkscape:document-units="mm"
     inkscape:zoom="1.8974405"
     inkscape:cx="242.43184"
     inkscape:cy="105.66866"
     inkscape:window-width="1911"
     inkscape:window-height="1739"
     inkscape:window-x="229"
     inkscape:window-y="532"
     inkscape:window-maximized="0"
     inkscape:current-layer="layer1" />
  <defs
     id="defs1">
    <inkscape:path-effect
       effect="fillet_chamfer"
       id="path-effect26"
       is_visible="true"
       lpeversion="1"
       nodesatellites_param="F,0,0,1,0,1.48552,0,1 @ F,0,0,1,0,1.48553,0,1 @ F,0,0,1,0,1.47589,0,1 @ F,0,0,1,0,1.47588,0,1"
       radius="0"
       unit="px"
       method="auto"
       mode="F"
       chamfer_steps="1"
       flexible="false"
       use_knot_distance="true"
       apply_no_radius="true"
       apply_with_radius="true"
       only_selected="false"
       hide_knots="false" />
  </defs>
  <g
     inkscape:label="Layer 1"
     inkscape:groupmode="layer"
     id="layer1"
     transform="translate(-55,-135.5)">
    <path
       style="font-size:19.7556px;font-family:'Swis721 BdRnd BT';-inkscape-font-specification:'Swis721 BdRnd BT, Normal';text-align:center;text-anchor:middle;fill:#ff6a00;fill-opacity:1;stroke-width:0"
       d="m 109.03029,140.95216 q 0,-0.60772 0.43408,-1.0418 0.44373,-0.44373 1.05144,-0.44373 0.61736,0 1.04179,0.43408 0.43409,0.42444 0.43409,1.05145 0,0.60771 -0.43409,1.04179 -0.43407,0.43409 -1.04179,0.43409 -0.59808,0 -1.0418,-0.44373 -0.44373,-0.44373 -0.44372,-1.03215 z"
       id="path7"
       inkscape:label="Dot" />
    <path
       style="font-weight:bold;font-size:19.7556px;font-family:Quicksand;-inkscape-font-specification:'Quicksand, Bold';text-align:center;text-anchor:middle;fill:#ffffff;fill-opacity:1;stroke-width:0"
       d="m 113.56169,143.40701 c -0.36875,0 -0.65848,0.12494 -0.8692,0.37517 -0.21072,0.25023 -0.31574,0.53348 -0.31574,0.84956 0,0.15803 0.0264,0.30987 0.0791,0.45475 l 3.02256,8.13853 c 0.0922,0.26341 0.25645,0.4675 0.49351,0.61236 0.25023,0.13173 0.50062,0.17803 0.75086,0.13849 0.44778,-0.0263 0.78381,-0.27672 1.00769,-0.75085 l 1.59111,-4.85966 1.68827,4.85966 c 0.22389,0.47414 0.55939,0.72452 1.00718,0.75085 0.2634,0.0395 0.51327,-0.007 0.75034,-0.13849 0.23705,-0.14486 0.40184,-0.34895 0.49402,-0.61236 l 3.02256,-8.13853 c 0.0263,-0.0658 0.0462,-0.13205 0.0594,-0.19792 0.0132,-0.079 0.0196,-0.16463 0.0196,-0.25683 0,-0.35559 -0.112,-0.64531 -0.33589,-0.8692 -0.22389,-0.23707 -0.48723,-0.35553 -0.79014,-0.35553 -0.60583,0 -0.98763,0.2504 -1.14566,0.75086 l -2.1177,5.67976 -1.51774,-4.11913 c -0.0922,-0.23707 -0.21713,-0.41478 -0.37517,-0.5333 -0.14487,-0.1317 -0.36189,-0.19792 -0.65164,-0.19792 -0.51363,0 -0.87552,0.24392 -1.08624,0.73122 l -1.55804,4.22868 -2.13631,-5.78931 c -0.079,-0.26341 -0.2174,-0.45456 -0.41496,-0.57309 -0.19753,-0.11853 -0.42157,-0.17777 -0.67179,-0.17777 z"
       id="path6" />
    <path
       style="font-weight:bold;font-size:19.7556px;font-family:Quicksand;-inkscape-font-specification:'Quicksand, Bold';text-align:center;text-anchor:middle;fill:#ffffff;fill-opacity:1;stroke-width:0"
       d="m 110.51124,143.40701 c -0.34242,0 -0.62567,0.11846 -0.84957,0.35553 -0.22389,0.22389 -0.33589,0.50715 -0.33589,0.84957 v 8.15867 c 0,0.34242 0.112,0.63213 0.33589,0.8692 0.2239,0.22389 0.50715,0.33589 0.84957,0.33589 0.34243,0 0.62568,-0.112 0.84956,-0.33589 0.2239,-0.23707 0.33589,-0.52678 0.33589,-0.8692 v -8.15867 c 0,-0.34242 -0.11199,-0.62568 -0.33589,-0.84957 -0.22388,-0.23707 -0.50713,-0.35553 -0.84956,-0.35553 z"
       id="path5" />
    <path
       style="font-weight:bold;font-size:19.7556px;font-family:Quicksand;-inkscape-font-specification:'Quicksand, Bold';text-align:center;text-anchor:middle;fill:#ffffff;fill-opacity:1;stroke-width:0"
       d="m 89.395752,143.40701 c -0.342422,0 -0.625669,0.11846 -0.849561,0.35553 -0.223892,0.22389 -0.335897,0.50715 -0.335897,0.84957 v 5.76812 c 0,0.73753 0.144857,1.3961 0.434599,1.97559 0.289742,0.56631 0.691462,1.01434 1.205095,1.34359 0.526804,0.31608 1.139598,0.47387 1.837613,0.47387 0.592654,0 1.119313,-0.0722 1.580266,-0.21704 0.460953,-0.14487 0.856205,-0.35595 1.185457,-0.63252 0.157393,-0.13318 0.302249,-0.28167 0.434599,-0.44545 v 0.20825 c 0,0.67168 -0.105539,1.19885 -0.31626,1.58079 -0.197552,0.39511 -0.500199,0.67135 -0.908472,0.8294 -0.395103,0.1712 -0.895892,0.25683 -1.501717,0.25683 -0.447783,0 -0.843035,-0.0722 -1.185457,-0.21704 -0.342422,-0.13169 -0.618685,-0.23076 -0.829407,-0.29662 -0.289742,-0.10538 -0.566521,-0.0919 -0.829923,0.0398 -0.263401,0.14487 -0.454562,0.4082 -0.573092,0.79013 -0.09219,0.28975 -0.0658,0.55954 0.07906,0.80977 0.158041,0.26341 0.434821,0.48094 0.829924,0.65216 0.302913,0.13169 0.691179,0.23025 1.165303,0.29611 0.474123,0.0659 0.922144,0.0992 1.343587,0.0992 0.948248,0 1.804454,-0.15829 2.568319,-0.47438 0.763865,-0.31607 1.369676,-0.83627 1.81746,-1.56063 0.460953,-0.71119 0.691431,-1.67292 0.691431,-2.88458 v -8.39535 c 0,-0.34242 -0.112005,-0.62568 -0.335897,-0.84957 -0.223892,-0.23707 -0.507138,-0.35553 -0.849561,-0.35553 -0.342422,0 -0.625669,0.11846 -0.84956,0.35553 -0.223892,0.22389 -0.33538,0.50715 -0.33538,0.84957 v 5.05705 c 0,0.50046 -0.08563,0.92857 -0.256832,1.28416 -0.171211,0.34241 -0.415139,0.60575 -0.731221,0.79013 -0.316083,0.17122 -0.704351,0.25683 -1.165304,0.25683 -0.671675,0 -1.198849,-0.17124 -1.580782,-0.51366 -0.368763,-0.35559 -0.552938,-0.96141 -0.552938,-1.81746 v -5.05705 c 0,-0.34242 -0.112005,-0.62568 -0.335897,-0.84957 -0.223892,-0.23707 -0.507138,-0.35553 -0.84956,-0.35553 z"
       id="path4" />
    <path
       style="font-weight:bold;font-size:19.7556px;font-family:Quicksand;-inkscape-font-specification:'Quicksand, Bold';text-align:center;text-anchor:middle;fill:#ffffff;fill-opacity:1;stroke-width:0"
       d="m 131.76471,143.20961 c -0.86922,0 -1.69206,0.22349 -2.4691,0.67127 -0.77703,0.44778 -1.40975,1.09343 -1.89705,1.93632 -0.47411,0.82972 -0.71106,1.83674 -0.71106,3.02204 0,1.0141 0.21754,1.92308 0.65215,2.72645 0.44778,0.80338 1.07998,1.44203 1.89653,1.91616 0.82971,0.46095 1.80439,0.69143 2.92385,0.69143 0.65851,0 1.29716,-0.10554 1.91616,-0.31626 0.619,-0.22389 1.09986,-0.48075 1.44229,-0.7705 0.36876,-0.28974 0.55294,-0.6123 0.55294,-0.9679 0,-0.2634 -0.0986,-0.49387 -0.29611,-0.69143 -0.18438,-0.19754 -0.42185,-0.2961 -0.71158,-0.2961 -0.21073,0 -0.43421,0.0592 -0.67128,0.17776 -0.14486,0.079 -0.30963,0.17757 -0.49402,0.29611 -0.1712,0.10535 -0.40169,0.19745 -0.69144,0.27647 -0.28973,0.079 -0.67852,0.11885 -1.16582,0.11885 -0.5268,0 -1.02707,-0.12545 -1.5012,-0.37568 -0.46095,-0.2634 -0.84275,-0.63873 -1.14566,-1.12603 -0.1697,-0.2931 -0.28988,-0.62214 -0.36019,-0.98754 h 6.52364 c 0.31609,0 0.59285,-0.0991 0.82992,-0.29662 0.23702,-0.19755 0.36197,-0.45391 0.37517,-0.76998 0,-0.71118 -0.1384,-1.3827 -0.41496,-2.01486 -0.26342,-0.63217 -0.62529,-1.18521 -1.08624,-1.65933 -0.46096,-0.48729 -0.99459,-0.8691 -1.60042,-1.14567 -0.59266,-0.27657 -1.22484,-0.41496 -1.89652,-0.41496 z m 0,2.17299 c 0.40827,0 0.79007,0.0921 1.14566,0.27647 0.36876,0.17121 0.67192,0.40815 0.90899,0.71107 0.25024,0.30291 0.38863,0.64488 0.41496,1.02681 v 0.13849 h -5.17746 c 0.032,-0.16368 0.072,-0.31499 0.11989,-0.45423 0.14487,-0.42144 0.3425,-0.75746 0.59273,-1.0077 0.25023,-0.25023 0.54642,-0.42742 0.88883,-0.53278 0.34243,-0.10536 0.7113,-0.15813 1.1064,-0.15813 z"
       id="path3" />
    <path
       style="font-weight:bold;font-size:19.7556px;font-family:Quicksand;-inkscape-font-specification:'Quicksand, Bold';text-align:center;text-anchor:middle;fill:#ffffff;fill-opacity:1;stroke-width:0"
       d="m 104.39792,143.20961 c -0.44779,0 -0.86244,0.0722 -1.24437,0.21704 -0.38193,0.13169 -0.72441,0.30941 -1.02733,0.5333 -0.30291,0.22389 -0.56624,0.46781 -0.79013,0.73122 -0.079,0.0883 -0.15168,0.17492 -0.21756,0.25993 v -0.33899 c 0,-0.34242 -0.11199,-0.62568 -0.33589,-0.84957 -0.22388,-0.23707 -0.5061,-0.35553 -0.848527,-0.35553 -0.34242,0 -0.625657,0.11846 -0.849557,0.35553 -0.223887,0.22389 -0.335897,0.50715 -0.335897,0.84957 v 8.15867 c 0,0.34242 0.11201,0.63213 0.335897,0.8692 0.2239,0.22389 0.507137,0.33589 0.849557,0.33589 0.342427,0 0.624647,-0.112 0.848527,-0.33589 0.2239,-0.23707 0.33589,-0.52678 0.33589,-0.8692 v -5.05757 c 0,-0.43461 0.0926,-0.82338 0.27699,-1.16582 0.19755,-0.35559 0.47382,-0.6378 0.82941,-0.84853 0.36876,-0.21072 0.81677,-0.31626 1.34358,-0.31626 0.53998,0 0.95463,0.10554 1.24437,0.31626 0.28974,0.21073 0.48736,0.49294 0.59273,0.84853 0.11852,0.34244 0.17777,0.73121 0.17777,1.16582 v 5.05757 c 0,0.34242 0.11199,0.63213 0.33589,0.8692 0.22389,0.22389 0.50713,0.33589 0.84956,0.33589 0.34242,0 0.62567,-0.112 0.84957,-0.33589 0.22389,-0.23707 0.33589,-0.52678 0.33589,-0.8692 v -5.05757 c 0,-0.82972 -0.0991,-1.57987 -0.29662,-2.25154 -0.18439,-0.68485 -0.53333,-1.23143 -1.04697,-1.6397 -0.50046,-0.40827 -1.23819,-0.61236 -2.21278,-0.61236 z"
       id="path2" />
    <path
       style="font-weight:bold;font-size:19.7556px;font-family:Quicksand;-inkscape-font-specification:'Quicksand, Bold';text-align:center;text-anchor:middle;fill:#ffffff;fill-opacity:1;stroke-width:0"
       d="m 83.420923,141.13531 c -0.342423,0 -0.632136,0.11848 -0.869197,0.35554 -0.223892,0.22389 -0.335897,0.50714 -0.335897,0.84956 v 1.264 h -0.908472 c -0.316081,0 -0.57941,0.10554 -0.790132,0.31626 -0.210721,0.19755 -0.315743,0.44794 -0.315743,0.75086 0,0.31608 0.105022,0.57941 0.315743,0.79014 0.210722,0.21071 0.474051,0.31626 0.790132,0.31626 h 0.908472 v 5.45186 c 0,0.64532 0.09908,1.15208 0.296623,1.52084 0.197552,0.36877 0.440961,0.64554 0.730704,0.82992 0.302912,0.17123 0.61901,0.28324 0.948263,0.3359 0.342422,0.0395 0.652054,0.0594 0.928625,0.0594 0.460953,0 0.889058,-0.11848 1.28416,-0.35553 0.408273,-0.23707 0.612365,-0.54023 0.612365,-0.90899 0,-0.30291 -0.07916,-0.53986 -0.237194,-0.71107 -0.144871,-0.17122 -0.309128,-0.25683 -0.49351,-0.25683 -0.171211,0 -0.323052,0.0328 -0.454753,0.0987 -0.131701,0.0527 -0.276558,0.0791 -0.434599,0.0791 -0.144872,0 -0.28326,-0.0264 -0.414961,-0.0791 -0.11853,-0.0527 -0.217085,-0.13831 -0.296106,-0.25683 -0.06585,-0.11853 -0.0987,-0.26985 -0.0987,-0.45423 v -5.35368 h 1.402498 c 0.316082,0 0.579412,-0.0991 0.790133,-0.29662 0.210721,-0.21072 0.316259,-0.46707 0.316259,-0.76998 0,-0.31609 -0.105538,-0.57942 -0.316259,-0.79014 -0.210721,-0.21072 -0.474051,-0.31626 -0.790133,-0.31626 h -1.4025 v -1.264 c 0,-0.34242 -0.112006,-0.62567 -0.335897,-0.84956 -0.210722,-0.23706 -0.487501,-0.35554 -0.829924,-0.35554 z"
       id="path1" />
    <path
       style="font-weight:bold;font-size:19.7556px;font-family:Quicksand;-inkscape-font-specification:'Quicksand, Bold';text-align:center;text-anchor:middle;fill:#ffffff;fill-opacity:1;stroke-width:0"
       d="m 138.96426,139.35713 c -0.34242,0 -0.62567,0.11848 -0.84956,0.35553 -0.22389,0.2239 -0.3359,0.50715 -0.3359,0.84956 v 12.40596 c 0,0.3556 0.11201,0.64531 0.3359,0.8692 0.22389,0.22389 0.50714,0.3359 0.84956,0.3359 0.34242,0 0.62567,-0.11201 0.84956,-0.3359 0.22389,-0.23706 0.3359,-0.52676 0.3359,-0.8692 v -0.11317 c 0.13858,0.13654 0.29585,0.27273 0.47335,0.40928 0.3556,0.2634 0.7643,0.48096 1.22525,0.65216 0.46094,0.17122 0.95476,0.25683 1.48156,0.25683 0.89557,0 1.69899,-0.23048 2.41019,-0.69143 0.72435,-0.47413 1.29732,-1.11926 1.71876,-1.9358 0.43461,-0.82972 0.65164,-1.78499 0.65164,-2.86494 0,-1.07994 -0.21703,-2.02773 -0.65164,-2.84427 -0.42144,-0.81655 -1.00086,-1.45522 -1.73839,-1.91617 -0.72436,-0.47412 -1.54772,-0.71106 -2.46962,-0.71106 -0.46095,0 -0.9025,0.0786 -1.32395,0.23667 -0.40827,0.15803 -0.76965,0.36266 -1.08572,0.61289 -0.28343,0.21258 -0.5139,0.43003 -0.69143,0.65319 v -4.15014 c 0,-0.34241 -0.11201,-0.62566 -0.3359,-0.84956 -0.22389,-0.23705 -0.50714,-0.35553 -0.84956,-0.35553 z m 3.98994,6.02547 c 0.57949,0 1.08026,0.14486 1.50171,0.4346 0.43462,0.28974 0.77063,0.68447 1.00769,1.18494 0.25024,0.48729 0.37517,1.04681 0.37517,1.67897 0,0.619 -0.12493,1.18549 -0.37517,1.69912 -0.23706,0.50046 -0.57307,0.89572 -1.00769,1.18546 -0.42145,0.28975 -0.92222,0.43459 -1.50171,0.43459 -0.57949,0 -1.08623,-0.14484 -1.52084,-0.43459 -0.43462,-0.28974 -0.77659,-0.685 -1.02681,-1.18546 -0.23708,-0.51363 -0.35554,-1.08012 -0.35554,-1.69912 0,-0.63216 0.11846,-1.19168 0.35554,-1.67897 0.25022,-0.50047 0.59219,-0.8952 1.02681,-1.18494 0.43461,-0.28974 0.94135,-0.4346 1.52084,-0.4346 z"
       id="path8" />
    <path
       id="path24"
       style="font-size:19.7556px;font-family:'Swis721 BdRnd BT';-inkscape-font-specification:'Swis721 BdRnd BT, Normal';text-align:center;text-anchor:middle;fill:#ffffff;fill-opacity:1;stroke-width:0"
       d="m 59.971764,139.17703 a 1.5110684,1.4937728 0 0 0 -1.51125,1.49395 v 15.77197 a 1.5012626,1.4840792 0 0 0 1.501261,1.48408 h 15.747478 a 1.5012728,1.4840893 0 0 0 1.501261,-1.48408 v -15.77197 a 1.5110787,1.4937829 0 0 0 -1.510724,-1.49395 z m 3.919259,3.70344 h 7.859546 c 0.536402,0 0.938702,0.1164 1.206897,0.3492 0.268201,0.23927 0.402648,0.59527 0.402648,1.06733 0,0.4656 -0.134447,0.8148 -0.402648,1.04758 -0.268195,0.23928 -0.670495,0.35907 -1.206897,0.35907 h -7.859546 c -0.523314,0 -0.918721,-0.11979 -1.186921,-0.35907 -0.261658,-0.23279 -0.392662,-0.58199 -0.392662,-1.04758 0,-0.47206 0.131004,-0.82806 0.392662,-1.06733 0.2682,-0.2328 0.663607,-0.3492 1.186921,-0.3492 z m 0,4.25998 h 7.859546 c 0.536402,0 0.938702,0.1164 1.206897,0.34919 0.268201,0.23927 0.402648,0.59526 0.402648,1.06733 0,0.46559 -0.134447,0.81479 -0.402648,1.04758 -0.268195,0.23927 -0.670495,0.35855 -1.206897,0.35855 h -7.859546 c -0.523314,0 -0.918721,-0.11928 -1.186921,-0.35855 -0.261658,-0.23279 -0.392662,-0.58199 -0.392662,-1.04758 0,-0.47207 0.131004,-0.82806 0.392662,-1.06733 0.2682,-0.23279 0.663607,-0.34919 1.186921,-0.34919 z m 0,4.23398 h 7.859546 c 0.536402,0 0.938702,0.1164 1.206897,0.3492 0.268201,0.23927 0.402648,0.59527 0.402648,1.06732 0,0.46561 -0.134447,0.81481 -0.402648,1.04759 -0.268195,0.23927 -0.670495,0.35855 -1.206897,0.35855 h -7.859546 c -0.523314,0 -0.918721,-0.11928 -1.186921,-0.35855 -0.261658,-0.23279 -0.392662,-0.58199 -0.392662,-1.04759 0,-0.47205 0.131004,-0.82805 0.392662,-1.06732 0.2682,-0.2328 0.663607,-0.3492 1.186921,-0.3492 z"
       inkscape:label="tyniweb_icon"
       transform="translate(-1.125e-6)" />
  </g>
</svg>
